<svg width="34" height="28" viewBox="0 0 34 28" fill="none" xmlns="http://www.w3.org/2000/svg">
<g clip-path="url(#clip0)">
<path d="M33.6414 12.014L10.4656 0.0744682C10.3062 -0.00508477 10.127 -0.024973 9.9543 0.0346917C9.78828 0.0877271 9.64883 0.207057 9.56914 0.366163L7.69648 4.06538L6.43476 6.56467L5.19297 9.01755C5.11328 9.17666 5.1 9.35565 5.15312 9.52139C5.20625 9.68712 5.32578 9.82634 5.48516 9.90589L10.4988 12.4251C10.3793 12.7831 10.3195 13.1609 10.3195 13.5587C10.3195 15.4282 11.7273 16.9795 13.5469 17.2115V20.155C13.5469 21.9847 12.0527 23.4697 10.2199 23.4697H5.31914V21.4809C5.31914 21.1162 5.02031 20.8179 4.65508 20.8179H0.664062C0.298828 20.8179 0 21.1162 0 21.4809V26.7844C0 27.149 0.298828 27.4473 0.664062 27.4473H4.65508C5.02031 27.4473 5.31914 27.149 5.31914 26.7844V24.7956H10.2133C12.7832 24.7956 14.8684 22.7139 14.8684 20.155V17.1386C15.7449 16.9331 16.502 16.4093 17.0133 15.7L26.6156 20.5196C26.7086 20.566 26.8148 20.5925 26.9144 20.5925C27.1602 20.5925 27.3926 20.4599 27.5055 20.2279L27.8309 19.5782L29.7234 20.5328C29.8164 20.5793 29.9227 20.6058 30.0223 20.6058C30.268 20.6058 30.5004 20.4732 30.6133 20.2412L31.8684 17.7617C31.948 17.6026 31.9613 17.4236 31.9082 17.2579C31.8551 17.0922 31.7355 16.953 31.5762 16.8734L29.6836 15.9254L30.009 15.2757C30.0887 15.1166 30.1019 14.9376 30.0488 14.7719C29.9957 14.6061 29.8762 14.4669 29.7168 14.3874L29.1324 14.0957L33.4555 13.2604C33.7344 13.2073 33.9469 12.9819 33.9867 12.7035C34.0332 12.4184 33.8937 12.1466 33.6414 12.014ZM3.99101 26.1214H1.32812V22.1438H3.99101V26.1214ZM14.2043 15.9055H14.1977C14.1777 15.9055 14.1578 15.9121 14.1379 15.9121C14.098 15.9121 14.0582 15.9188 14.0184 15.9188C12.7168 15.9188 11.6543 14.8647 11.6543 13.5653C11.6543 13.3863 11.6742 13.2073 11.7141 13.0416L15.818 15.1034C15.4129 15.5475 14.8418 15.8525 14.2043 15.9055ZM26.9543 18.3982L26.6289 19.0412L17.591 14.5001L16.3625 13.8835L12.3648 11.8748L11.1363 11.2583L6.68047 9.01755L7.33125 7.73144L12.4711 10.2108L14.7621 11.318L15.3199 11.5898L17.6109 12.6969L22.7707 15.1829C22.8637 15.2293 22.9633 15.2492 23.0629 15.2492C23.1027 15.2492 23.1492 15.2426 23.1891 15.2359L27.0074 14.5001L28.5414 15.2691L28.216 15.9121L26.9543 18.3982ZM30.3941 17.7551L29.7367 19.0479L28.4352 18.3915L29.0926 17.0988L30.3941 17.7551ZM27.2 13.1145L25.0617 13.5256L23.1492 13.8968L15.9641 10.4296L15.2668 10.0915L7.92227 6.55141L8.57969 5.24541L8.79219 4.82776L12.9758 6.90277C13.0687 6.94917 13.1684 6.97569 13.268 6.97569C13.5137 6.97569 13.7461 6.8431 13.8656 6.60444C13.8922 6.55141 13.9121 6.49837 13.9187 6.44534C13.9785 6.16027 13.8391 5.85532 13.5668 5.7161L9.38984 3.64772L10.4457 1.55946L31.3238 12.3124L27.2 13.1145Z" fill="#1F1F1F"/>
<path d="M15.6586 8.1542C15.2933 8.1542 14.9945 7.85587 14.9945 7.49125C14.9945 7.12663 15.2933 6.82831 15.6586 6.82831C16.0238 6.82831 16.3226 7.12663 16.3226 7.49125C16.3226 7.8625 16.0238 8.1542 15.6586 8.1542Z" fill="#1F1F1F"/>
</g>
<defs>
<clipPath id="clip0">
<rect width="34" height="27.4458" fill="white"/>
</clipPath>
</defs>
</svg>
