<svg width="34" height="51" viewBox="0 0 34 51" fill="none" xmlns="http://www.w3.org/2000/svg">
<g opacity="0.8" clip-path="url(#clip0)">
<path d="M16.5456 7.24576C16.7234 7.38549 16.9407 7.45535 17.158 7.45535C17.4544 7.45535 17.7408 7.3256 17.9285 7.07609L17.9483 7.05613C18.2841 6.62697 18.215 5.99821 17.7804 5.65887C17.3556 5.31954 16.7333 5.3894 16.3974 5.82854L16.3777 5.8485C16.0418 6.28764 16.1209 6.90643 16.5456 7.24576Z" fill="#3C72C2"/>
<path d="M14.9454 46.9679C14.5206 46.6286 13.8983 46.6984 13.5625 47.1376L12.3672 48.6646C12.2191 48.8542 12.0017 48.974 11.7647 49.0039C11.5276 49.0339 11.2905 48.964 11.1028 48.8143C10.8263 48.5947 10.7077 48.2354 10.7868 47.8961C10.7966 47.8661 10.7966 47.8262 10.8065 47.7963L14.9355 29.9712C15.0046 29.6718 14.9355 29.3624 14.7478 29.1229C14.5601 28.8834 14.2737 28.7436 13.9773 28.7436H2.88437C2.38059 28.7436 1.9756 28.3344 1.9756 27.8254C1.9756 27.5859 2.0645 27.3663 2.22254 27.1967C2.2423 27.1767 2.26206 27.1468 2.28181 27.1268L16.1801 9.3317C16.516 8.90255 16.4468 8.27378 16.0221 7.93444C15.5973 7.59511 14.975 7.66497 14.6392 8.10411L0.760604 25.8493C0.266705 26.3883 0 27.0869 0 27.8155C0 29.4223 1.29402 30.7297 2.88437 30.7297H12.7327L8.86055 47.437C8.85067 47.4769 8.84079 47.5268 8.84079 47.5667C8.64323 48.6147 9.04823 49.7125 9.88785 50.3712C10.4015 50.7804 11.0238 51 11.6659 51C11.7745 51 11.8931 50.99 12.0017 50.98C12.7623 50.8902 13.4439 50.501 13.9181 49.8922L15.1133 48.3652C15.4492 47.936 15.3701 47.3072 14.9454 46.9679Z" fill="#3C72C2"/>
<path d="M31.1255 20.2703H21.2772L25.1494 3.56305C25.1592 3.52313 25.1691 3.47323 25.1691 3.4333C25.3667 2.38536 24.9617 1.28751 24.122 0.618821C22.8774 -0.369241 21.0697 -0.159652 20.0918 1.09788L18.8373 2.69475C18.5015 3.12391 18.5706 3.75268 19.0053 4.09201C19.43 4.43135 20.0523 4.36148 20.3882 3.92234L21.6427 2.32548C21.9489 1.93624 22.5218 1.86638 22.9071 2.17577C23.1836 2.39534 23.3022 2.75463 23.2231 3.09397C23.2133 3.12391 23.2133 3.16383 23.2034 3.19377L19.0645 21.0388C18.9954 21.3382 19.0645 21.6476 19.2522 21.8871C19.4399 22.1267 19.7263 22.2664 20.0227 22.2664H31.1157C31.6194 22.2664 32.0244 22.6756 32.0244 23.1846C32.0244 23.4241 31.9355 23.6437 31.7775 23.8133C31.7577 23.8333 31.738 23.8632 31.7182 23.8832L17.7705 41.7382C17.4347 42.1674 17.5038 42.7961 17.9384 43.1355C18.1162 43.2752 18.3335 43.3451 18.5509 43.3451C18.8373 43.3451 19.1337 43.2153 19.3213 42.9658L33.2394 25.1407C33.7333 24.6018 34 23.9032 34 23.1746C34 21.5677 32.7159 20.2703 31.1255 20.2703Z" fill="#3C72C2"/>
<path d="M17.405 43.8241C16.9802 43.4848 16.3579 43.5547 16.0221 43.9838L16.0023 44.0038C15.6665 44.4329 15.7356 45.0617 16.1604 45.401C16.3382 45.5507 16.5555 45.6206 16.7728 45.6206C17.0593 45.6206 17.3556 45.4908 17.5433 45.2413L17.563 45.2214C17.9088 44.7922 17.8297 44.1635 17.405 43.8241Z" fill="#3C72C2"/>
</g>
<defs>
<clipPath id="clip0">
<rect width="34" height="51" fill="white"/>
</clipPath>
</defs>
</svg>
