<svg width="42" height="51" viewBox="0 0 42 51" fill="none" xmlns="http://www.w3.org/2000/svg">
<g opacity="0.8" clip-path="url(#clip0)">
<path d="M35.2641 17.0036H21C20.4552 17.0036 20.0094 16.5587 20.0094 16.015C20.0094 15.4713 20.4552 15.0264 21 15.0264H35.2641C35.8089 15.0264 36.2547 15.4713 36.2547 16.015C36.2547 16.5587 35.8089 17.0036 35.2641 17.0036Z" fill="#3C72C2"/>
<path d="M31.0938 21.7488C30.8363 21.7488 30.5787 21.64 30.3905 21.4621C30.2023 21.2743 30.1033 21.0271 30.1033 20.7602C30.1033 20.4933 30.2122 20.2461 30.3905 20.0583C30.5688 19.8705 30.8264 19.7716 31.0938 19.7716C31.3613 19.7716 31.6089 19.8803 31.7971 20.0583C31.9853 20.2461 32.0844 20.4933 32.0844 20.7602C32.0844 21.0271 31.9754 21.2743 31.7971 21.4621C31.6188 21.6499 31.3613 21.7488 31.0938 21.7488Z" fill="#3C72C2"/>
<path d="M21 6.22808C20.7424 6.22808 20.4849 6.11933 20.2967 5.94139C20.1085 5.76345 20.0094 5.49653 20.0094 5.2395C20.0094 4.98247 20.1184 4.72543 20.2967 4.5376C20.4849 4.34977 20.7325 4.25092 21 4.25092C21.2674 4.25092 21.5151 4.35966 21.7033 4.5376C21.8915 4.72543 21.9905 4.97258 21.9905 5.2395C21.9905 5.50641 21.8816 5.75356 21.7033 5.94139C21.5151 6.11933 21.2575 6.22808 21 6.22808Z" fill="#3C72C2"/>
<path d="M26.9335 21.7488H21C20.4552 21.7488 20.0094 21.3039 20.0094 20.7602C20.0094 20.2165 20.4552 19.7716 21 19.7716H26.9335C27.4783 19.7716 27.924 20.2165 27.924 20.7602C27.924 21.3039 27.4783 21.7488 26.9335 21.7488Z" fill="#3C72C2"/>
<path d="M35.2641 27.6803H21C20.4552 27.6803 20.0094 27.2354 20.0094 26.6917C20.0094 26.148 20.4552 25.7031 21 25.7031H35.2641C35.8089 25.7031 36.2547 26.148 36.2547 26.6917C36.2547 27.2354 35.8089 27.6803 35.2641 27.6803Z" fill="#3C72C2"/>
<path d="M31.0938 32.4255C30.8363 32.4255 30.5787 32.3167 30.3905 32.1388C30.2023 31.9509 30.1033 31.7038 30.1033 31.4369C30.1033 31.17 30.2122 30.9228 30.3905 30.735C30.5787 30.5472 30.8264 30.4483 31.0938 30.4483C31.3613 30.4483 31.6089 30.557 31.7971 30.735C31.9853 30.9228 32.0844 31.17 32.0844 31.4369C32.0844 31.7038 31.9754 31.9509 31.7971 32.1388C31.6188 32.3266 31.3613 32.4255 31.0938 32.4255Z" fill="#3C72C2"/>
<path d="M26.9335 32.4255H21C20.4552 32.4255 20.0094 31.9806 20.0094 31.4369C20.0094 30.8932 20.4552 30.4483 21 30.4483H26.9335C27.4783 30.4483 27.924 30.8932 27.924 31.4369C27.924 31.9806 27.4783 32.4255 26.9335 32.4255Z" fill="#3C72C2"/>
<path d="M35.2641 38.357H21C20.4552 38.357 20.0094 37.9121 20.0094 37.3684C20.0094 36.8247 20.4552 36.3798 21 36.3798H35.2641C35.8089 36.3798 36.2547 36.8247 36.2547 37.3684C36.2547 37.9121 35.8089 38.357 35.2641 38.357Z" fill="#3C72C2"/>
<path d="M31.0938 43.1022C30.8363 43.1022 30.5787 42.9934 30.3905 42.8155C30.2023 42.6276 30.1033 42.3805 30.1033 42.1136C30.1033 41.8467 30.2122 41.5995 30.3905 41.4117C30.5787 41.2239 30.8264 41.125 31.0938 41.125C31.3613 41.125 31.6089 41.2337 31.7971 41.4117C31.9853 41.5995 32.0844 41.8467 32.0844 42.1136C32.0844 42.3805 31.9754 42.6276 31.7971 42.8155C31.6188 43.0033 31.3613 43.1022 31.0938 43.1022Z" fill="#3C72C2"/>
<path d="M26.9335 43.1022H21C20.4552 43.1022 20.0094 42.6573 20.0094 42.1136C20.0094 41.5699 20.4552 41.125 21 41.125H26.9335C27.4783 41.125 27.924 41.5699 27.924 42.1136C27.924 42.6573 27.4783 43.1022 26.9335 43.1022Z" fill="#3C72C2"/>
<path d="M37.166 3.85547H29.5981C28.5085 2.81746 27.0226 2.17488 25.3981 2.17488H24.5264C23.8726 0.860066 22.5155 0 21 0C19.4844 0 18.1273 0.860066 17.4637 2.17488H16.592C14.9674 2.17488 13.4915 2.81746 12.392 3.85547H4.83396C2.16934 3.85547 0 6.02046 0 8.67975V45.801C0 48.4504 2.16934 50.6154 4.83396 50.6154H37.1759C39.8405 50.6154 42.0099 48.4504 42.0099 45.7911V8.67975C42 6.02046 39.8306 3.85547 37.166 3.85547ZM16.592 4.15204H18.1373C18.583 4.15204 18.9693 3.85547 19.0882 3.43038C19.3259 2.57031 20.1085 1.97716 21 1.97716C21.8915 1.97716 22.674 2.57031 22.9118 3.43038C23.0306 3.85547 23.417 4.15204 23.8627 4.15204H25.408C27.5575 4.15204 29.3306 5.81286 29.5089 7.90865H12.491C12.6693 5.81286 14.4424 4.15204 16.592 4.15204ZM40.0188 45.7911C40.0188 47.3629 38.741 48.6382 37.166 48.6382H4.83396C3.25896 48.6382 1.98113 47.3629 1.98113 45.7911V8.67975C1.98113 7.1079 3.25896 5.83263 4.83396 5.83263H11.0052C10.6783 6.57407 10.5 7.39459 10.5 8.25466V8.89723C10.5 9.44096 10.9457 9.88582 11.4906 9.88582H30.5094C31.0542 9.88582 31.5 9.44096 31.5 8.89723V8.25466C31.5 7.39459 31.3217 6.57407 30.9948 5.83263H37.1759C38.7509 5.83263 40.0287 7.1079 40.0287 8.67975V45.7911H40.0188Z" fill="#3C72C2"/>
<path d="M13.3033 14.7892L9.06369 19.0203L7.75614 17.7154C7.36982 17.3299 6.74576 17.3299 6.35944 17.7154C5.97312 18.101 5.97312 18.7238 6.35944 19.1093L8.36039 21.1063C8.5585 21.304 8.80614 21.3929 9.06369 21.3929C9.32124 21.3929 9.56888 21.2941 9.76699 21.1063L14.7 16.1831C15.0863 15.7976 15.0863 15.1748 14.7 14.7892C14.3137 14.4037 13.6896 14.4037 13.3033 14.7892Z" fill="#3C72C2"/>
<path d="M12.283 36.3798H7.52829C6.98347 36.3798 6.53772 36.8247 6.53772 37.3684V42.1136C6.53772 42.6573 6.98347 43.1022 7.52829 43.1022H12.283C12.8278 43.1022 13.2736 42.6573 13.2736 42.1136V37.3684C13.2736 36.8247 12.8278 36.3798 12.283 36.3798ZM11.2924 41.125H8.51885V38.357H11.2924V41.125Z" fill="#3C72C2"/>
<path d="M12.283 25.7031H7.52829C6.98347 25.7031 6.53772 26.148 6.53772 26.6917V31.4369C6.53772 31.9806 6.98347 32.4255 7.52829 32.4255H12.283C12.8278 32.4255 13.2736 31.9806 13.2736 31.4369V26.6917C13.2736 26.148 12.8278 25.7031 12.283 25.7031ZM11.2924 30.4483H8.51885V27.6803H11.2924V30.4483Z" fill="#3C72C2"/>
</g>
<defs>
<clipPath id="clip0">
<rect width="42" height="50.6154" fill="white"/>
</clipPath>
</defs>
</svg>
