<svg width="42" height="52" viewBox="0 0 42 52" fill="none" xmlns="http://www.w3.org/2000/svg">
<path d="M39.0251 20.6128L39.7068 20.0363C40.4506 19.3991 40.8947 18.5191 40.9567 17.5684C41.0187 16.6075 40.6985 15.6871 40.0374 14.9589C38.6945 13.4721 36.3601 13.3305 34.8313 14.6353L34.1702 15.2017C31.2882 12.9361 27.7659 11.3987 23.9233 10.8728V8.60719H26.2061C26.7742 8.60719 27.2391 8.15205 27.2391 7.59577V3.33769C27.2391 1.4969 25.7 0 23.8096 0H18.2833C16.393 0 14.8539 1.4969 14.8539 3.33769V7.59577C14.8539 8.15205 15.3187 8.60719 15.8869 8.60719H18.2317V10.8424C14.3168 11.3481 10.7427 12.8956 7.80915 15.2017L7.13773 14.6353C5.60895 13.3305 3.27447 13.4822 1.93163 14.9589C1.28087 15.677 0.95032 16.6075 1.0123 17.5684C1.07427 18.5292 1.51845 19.4092 2.26217 20.0363L2.95425 20.6229C1.0846 23.6774 0 27.2578 0 31.0709C0 42.3179 9.42056 51.4712 21 51.4712C32.5794 51.4712 42 42.3179 42 31.0709C41.9897 27.2477 40.9051 23.6774 39.0251 20.6128ZM36.1845 16.1524C36.8559 15.5759 37.8888 15.6366 38.4879 16.294C38.7772 16.6075 38.9115 17.0121 38.8908 17.4268C38.8598 17.8415 38.6739 18.2258 38.3433 18.509L37.8578 18.9237C37.2071 18.0741 36.5047 17.2852 35.73 16.5468L36.1845 16.1524ZM25.1731 3.33769V6.58435H23.9336V2.02284C24.6257 2.08353 25.1731 2.64992 25.1731 3.33769ZM21.8677 6.58435H20.2873V2.02284H21.8677V6.58435ZM16.9198 3.33769C16.9198 2.62969 17.4983 2.05318 18.2317 2.02284V6.58435H16.9198V3.33769ZM20.2976 8.60719H21.8677V10.6806C21.5785 10.6705 21.2892 10.6604 21 10.6604C20.7624 10.6604 20.5352 10.6705 20.2976 10.6705V8.60719ZM3.63601 18.509C3.31579 18.2359 3.11953 17.8516 3.08854 17.4268C3.05755 17.0121 3.20216 16.6075 3.49139 16.294C4.08018 15.6366 5.11313 15.5759 5.79488 16.1524L6.25971 16.5468C5.485 17.2852 4.78259 18.0842 4.13182 18.9237L3.63601 18.509ZM21 49.4484C10.5568 49.4484 2.06591 41.2053 2.06591 31.0709C2.06591 20.9364 10.5568 12.6933 21 12.6933C31.4432 12.6933 39.9341 20.9364 39.9341 31.0709C39.9238 41.2053 31.4329 49.4484 21 49.4484Z" fill="#3C72C2"/>
<path d="M21 14.9286C11.848 14.9286 4.39001 22.1704 4.39001 31.0709C4.39001 39.9714 11.8376 47.2131 21 47.2131C30.1623 47.2131 37.6099 39.9714 37.6099 31.0709C37.5996 22.1704 30.1519 14.9286 21 14.9286ZM33.8809 32.0823H35.5027C35.2754 35.2177 33.9842 38.0699 31.9803 40.3153L30.8337 39.2027C30.4308 38.8082 29.7697 38.8082 29.3772 39.2128C28.9744 39.6073 28.9744 40.2546 29.3876 40.6389L30.5135 41.7414C28.21 43.6833 25.2661 44.9375 22.0329 45.16V43.5923C22.0329 43.036 21.5681 42.5808 21 42.5808C20.4318 42.5808 19.967 43.036 19.967 43.5923V45.16C16.7338 44.9375 13.7899 43.6934 11.4864 41.7414L12.6123 40.6389C13.0152 40.2445 13.0152 39.6073 12.6227 39.2128C12.2198 38.8184 11.5691 38.8184 11.1662 39.2027L10.0196 40.3153C8.01569 38.08 6.7245 35.2177 6.49725 32.0823H8.11899C8.68711 32.0823 9.15194 31.6271 9.15194 31.0709C9.15194 30.5146 8.68711 30.0594 8.11899 30.0594H6.49725C6.7245 26.924 8.01569 24.0617 10.0196 21.8265L11.1662 22.939C11.3625 23.1312 11.631 23.2324 11.8893 23.2324C12.1578 23.2324 12.4161 23.1312 12.6227 22.9289C13.0255 22.5345 13.0255 21.8973 12.6123 21.5028L11.4864 20.4004C13.7899 18.4584 16.7338 17.2043 19.967 16.9818V18.5495C19.967 19.1058 20.4318 19.5609 21 19.5609C21.5681 19.5609 22.0329 19.1058 22.0329 18.5495V16.9818C25.2661 17.2043 28.21 18.4483 30.5135 20.4004L29.3876 21.5028C28.9847 21.8973 28.9847 22.5345 29.3772 22.9289C29.5838 23.1312 29.8421 23.2324 30.1106 23.2324C30.3689 23.2324 30.6374 23.1312 30.8337 22.939L31.9803 21.8265C33.9842 24.0617 35.2754 26.924 35.5027 30.0594H33.8809C33.3128 30.0594 32.848 30.5146 32.848 31.0709C32.848 31.6271 33.3128 32.0823 33.8809 32.0823Z" fill="#3C72C2"/>
<path d="M25.8239 20.0665C25.297 19.844 24.6876 20.0867 24.4707 20.5924L22.0949 25.9934C21.7437 25.9226 21.3718 25.8821 20.9896 25.8821C18.3452 25.8821 16.1347 27.7229 15.7215 30.2616C15.6286 30.8077 16.0211 31.3337 16.5789 31.4146C17.1367 31.5056 17.6738 31.1213 17.7565 30.5751C18.0044 29.0479 19.3885 27.905 20.9793 27.905C21.0723 27.905 21.1549 27.905 21.2375 27.9151L20.029 30.6661C19.8017 31.182 20.0496 31.7686 20.5661 31.9911C20.7004 32.0417 20.8347 32.072 20.969 32.072C21.3718 32.072 21.754 31.8394 21.9193 31.455L23.1382 28.6838C23.8096 29.2603 24.2434 30.1099 24.2434 31.0505C24.2434 32.6789 22.9832 34.0342 21.3098 34.196C20.7417 34.2567 20.3285 34.7523 20.3905 35.2984C20.4421 35.8244 20.8966 36.2087 21.4131 36.2087C21.4441 36.2087 21.4854 36.2087 21.5164 36.2087C24.2434 35.9356 26.3093 33.7206 26.3093 31.0505C26.3093 29.2704 25.39 27.7027 23.9852 26.7722L26.3507 21.3813C26.5882 20.8857 26.3507 20.289 25.8239 20.0665Z" fill="#3C72C2"/>
<path d="M18.7482 33.5286C18.5623 33.0027 17.9735 32.7195 17.4364 32.9117C16.8992 33.0937 16.61 33.6702 16.8063 34.1962L16.8166 34.2164C16.9612 34.6311 17.3641 34.8941 17.7876 34.8941C17.9012 34.8941 18.0148 34.8738 18.1284 34.8334C18.6656 34.6513 18.9548 34.0748 18.7585 33.5489L18.7482 33.5286Z" fill="#3C72C2"/>
</svg>
