<svg width="36" height="53" viewBox="0 0 36 53" fill="none" xmlns="http://www.w3.org/2000/svg">
<path d="M32.6238 47.1253C31.055 47.0788 29.8552 48.3327 29.8552 49.9117C29.8552 51.4442 31.1011 52.6981 32.6238 52.6981C34.1466 52.6981 35.3925 51.4442 35.3925 49.9117C35.3925 48.4256 34.1466 47.1253 32.6238 47.1253Z" fill="#E5E8EB"/>
<path d="M32.7621 27.1117C32.7159 27.1117 32.6698 27.1117 32.6237 27.1117C32.5775 27.1117 32.5314 27.1117 32.5314 27.1117C20.9032 27.1582 11.3053 36.0272 10.0133 47.4037H5.6758C6.96782 33.6126 18.5037 22.7933 32.5314 22.7933H32.6237C34.1464 22.7933 35.3923 21.5396 35.3923 20.0072C35.3923 19.6358 35.3461 19.2643 35.2077 18.9392C35.1616 18.8464 35.1154 18.7535 35.0693 18.6606C34.977 18.5213 34.9308 18.382 34.8385 18.2892C34.7463 18.1963 34.7463 18.057 34.654 17.9641L18.1346 0.969038C17.7654 0.59756 17.2117 0.59756 16.8426 0.969038L0.830725 17.5926C0.369289 18.1034 0.0924274 18.7535 0.0924274 19.45V24.8829C0.0924274 26.3688 1.29216 27.5296 2.72261 27.5296C4.19921 27.5296 5.3528 26.3223 5.3528 24.8829V21.261C5.3528 20.7966 5.53737 20.3323 5.86038 20.0072L16.8887 8.58432C17.2578 8.21284 17.8116 8.21284 18.1807 8.58432L26.4866 17.1283C26.7173 17.3605 26.5788 17.7319 26.2558 17.8248C11.3053 20.7502 -0.0460034 34.0305 0.000140177 49.9111C0.000140177 49.9576 0.000140177 49.9576 0.000140177 50.004C0.000140177 50.0504 0.000140177 50.0504 0.000140177 50.0969C0.000140177 51.5828 1.19987 52.7437 2.63032 52.7437H12.7358C13.8432 52.7437 14.8122 52.0471 15.1814 51.0256C15.3198 50.7005 15.4121 50.3291 15.4121 49.9111C15.4121 41.2743 21.8261 34.1234 30.0858 32.9625V37.3738C24.2717 38.4882 19.8419 43.6889 19.8419 49.9111C19.8419 51.4435 21.0878 52.6972 22.6105 52.6972C24.1332 52.6972 25.3791 51.4435 25.3791 49.9111C25.3791 45.9178 28.563 42.7138 32.5314 42.7138H32.6237C33.7772 42.7138 34.7924 41.9708 35.2077 40.9957C35.3461 40.6707 35.4384 40.2992 35.4384 39.9277V29.7585C35.3923 28.2726 34.2387 27.1117 32.7621 27.1117Z" fill="#D3F4CE"/>
</svg>
