<svg width="30" height="19" viewBox="0 0 30 19" fill="none" xmlns="http://www.w3.org/2000/svg">
<path d="M3.22264 6.63535C3.32811 6.71691 3.45115 6.75769 3.58006 6.75769C3.75584 6.75769 3.93162 6.68195 4.04881 6.53049L4.06639 6.51301C4.26561 6.25668 4.21287 5.88966 3.95506 5.69742C3.69725 5.49935 3.32811 5.55178 3.13475 5.8081L3.11717 5.82558C2.91795 6.07026 2.96482 6.43728 3.22264 6.63535Z" fill="white"/>
<path d="M25.9102 14.3311H25.8984C25.5762 14.3311 25.3125 14.5932 25.3125 14.9136C25.3125 15.234 25.5762 15.4962 25.8984 15.4962H25.916C26.2383 15.4962 26.502 15.234 26.502 14.9136C26.502 14.5932 26.2383 14.3311 25.9102 14.3311Z" fill="white"/>
<path d="M25.6055 4.36925C22.7754 1.54963 19.0078 0 15 0C14.2734 0 13.5469 0.052431 12.832 0.157293C12.8086 0.157293 12.791 0.163119 12.7676 0.168944C9.85547 0.600043 7.125 1.88169 4.91602 3.87407C4.67578 4.08961 4.6582 4.45663 4.875 4.69548C5.0918 4.93434 5.46094 4.95181 5.70117 4.73626C5.83008 4.61975 5.96484 4.50324 6.09375 4.39255L6.81445 5.63924C5.51367 6.48396 4.39453 7.59084 3.54492 8.88996L2.7832 8.45304C2.88867 8.25496 3 8.05689 3.12305 7.85882C3.28711 7.58501 3.19922 7.22382 2.92383 7.0607C2.64844 6.89758 2.28516 6.98497 2.12109 7.25877C1.89258 7.63744 1.68164 8.02776 1.48828 8.42973C1.48828 8.43556 1.48242 8.44138 1.47656 8.44721C0.509766 10.4512 0 12.665 0 14.9137C0 15.2341 0.263672 15.4963 0.585938 15.4963H2.34375C2.66602 15.4963 2.92969 15.2341 2.92969 14.9137C2.92969 9.45505 7.40039 5.01007 12.8906 5.01007C15.0117 5.01007 17.0742 5.68585 18.7734 6.92089L14.0508 11.6164C13.6816 11.4882 13.2891 11.4183 12.8848 11.4183C10.9453 11.4183 9.36914 12.9854 9.36914 14.9137C9.36914 16.842 10.9453 18.4091 12.8848 18.4091C14.8242 18.4091 16.4004 16.842 16.4004 14.9137C16.4004 14.5117 16.3359 14.1272 16.2012 13.7544L20.9238 9.0589C22.166 10.7483 22.8457 12.8048 22.8457 14.9079C22.8457 15.2283 23.1094 15.4904 23.4316 15.4904C23.7539 15.4904 24.0176 15.2283 24.0176 14.9079C24.0176 13.1543 23.5957 11.4299 22.8047 9.88615L26.7246 7.63744C27.9551 9.59487 28.7051 11.8785 28.8105 14.3253H27.5977C27.2754 14.3253 27.0117 14.5875 27.0117 14.9079C27.0117 15.2283 27.2754 15.4904 27.5977 15.4904H29.4141C29.7363 15.4904 30 15.2283 30 14.9079C30 10.9289 28.4414 7.18304 25.6055 4.36925ZM1.77539 14.3311H1.18359C1.25391 12.6592 1.62891 11.0222 2.28516 9.50165L2.9707 9.8978C2.2793 11.2377 1.85742 12.7407 1.77539 14.3311ZM19.7168 1.99238L17.9414 5.05085C16.5586 4.35177 15.0352 3.94397 13.4766 3.86241V1.24669C13.9805 1.19426 14.4902 1.16513 15 1.16513C16.6582 1.16513 18.2461 1.45642 19.7168 1.99238ZM7.03711 3.67017C8.61914 2.56329 10.4121 1.80013 12.3047 1.42729V3.85659C10.7051 3.93815 9.19336 4.35759 7.83984 5.04502L7.03711 3.67017ZM21.2461 7.10148L13.1367 15.1584C13.002 15.2924 12.7734 15.2924 12.6387 15.1584C12.5039 15.0244 12.5039 14.7972 12.6387 14.6632L20.748 6.60048C20.8125 6.53639 20.9004 6.50144 20.9941 6.50144C21.0879 6.50144 21.1758 6.53639 21.2402 6.60048C21.3047 6.66456 21.3398 6.75194 21.3398 6.84515C21.3516 6.94419 21.3105 7.03157 21.2461 7.10148ZM15.2344 14.9137C15.2344 16.2012 14.1855 17.244 12.8906 17.244C11.5957 17.244 10.5469 16.2012 10.5469 14.9137C10.5469 13.6262 11.5957 12.5834 12.8906 12.5834C12.9492 12.5834 13.0137 12.5893 13.0723 12.5893L11.8125 13.8418C11.2207 14.4302 11.2207 15.3914 11.8125 15.9856C12.1113 16.2827 12.498 16.4284 12.8906 16.4284C13.2832 16.4284 13.6699 16.2827 13.9688 15.9856L15.2285 14.7331C15.2285 14.7914 15.2344 14.8554 15.2344 14.9137ZM22.2246 8.88413C22.0781 8.66276 21.9258 8.44721 21.7676 8.23166L22.0781 7.9229C22.3652 7.63744 22.5234 7.25877 22.5234 6.85098C22.5234 6.44318 22.3652 6.06451 22.0781 5.77906C21.791 5.4936 21.4102 5.33631 21 5.33631C20.5898 5.33631 20.209 5.4936 19.9219 5.77906L19.6113 6.08782C19.4004 5.9247 19.1777 5.77323 18.9551 5.63341L20.8125 2.44095C22.8984 3.40219 24.7031 4.87025 26.0684 6.68203L22.2246 8.88413Z" fill="white"/>
</svg>
