<svg width="14" height="11" viewBox="0 0 14 11" fill="none" xmlns="http://www.w3.org/2000/svg">
<g clip-path="url(#clip0)">
<path d="M13.8654 2.82692C12.0481 1.07692 9.69231 0 7 0C4.30769 0 1.88462 1.07692 0.134615 2.82692C0.0673077 2.96154 0 3.09615 0 3.23077C0 3.36538 0.0673077 3.5 0.134615 3.63462L0.875 4.375C1.07692 4.57692 1.41346 4.57692 1.61538 4.375C2.96154 3.02885 4.84615 2.15385 6.93269 2.15385C9.01923 2.15385 10.9038 3.02885 12.25 4.375C12.4519 4.57692 12.7885 4.57692 12.9904 4.375L13.7308 3.63462C13.8654 3.5 13.8654 3.43269 13.8654 3.23077C14 3.09615 13.9327 2.89423 13.8654 2.82692Z" fill="black"/>
<path d="M7.00002 4.30762C5.51925 4.30762 4.1731 4.91339 3.23079 5.85569C3.02886 6.05762 3.02886 6.39415 3.23079 6.59608L3.97117 7.40377C4.1731 7.60569 4.50963 7.60569 4.71156 7.40377C5.31733 6.798 6.12502 6.46146 7.00002 6.46146C7.87502 6.46146 8.68271 6.86531 9.28848 7.40377C9.4904 7.60569 9.82694 7.60569 10.0289 7.40377L10.7692 6.59608C10.9712 6.39415 10.9712 6.05762 10.7692 5.85569C9.82694 4.91339 8.48079 4.30762 7.00002 4.30762Z" fill="black"/>
<path d="M8.07694 9.6924C8.07694 10.2982 7.60579 10.7693 7.00002 10.7693C6.39425 10.7693 5.9231 10.2982 5.9231 9.6924C5.9231 9.08663 6.39425 8.61548 7.00002 8.61548C7.60579 8.61548 8.07694 9.08663 8.07694 9.6924Z" fill="black"/>
</g>
<defs>
<clipPath id="clip0">
<rect width="14" height="10.7692" fill="white"/>
</clipPath>
</defs>
</svg>
