<svg width="18" height="27" viewBox="0 0 18 27" fill="none" xmlns="http://www.w3.org/2000/svg">
<path d="M17.7721 25.6245C17.6455 25.4972 17.4936 25.4208 17.3417 25.3953C17.2911 25.3953 17.2405 25.3698 17.1898 25.3698H17.1645C16.886 25.3698 16.6329 25.4972 16.5063 25.7264C16.4557 25.8283 16.405 25.9302 16.405 26.0321C16.3797 26.1849 16.3797 26.3632 16.4557 26.5415C16.481 26.5925 16.481 26.6434 16.5063 26.7198C16.5822 26.7962 16.6582 26.8472 16.7341 26.8726C16.9367 27 17.1392 27.0255 17.3417 27C17.3924 27 17.443 26.9745 17.519 26.9491C17.6709 26.8726 17.8228 26.7708 17.8987 26.6179C17.9747 26.4906 18.0253 26.3377 18.0253 26.1849C18.0253 26.134 18.0253 26.0575 18 26.0066C17.9493 25.8792 17.8734 25.7519 17.7721 25.6245Z" fill="#1F1F1F"/>
<path d="M17.9493 14.8755C17.8987 14.7226 17.7974 14.6208 17.6709 14.5189C17.5696 14.4425 17.4177 14.3915 17.2911 14.3915C17.2658 14.3915 17.2405 14.3915 17.2405 14.3915H17.2152H17.1898C17.1645 14.3915 17.1392 14.3915 17.1392 14.3915C16.8607 14.3915 16.5822 14.417 16.3038 14.4425C15.9747 14.4679 15.6709 14.4934 15.3417 14.5443C14.962 14.5953 14.5822 14.6972 14.2025 14.7991C13.6455 14.9519 13.1139 15.1302 12.6076 15.3594C11.2405 15.9453 10.0253 16.7859 8.96199 17.8302C8.55693 18.2377 8.17718 18.6708 7.84807 19.1292C7.62022 19.4349 7.39237 19.766 7.18984 20.0972C7.01263 20.3774 6.86073 20.6575 6.73415 20.9377C6.60756 21.1925 6.48098 21.4472 6.37972 21.7019C6.27845 21.9311 6.2025 22.1604 6.12655 22.4151C6.0506 22.6443 5.97465 22.8481 5.92402 23.0774C5.87339 23.2811 5.82275 23.5104 5.77212 23.7142C5.72149 23.9179 5.69617 24.1217 5.64554 24.3255C5.62022 24.5038 5.59491 24.6821 5.56959 24.8604V24.9113L5.49364 25.4972V25.5226H5.46832H4.68351H3.8987H3.03794H2.27845H1.62022V25.4208L1.67085 24.8604V24.733C1.69617 24.5802 1.69617 24.4274 1.72149 24.2745C1.77212 24.0708 1.79744 23.8925 1.82275 23.6887C1.84807 23.4849 1.8987 23.2811 1.92402 23.0774C1.97465 22.8736 2.02529 22.6698 2.07592 22.4406C2.12655 22.2113 2.17718 22.0075 2.25313 21.7783C2.32908 21.5491 2.37972 21.3198 2.45566 21.0906C2.53161 20.8613 2.63288 20.6066 2.70883 20.3774C2.8101 20.1226 2.91136 19.8679 3.03794 19.6387C3.16453 19.3585 3.29111 19.1038 3.44301 18.8491C3.59491 18.5689 3.7468 18.2632 3.92402 17.983C4.12655 17.6519 4.3544 17.3208 4.58225 17.0151C4.86073 16.6075 5.18984 16.2255 5.51896 15.8434C5.87339 15.4359 6.25313 15.0283 6.6582 14.6462C6.88604 14.4425 7.11389 14.2387 7.36706 14.0349C8.10123 13.4236 8.88604 12.9142 9.69617 12.4557C10.4303 12.0481 11.2152 11.6915 12.0253 11.4113C12.481 11.2585 12.962 11.1057 13.443 10.9783C13.8228 10.8764 14.2025 10.8 14.5822 10.7491C14.9114 10.6981 15.2405 10.6472 15.5696 10.6217C15.8734 10.5962 16.1519 10.5708 16.4557 10.5453C16.6835 10.5453 16.9367 10.5198 17.1645 10.5198H17.2152C17.2405 10.5198 17.2405 10.5198 17.2658 10.5198C17.5696 10.4943 17.8228 10.316 17.9493 10.0613C18 9.95943 18.0253 9.83208 18.0253 9.70472C18.0253 9.6283 18.0253 9.55189 18 9.47547C18 9.45 17.9746 9.39906 17.9746 9.37358V9.34811C17.9493 9.32264 17.9493 9.29717 17.924 9.2717C17.924 9.24623 17.8987 9.22075 17.8734 9.19528C17.8481 9.14434 17.8228 9.11887 17.7974 9.0934C17.7974 9.06793 17.7721 9.06792 17.7721 9.04245L17.4683 8.81321L17.1645 8.48208L16.8607 8.15094L16.5569 7.81981L16.2025 7.53962L15.8987 7.20849L15.5949 6.87736L15.2911 6.54623L14.9873 6.21509L14.6835 5.88396L14.3291 5.60377L14.0253 5.27264L13.7215 4.94151L13.4177 4.61038L13.0886 4.33019L12.7848 3.99906L12.481 3.66792L12.1519 3.36226L11.8481 3.0566L11.5443 2.72547L11.2405 2.39434L10.9367 2.06321L10.6329 1.73208L10.3291 1.40094L10.0253 1.06981L9.72149 0.738679L9.41769 0.407547L9.11389 0.0764151L8.88604 0L8.12655 0.789623L6.63288 2.31792L5.13921 3.84623L3.64554 5.37453L2.15187 6.90283L0.658197 8.43113L0.050602 9.16981V9.47547V10.0104V10.5453V11.0802V11.6151V12.15V12.6849V12.8632C0.126551 12.9396 0.202501 12.9906 0.27845 13.0415C0.480982 13.1689 0.658197 13.1943 0.835412 13.1943C0.886045 13.1943 0.961994 13.1689 1.01263 13.1434C1.18984 13.067 1.31642 12.9651 1.39237 12.7868C1.46832 12.6849 1.51896 12.5575 1.51896 12.4302V12.1755V11.6406V11.1057V10.5708V10.0358V9.73019L2.15187 9.06792L3.64554 7.51415L5.13921 5.98585L6.63288 4.43208L8.12655 2.90377L8.91136 2.08868L9.03794 2.29245L9.34174 2.62358L9.64554 2.95472L9.94934 3.28585L10.2531 3.61698L10.5569 3.94811L10.8607 4.27925L11.1645 4.61038L11.4683 4.94151L11.7721 5.27264L12.0759 5.60377L12.3797 5.93491L12.6835 6.26604L12.9873 6.59717L13.2911 6.9283L13.5949 7.25943L13.8987 7.59057L14.2025 7.9217L14.5063 8.25283L14.8101 8.58396L15.1139 8.91509L15.3924 9.19528L14.481 9.34811L14.0506 9.42453C13.8228 9.45 13.6202 9.50094 13.4177 9.55189C12.9873 9.65377 12.5822 9.75566 12.1772 9.85755C11.6455 10.0104 11.1139 10.1887 10.5822 10.3925C8.27845 11.3094 6.22782 12.7359 4.55693 14.4934C4.17718 14.9009 3.79744 15.334 3.44301 15.767C3.18984 16.0981 2.93668 16.4547 2.70883 16.8113C2.5063 17.117 2.32908 17.4226 2.12655 17.7283C1.97465 18.0085 1.82275 18.2887 1.67085 18.5689C1.54427 18.8236 1.41769 19.0783 1.29111 19.3585C1.18984 19.6132 1.08858 19.8425 0.987311 20.0972C0.886045 20.3264 0.810096 20.5557 0.734146 20.8104C0.658197 21.0396 0.582247 21.2689 0.531615 21.4981C0.480982 21.7019 0.405032 21.9311 0.354399 22.1604C0.303766 22.3642 0.253134 22.5679 0.202501 22.7972C0.151868 23.0009 0.126551 23.2047 0.0759184 23.4085C0.050602 23.6123 -3.09348e-05 23.816 -0.0253474 23.9943C-0.0506638 24.1981 -0.0759803 24.3764 -0.101297 24.5802C-0.126613 24.7585 -0.126613 24.9623 -0.15193 25.1406C-0.177246 25.3189 -0.177246 25.4972 -0.177246 25.7009C-0.177246 25.8792 -0.177246 26.0575 -0.177246 26.2358C-0.177246 26.2868 -0.177246 26.3377 -0.177246 26.3887C-0.177246 26.4142 -0.177246 26.4142 -0.177246 26.4396V26.4651V26.5415C-0.177246 26.6179 -0.15193 26.6943 -0.126613 26.7453C-0.0759803 26.8981 0.0252855 27 0.126551 27.1019C0.253134 27.1783 0.405032 27.2547 0.556931 27.2547H0.70883H1.49364H2.27845H3.06326H3.84807H4.63288H5.56959H6.27845C6.30377 27.2547 6.32908 27.2547 6.37972 27.2547C6.60756 27.2292 6.81009 27.1019 6.91136 26.8726C6.93668 26.8472 6.93668 26.7962 6.96199 26.7708V26.7453C7.01263 26.6434 7.03794 26.5415 7.03794 26.4396C7.03794 26.3887 7.03794 26.3123 7.03794 26.2613C7.03794 26.083 7.03794 25.9047 7.06326 25.7009C7.08858 25.4972 7.08858 25.3189 7.11389 25.1406C7.13921 24.9368 7.16453 24.733 7.21516 24.5547C7.26579 24.3509 7.31642 24.1217 7.36706 23.9179C7.41769 23.6887 7.49364 23.4594 7.56959 23.2557C7.64554 23.0009 7.7468 22.7717 7.84807 22.5425C7.94934 22.2623 8.07592 22.0075 8.22782 21.7528C8.37971 21.4472 8.55693 21.1415 8.75946 20.8613C9.01263 20.4792 9.31642 20.0972 9.62022 19.7406C10.7341 18.4925 12.1519 17.4991 13.7721 16.9132C14.2025 16.7604 14.6582 16.633 15.1139 16.5311C15.3164 16.4802 15.519 16.4547 15.7215 16.4292L16.1519 16.3783L16.5316 16.3274V16.6585V17.1934V17.7283V18.2632V18.7981V19.333V19.8679V20.1991L15.9493 19.9953C15.8987 19.9953 15.8734 20.0208 15.8228 20.0208C15.1645 20.1736 14.5569 20.4028 14.0253 20.7085C13.7468 20.8613 13.4936 21.0396 13.2658 21.2179C12.7595 21.6255 12.3291 22.1094 11.9747 22.6443C11.7974 22.9245 11.6455 23.2047 11.4936 23.5104C11.3924 23.7396 11.2911 23.9943 11.2152 24.2491C11.1392 24.4528 11.0886 24.6821 11.0379 24.8858C10.9873 25.0896 10.962 25.2679 10.9367 25.4717C10.9114 25.65 10.9114 25.8283 10.9114 26.0321C10.9114 26.2104 10.9114 26.3887 10.9114 26.567C10.9114 26.567 10.9114 26.567 10.9114 26.5925C11.0379 26.7198 11.1392 26.7962 11.2658 26.8726C11.4683 27 11.6962 27.0255 11.8987 26.9745C11.924 26.9745 11.9493 26.9745 11.9747 26.9491C12.1265 26.8981 12.2784 26.7962 12.3544 26.6434C12.4557 26.516 12.5063 26.3377 12.5063 26.1594C12.5063 26.1085 12.5063 26.0575 12.5063 25.9811C12.5063 25.7774 12.5316 25.5991 12.5569 25.4208C12.5822 25.217 12.6329 24.9877 12.7088 24.784C12.7848 24.5292 12.886 24.2745 13.0126 24.0453C13.1898 23.6887 13.4177 23.3575 13.6962 23.0519C14.2025 22.466 14.8607 22.033 15.5949 21.7528C15.9747 21.6255 16.3544 21.5236 16.7595 21.4981C16.886 21.4981 17.0126 21.4726 17.1645 21.4726H17.2152C17.5443 21.4726 17.8481 21.2689 17.9746 20.9632C18.0253 20.8613 18.0253 20.7594 18.0253 20.6575V20.6321V20.0972V19.6132V19.0783V18.5434V18.0085V17.4736V16.9387V16.4038V15.8689V15.334V15.1047C18 15.0283 17.9746 14.9519 17.9493 14.8755Z" fill="#1F1F1F"/>
</svg>
