<svg width="24" height="33" viewBox="0 0 24 33" fill="none" xmlns="http://www.w3.org/2000/svg">
<path d="M8.33745 9.80465H15.6749C15.9634 9.80465 16.1968 9.57407 16.1968 9.28888V5.6603C16.1968 5.37511 15.9634 5.14453 15.6749 5.14453H8.33745C8.04887 5.14453 7.81555 5.37511 7.81555 5.6603V9.28281C7.80941 9.568 8.04887 9.80465 8.33745 9.80465ZM8.85936 6.17607H15.1468V8.76704H8.85936V6.17607Z" fill="white" stroke="white" stroke-width="0.25"/>
<path d="M14.6249 4.10673H15.6749C15.9635 4.10673 16.1968 3.87615 16.1968 3.59096C16.1968 3.30577 15.9635 3.0752 15.6749 3.0752H14.6249C14.3363 3.0752 14.103 3.30577 14.103 3.59096C14.0969 3.87615 14.3363 4.10673 14.6249 4.10673Z" fill="white" stroke="white" stroke-width="0.25"/>
<path d="M8.33745 4.10673H12.0031C12.2917 4.10673 12.525 3.87615 12.525 3.59096C12.525 3.30577 12.2917 3.0752 12.0031 3.0752H8.33745C8.04887 3.0752 7.81555 3.30577 7.81555 3.59096C7.80941 3.87615 8.04887 4.10673 8.33745 4.10673Z" fill="white" stroke="white" stroke-width="0.25"/>
<path d="M8.33745 14.9803H9.38741C9.67599 14.9803 9.90932 14.7497 9.90932 14.4645C9.90932 14.1793 9.67599 13.9487 9.38741 13.9487H8.33745C8.04887 13.9487 7.81555 14.1793 7.81555 14.4645C7.80941 14.7497 8.04887 14.9803 8.33745 14.9803Z" fill="white" stroke="white" stroke-width="0.25"/>
<path d="M15.6687 13.9429H14.6187C14.3301 13.9429 14.0968 14.1734 14.0968 14.4586C14.0968 14.7438 14.3301 14.9744 14.6187 14.9744H15.6687C15.9572 14.9744 16.1906 14.7438 16.1906 14.4586C16.1967 14.1795 15.9572 13.9429 15.6687 13.9429Z" fill="white" stroke="white" stroke-width="0.25"/>
<path d="M12.525 13.9429H11.475C11.1864 13.9429 10.9531 14.1734 10.9531 14.4586C10.9531 14.7438 11.1864 14.9744 11.475 14.9744H12.525C12.8136 14.9744 13.0469 14.7438 13.0469 14.4586C13.053 14.1795 12.8136 13.9429 12.525 13.9429Z" fill="white" stroke="white" stroke-width="0.25"/>
<path d="M8.33746 17.0496H9.38742C9.676 17.0496 9.90932 16.819 9.90932 16.5338C9.90932 16.2486 9.676 16.0181 9.38742 16.0181H8.33746C8.04888 16.0181 7.81555 16.2486 7.81555 16.5338C7.81555 16.819 8.04888 17.0496 8.33746 17.0496Z" fill="white" stroke="white" stroke-width="0.25"/>
<path d="M15.6687 16.0181H14.6187C14.3301 16.0181 14.0968 16.2486 14.0968 16.5338C14.0968 16.819 14.3301 17.0496 14.6187 17.0496H15.6687C15.9572 17.0496 16.1906 16.819 16.1906 16.5338C16.1906 16.2486 15.9572 16.0181 15.6687 16.0181Z" fill="white" stroke="white" stroke-width="0.25"/>
<path d="M12.525 16.0181H11.475C11.1864 16.0181 10.9531 16.2486 10.9531 16.5338C10.9531 16.819 11.1864 17.0496 11.475 17.0496H12.525C12.8136 17.0496 13.0469 16.819 13.0469 16.5338C13.0469 16.2486 12.8136 16.0181 12.525 16.0181Z" fill="white" stroke="white" stroke-width="0.25"/>
<path d="M8.33746 19.1248H9.38742C9.676 19.1248 9.90932 18.8942 9.90932 18.609C9.90932 18.3238 9.676 18.0933 9.38742 18.0933H8.33746C8.04888 18.0933 7.81555 18.3238 7.81555 18.609C7.81555 18.8942 8.04888 19.1248 8.33746 19.1248Z" fill="white" stroke="white" stroke-width="0.25"/>
<path d="M15.6687 18.0869H14.6187C14.3301 18.0869 14.0968 18.3175 14.0968 18.6027C14.0968 18.8879 14.3301 19.1184 14.6187 19.1184H15.6687C15.9572 19.1184 16.1906 18.8879 16.1906 18.6027C16.1906 18.3175 15.9572 18.0869 15.6687 18.0869Z" fill="white" stroke="white" stroke-width="0.25"/>
<path d="M12.525 18.0869H11.475C11.1864 18.0869 10.9531 18.3175 10.9531 18.6027C10.9531 18.8879 11.1864 19.1184 11.475 19.1184H12.525C12.8136 19.1184 13.0469 18.8879 13.0469 18.6027C13.0469 18.3175 12.8136 18.0869 12.525 18.0869Z" fill="white" stroke="white" stroke-width="0.25"/>
<path d="M8.33746 21.1936H9.38742C9.676 21.1936 9.90932 20.9631 9.90932 20.6779C9.90932 20.3927 9.676 20.1621 9.38742 20.1621H8.33746C8.04888 20.1621 7.81555 20.3927 7.81555 20.6779C7.81555 20.9631 8.04888 21.1936 8.33746 21.1936Z" fill="white" stroke="white" stroke-width="0.25"/>
<path d="M15.6687 20.1562H14.6187C14.3301 20.1562 14.0968 20.3868 14.0968 20.672C14.0968 20.9572 14.3301 21.1878 14.6187 21.1878H15.6687C15.9572 21.1878 16.1906 20.9572 16.1906 20.672C16.1906 20.3868 15.9572 20.1562 15.6687 20.1562Z" fill="white" stroke="white" stroke-width="0.25"/>
<path d="M12.525 20.1562H11.475C11.1864 20.1562 10.9531 20.3868 10.9531 20.672C10.9531 20.9572 11.1864 21.1878 11.475 21.1878H12.525C12.8136 21.1878 13.0469 20.9572 13.0469 20.672C13.0469 20.3868 12.8136 20.1562 12.525 20.1562Z" fill="white" stroke="white" stroke-width="0.25"/>
<path d="M12.525 22.2314H11.475C11.1864 22.2314 10.9531 22.462 10.9531 22.7472C10.9531 23.0324 11.1864 23.263 11.475 23.263H12.525C12.8136 23.263 13.0469 23.0324 13.0469 22.7472C13.0469 22.462 12.8136 22.2314 12.525 22.2314Z" fill="white" stroke="white" stroke-width="0.25"/>
<path d="M8.33745 12.9109C8.62604 12.9109 8.85936 12.6804 8.85936 12.3952V11.8794H9.90932V12.3952C9.90932 12.6804 10.1426 12.9109 10.4312 12.9109C10.7198 12.9109 10.9531 12.6804 10.9531 12.3952V11.3576C10.9531 11.0724 10.7198 10.8418 10.4312 10.8418H8.33745C8.04887 10.8418 7.81555 11.0724 7.81555 11.3576V12.3952C7.80941 12.6743 8.04887 12.9109 8.33745 12.9109Z" fill="white" stroke="white" stroke-width="0.25"/>
<path d="M15.6686 10.8359H13.5749C13.2863 10.8359 13.053 11.0665 13.053 11.3517V12.3893C13.053 12.6745 13.2863 12.9051 13.5749 12.9051C13.8635 12.9051 14.0968 12.6745 14.0968 12.3893V11.8735H15.1467V12.3893C15.1467 12.6745 15.3801 12.9051 15.6686 12.9051C15.9572 12.9051 16.1906 12.6745 16.1906 12.3893V11.3517C16.1967 11.0726 15.9572 10.8359 15.6686 10.8359Z" fill="white" stroke="white" stroke-width="0.25"/>
<path d="M21.4342 16.467V1.51577C21.4342 1.23058 21.2009 1 20.9123 1C20.6237 1 20.3904 1.23058 20.3904 1.51577V15.6781C19.7641 15.3201 19.0519 15.0835 18.2966 15.0046V4.10674C18.2966 2.39561 16.8844 1 15.1529 1H8.85932C7.12781 1 5.71559 2.39561 5.71559 4.10674V15.0046C3.06921 15.2655 1 17.4803 1 20.1623V29.4825C1 29.7677 1.23332 29.9983 1.52191 29.9983H2.57186V31.5517C2.57186 31.8368 2.80519 32.0674 3.09377 32.0674H7.28746C7.57604 32.0674 7.80936 31.8368 7.80936 31.5517V29.9983H16.1906V31.5517C16.1906 31.8368 16.4239 32.0674 16.7125 32.0674H20.9062C21.1948 32.0674 21.4281 31.8368 21.4281 31.5517V29.9983H22.478C22.7666 29.9983 23 29.7677 23 29.4825V20.1623C23.0061 18.7121 22.4044 17.4075 21.4342 16.467ZM6.2375 25.3382H17.7625H18.8124V26.3758H5.19368V25.3382H6.2375ZM6.76555 4.10674C6.76555 2.96599 7.70498 2.0376 8.85932 2.0376H15.1468C16.3011 2.0376 17.2405 2.96599 17.2405 4.10674V15.5022V24.3006H6.76555V15.4961V4.10674ZM6.76555 31.0298H3.62182V29.9922H6.76555V31.0298ZM20.3843 31.0298H17.2405V29.9922H20.3843V31.0298ZM21.9561 28.9607H20.9062H16.7186H7.28746H3.09377H2.04996V20.1562C2.04996 18.0507 3.65252 16.3031 5.71559 16.0483V24.3006H4.66564C4.37705 24.3006 4.14373 24.5311 4.14373 24.8163V26.8855C4.14373 27.1707 4.37705 27.4012 4.66564 27.4012H19.3343C19.6229 27.4012 19.8562 27.1707 19.8562 26.8855V24.8163C19.8562 24.5311 19.6229 24.3006 19.3343 24.3006H18.2844V16.0483C20.3474 16.3031 21.95 18.0507 21.95 20.1562V28.9607H21.9561Z" fill="white" stroke="white" stroke-width="0.25"/>
</svg>
