<svg width="32" height="32" viewBox="0 0 32 32" fill="none" xmlns="http://www.w3.org/2000/svg">
<path d="M28.5 24.2687V10.875C28.5 9.70625 27.5438 8.75 26.375 8.75C25.2062 8.75 24.25 9.70625 24.25 10.875V14.625C24.25 14.9688 24.5312 15.25 24.875 15.25C25.2188 15.25 25.5 14.9688 25.5 14.625V10.875C25.5 10.3937 25.8937 10 26.375 10C26.8563 10 27.25 10.3937 27.25 10.875V24.25H25.5V19.625C25.5 19.2812 25.2188 19 24.875 19C24.5312 19 24.25 19.2812 24.25 19.625V24.25H7.75V10.875C7.75 9.70625 6.79375 8.75 5.625 8.75C4.45625 8.75 3.5 9.70625 3.5 10.875V24.2687C1.5375 24.4562 0 26.1125 0 28.125C0 30.2625 1.7375 32 3.875 32H28.125C30.2625 32 32 30.2625 32 28.125C32 26.1125 30.4625 24.4562 28.5 24.2687ZM4.75 10.875C4.75 10.3937 5.14375 10 5.625 10C6.10625 10 6.5 10.3937 6.5 10.875V24.25H4.75V10.875ZM28.125 30.75H3.875C2.425 30.75 1.25 29.575 1.25 28.125C1.25 26.675 2.425 25.5 3.875 25.5H28.125C29.575 25.5 30.75 26.675 30.75 28.125C30.75 29.575 29.575 30.75 28.125 30.75Z" fill="#3C72C2"/>
<path d="M4.125 27.5C3.9625 27.5 3.8 27.5687 3.68125 27.6812C3.5625 27.8 3.5 27.9563 3.5 28.125C3.5 28.2937 3.56875 28.45 3.68125 28.5688C3.8 28.6875 3.95625 28.75 4.125 28.75C4.2875 28.75 4.45 28.6813 4.56875 28.5688C4.6875 28.45 4.75 28.2937 4.75 28.125C4.75 27.9563 4.68125 27.8 4.56875 27.6812C4.45 27.5687 4.2875 27.5 4.125 27.5Z" fill="#3C72C2"/>
<path d="M7.38751 27.5C7.22501 27.5 7.06251 27.5687 6.94376 27.6812C6.82501 27.8 6.76251 27.9563 6.76251 28.125C6.76251 28.2937 6.83126 28.45 6.94376 28.5688C7.06251 28.6875 7.21876 28.75 7.38751 28.75C7.55001 28.75 7.71251 28.6813 7.83126 28.5688C7.95001 28.45 8.01251 28.2937 8.01251 28.125C8.01251 27.9563 7.94376 27.8 7.83126 27.6812C7.71251 27.5687 7.55001 27.5 7.38751 27.5Z" fill="#3C72C2"/>
<path d="M10.6437 27.5C10.4812 27.5 10.3187 27.5687 10.2 27.6812C10.0812 27.8 10.0187 27.9563 10.0187 28.125C10.0187 28.2937 10.0875 28.45 10.2 28.5688C10.3187 28.6875 10.475 28.75 10.6437 28.75C10.8062 28.75 10.9687 28.6813 11.0875 28.5688C11.2062 28.45 11.2687 28.2937 11.2687 28.125C11.2687 27.9563 11.2 27.8 11.0875 27.6812C10.9687 27.5687 10.8125 27.5 10.6437 27.5Z" fill="#3C72C2"/>
<path d="M26.1875 27.5H19.875C19.5312 27.5 19.25 27.7812 19.25 28.125C19.25 28.4688 19.5312 28.75 19.875 28.75H26.1875C26.5312 28.75 26.8125 28.4688 26.8125 28.125C26.8125 27.7812 26.5312 27.5 26.1875 27.5Z" fill="#3C72C2"/>
<path d="M17.0625 27.5C16.9 27.5 16.7375 27.5687 16.6187 27.6812C16.5 27.8 16.4375 27.9563 16.4375 28.125C16.4375 28.2937 16.5062 28.45 16.6187 28.5688C16.7375 28.6875 16.8938 28.75 17.0625 28.75C17.225 28.75 17.3875 28.6813 17.5063 28.5688C17.625 28.45 17.6875 28.2937 17.6875 28.125C17.6875 27.9563 17.6188 27.8 17.5063 27.6812C17.3875 27.5687 17.225 27.5 17.0625 27.5Z" fill="#3C72C2"/>
<path d="M24.875 17.75C25.0375 17.75 25.2 17.6813 25.3188 17.5688C25.4375 17.45 25.5 17.2937 25.5 17.125C25.5 16.9625 25.4313 16.8 25.3188 16.6812C25.2 16.5625 25.0437 16.5 24.875 16.5C24.7063 16.5 24.55 16.5687 24.4312 16.6812C24.3125 16.8 24.25 16.9563 24.25 17.125C24.25 17.2875 24.3187 17.45 24.4312 17.5688C24.55 17.6813 24.7125 17.75 24.875 17.75Z" fill="#3C72C2"/>
<path d="M22.4375 2.88125C23.4875 1.83125 24.8875 1.25 26.375 1.25C27.8625 1.25 29.2625 1.83125 30.3125 2.88125C30.4375 3.00625 30.5938 3.0625 30.7563 3.0625C30.9188 3.0625 31.075 3 31.2 2.88125C31.4438 2.6375 31.4438 2.24375 31.2 2C29.9125 0.7125 28.2 0 26.375 0C24.55 0 22.8375 0.7125 21.55 2C21.3062 2.24375 21.3062 2.6375 21.55 2.88125C21.7938 3.125 22.1938 3.125 22.4375 2.88125Z" fill="#3C72C2"/>
<path d="M28.4687 5.3498C28.6312 5.3498 28.7875 5.2873 28.9125 5.16855C29.1562 4.9248 29.1562 4.53105 28.9125 4.2873C27.5125 2.8873 25.2375 2.8873 23.8375 4.2873C23.5937 4.53105 23.5937 4.9248 23.8375 5.16855C24.0812 5.4123 24.475 5.4123 24.7187 5.16855C25.1625 4.7248 25.75 4.48105 26.375 4.48105C27 4.48105 27.5875 4.7248 28.0312 5.16855C28.15 5.2873 28.3125 5.3498 28.4687 5.3498Z" fill="#3C72C2"/>
<path d="M25.9312 6.4498C25.8125 6.56855 25.75 6.7248 25.75 6.89355C25.75 7.05605 25.8187 7.21855 25.9312 7.3373C26.05 7.45605 26.2063 7.51855 26.375 7.51855C26.5437 7.51855 26.7 7.4498 26.8188 7.3373C26.9375 7.21855 27 7.0623 27 6.89355C27 6.73105 26.9313 6.56855 26.8188 6.4498C26.7 6.33105 26.5437 6.26855 26.375 6.26855C26.2063 6.26855 26.05 6.3373 25.9312 6.4498Z" fill="#3C72C2"/>
<path d="M1.6875 2.88125C2.7375 1.83125 4.1375 1.25 5.625 1.25C7.1125 1.25 8.5125 1.83125 9.5625 2.88125C9.6875 3.00625 9.84375 3.0625 10.0063 3.0625C10.1688 3.0625 10.325 3 10.45 2.88125C10.6937 2.6375 10.6937 2.24375 10.45 2C9.1625 0.7125 7.45 0 5.625 0C3.8 0 2.0875 0.7125 0.8 2C0.55625 2.24375 0.55625 2.6375 0.8 2.88125C1.04375 3.125 1.44375 3.125 1.6875 2.88125Z" fill="#3C72C2"/>
<path d="M7.71873 5.3498C7.88123 5.3498 8.03748 5.2873 8.16248 5.16855C8.40623 4.9248 8.40623 4.53105 8.16248 4.2873C6.76248 2.8873 4.48748 2.8873 3.08748 4.2873C2.84373 4.53105 2.84373 4.9248 3.08748 5.16855C3.33123 5.4123 3.72498 5.4123 3.96873 5.16855C4.41248 4.7248 4.99998 4.48105 5.62498 4.48105C6.24998 4.48105 6.83748 4.7248 7.28123 5.16855C7.39998 5.2873 7.56248 5.3498 7.71873 5.3498Z" fill="#3C72C2"/>
<path d="M5.18125 6.4498C5.0625 6.56855 5 6.7248 5 6.89355C5 7.05605 5.06875 7.21855 5.18125 7.3373C5.3 7.45605 5.45625 7.51855 5.625 7.51855C5.79375 7.51855 5.95 7.4498 6.06875 7.3373C6.1875 7.21855 6.25 7.0623 6.25 6.89355C6.25 6.73105 6.18125 6.56855 6.06875 6.4498C5.95 6.33105 5.79375 6.26855 5.625 6.26855C5.45625 6.26855 5.3 6.3373 5.18125 6.4498Z" fill="#3C72C2"/>
</svg>
