<svg width="23" height="23" viewBox="0 0 23 23" fill="none" xmlns="http://www.w3.org/2000/svg">
<g clip-path="url(#clip0)">
<path d="M10.9969 22.2069C10.9924 22.2069 10.9924 22.2069 10.9924 22.2069C8.05449 22.2069 5.29629 21.0503 3.21641 18.9502C1.13652 16.8502 0 14.0607 0 11.0989C0 8.13255 1.14551 5.34762 3.22539 3.24758C5.30078 1.15207 8.06348 0 10.9969 0C11.0014 0 11.0014 0 11.0014 0C12.5512 0 14.0561 0.322036 15.4711 0.961573C15.9383 1.17022 16.1494 1.72811 15.9428 2.19983C15.7361 2.67154 15.1836 2.88472 14.7164 2.67608C13.5395 2.1454 12.2906 1.87779 11.0014 1.87779H10.9969C8.55762 1.87779 6.2666 2.83483 4.53711 4.57654C2.81211 6.31826 1.85977 8.63601 1.85527 11.0989C1.85078 16.188 5.94766 20.3291 10.9879 20.3291H10.9924C13.4316 20.3291 15.7227 19.3721 17.4521 17.6304C19.1771 15.8886 20.1295 13.5709 20.134 11.108V10.1646C20.134 9.64748 20.5518 9.22566 21.0639 9.22566C21.576 9.22566 21.9937 9.64748 21.9937 10.1646V11.108C21.9937 14.0743 20.8482 16.8638 18.7684 18.9593C16.693 21.0548 13.9303 22.2069 10.9969 22.2069Z" fill="#24C708"/>
<path d="M10.9968 14.0792C10.7587 14.0792 10.5207 13.9885 10.341 13.8025L7.32222 10.7545C6.95835 10.3871 6.95835 9.79293 7.32222 9.43007C7.68608 9.06268 8.27456 9.06268 8.63394 9.43007L10.9968 11.8159L21.4142 1.29752C21.7781 0.930124 22.3666 0.930124 22.7259 1.29752C23.0898 1.66491 23.0898 2.25909 22.7259 2.62195L11.6527 13.807C11.473 13.9885 11.2349 14.0792 10.9968 14.0792Z" fill="#24C708"/>
</g>
<defs>
<clipPath id="clip0">
<rect width="23" height="22.2069" fill="white"/>
</clipPath>
</defs>
</svg>
