<svg width="16" height="16" viewBox="0 0 16 16" fill="none" xmlns="http://www.w3.org/2000/svg">
<path d="M15.8041 14.8653L11.9592 11.0163C12.9143 9.85306 13.4857 8.36327 13.4857 6.74286C13.4857 3.02041 10.4653 0 6.74286 0C3.01633 0 0 3.02041 0 6.74286C0 10.4653 3.01633 13.4857 6.74286 13.4857C8.36735 13.4857 9.85306 12.9143 11.0122 11.9592L14.8571 15.8041C15.1184 16.0653 15.5388 16.0653 15.8 15.8041C16.0653 15.5469 16.0653 15.1224 15.8041 14.8653ZM6.74286 12.1429C3.76326 12.1429 1.33878 9.71837 1.33878 6.74286C1.33878 3.76735 3.76326 1.33878 6.74286 1.33878C9.72245 1.33878 12.1469 3.76327 12.1469 6.74286C12.1469 9.72245 9.72245 12.1429 6.74286 12.1429Z" fill="#1F1F1F"/>
</svg>
