<svg width="44" height="48" viewBox="0 0 44 48" fill="none" xmlns="http://www.w3.org/2000/svg">
<path d="M5.5 43.2143C5.5 44.5205 6.55089 45.5714 7.85714 45.5714H12.4732L18.6607 47.1232C18.7196 47.1429 18.7884 47.1429 18.8473 47.1429H25.133C25.5652 47.1429 25.9188 46.7893 25.9188 46.3571V3.92857C25.9188 1.75804 24.1607 0 21.9902 0C19.8196 0 18.0616 1.75804 18.0616 3.92857V39.4625L12.4732 40.8571H7.85714C6.55089 40.8571 5.5 41.908 5.5 43.2143ZM19.6429 3.92857C19.6429 2.62232 20.6938 1.57143 22 1.57143C23.3063 1.57143 24.3571 2.62232 24.3571 3.92857V4.71429H19.6429V3.92857ZM19.6429 6.28571H24.3571V7.85714H21.2143V9.42857H24.3571V11H21.2143V12.5714H24.3571V14.1429H21.2143V15.7143H24.3571V17.2857H21.2143V18.8571H24.3571V20.4286H21.2143V22H24.3571V23.5714H21.2143V25.1429H24.3571V26.7143H21.2143V28.2857H24.3571V29.8571H21.2143V31.4286H24.3571V33H21.2143V34.5714H24.3571V36.1429H21.2143V37.7143H24.3571V39.2857H21.2143V40.8571H24.3571V42.4286H21.2143V44H24.3571V45.5714H19.6429V6.28571ZM13.3571 42.2518L18.0714 41.0732V45.3455L13.3571 44.167V42.2518ZM11.7857 44H7.85714C7.425 44 7.07143 43.6464 7.07143 43.2143C7.07143 42.7821 7.425 42.4286 7.85714 42.4286H11.7857V44Z" fill="#3C72C2"/>
<path d="M7.07143 32.9999V31.4285C2.11161 31.4285 1.57143 22.6383 1.57143 18.8571C1.57143 15.0758 2.11161 6.28566 7.07143 6.28566V4.71423C2.51429 4.71423 0 9.73298 0 18.8571C0 27.9812 2.51429 32.9999 7.07143 32.9999Z" fill="#3C72C2"/>
<path d="M11.7857 29.8572V28.2857C8.24017 28.2857 7.85713 21.6956 7.85713 18.8572C7.85713 16.0188 8.24017 9.42861 11.7857 9.42861V7.85718C8.24017 7.85718 6.28571 11.7661 6.28571 18.8572C6.28571 25.9482 8.24017 29.8572 11.7857 29.8572Z" fill="#3C72C2"/>
<path d="M16.5 26.7143V25.1429C14.3098 25.1429 14.1428 20.3304 14.1428 18.8571C14.1428 17.3839 14.3098 12.5714 16.5 12.5714V11C13.9661 11 12.5714 13.7893 12.5714 18.8571C12.5714 23.925 13.9661 26.7143 16.5 26.7143Z" fill="#3C72C2"/>
<path d="M42.4286 18.8571C42.4286 22.6383 41.8884 31.4285 36.9286 31.4285V32.9999C41.4857 32.9999 44 27.9812 44 18.8571C44 9.73298 41.4857 4.71423 36.9286 4.71423V6.28566C41.8884 6.28566 42.4286 15.0758 42.4286 18.8571Z" fill="#3C72C2"/>
<path d="M37.7143 18.8572C37.7143 11.7661 35.7598 7.85718 32.2143 7.85718V9.42861C35.7598 9.42861 36.1429 16.0188 36.1429 18.8572C36.1429 21.6956 35.7598 28.2857 32.2143 28.2857V29.8572C35.7598 29.8572 37.7143 25.9482 37.7143 18.8572Z" fill="#3C72C2"/>
<path d="M31.4286 18.8571C31.4286 13.7893 30.0339 11 27.5 11V12.5714C29.6902 12.5714 29.8571 17.3839 29.8571 18.8571C29.8571 20.3304 29.6902 25.1429 27.5 25.1429V26.7143C30.0339 26.7143 31.4286 23.925 31.4286 18.8571Z" fill="#3C72C2"/>
</svg>
