<svg width="44" height="50" viewBox="0 0 44 50" fill="none" xmlns="http://www.w3.org/2000/svg">
<path d="M39.9067 0.351522C39.6317 -0.0320679 39.1029 -0.11731 38.7221 0.159727C38.3519 0.436764 38.2673 0.958872 38.5317 1.34246C43.5663 8.43887 43.5663 17.9753 38.5317 25.0717C38.2567 25.4553 38.3413 25.9881 38.7221 26.2651C39.1029 26.5422 39.6317 26.4463 39.9067 26.0627C45.3644 18.3802 45.3644 8.05528 39.9067 0.351522Z" fill="#3C72C2"/>
<path d="M5.26708 0.159876C4.88631 -0.117161 4.35747 -0.0212635 4.08247 0.362326C-1.37523 8.05543 -1.37523 18.391 4.08247 26.0735C4.35747 26.4571 4.88631 26.5423 5.26708 26.2653C5.63727 25.9882 5.72189 25.4661 5.45747 25.0825C0.433427 17.9861 0.433428 8.44967 5.46804 1.34261C5.74304 0.969676 5.64785 0.436913 5.26708 0.159876Z" fill="#3C72C2"/>
<path d="M10.5029 3.14319C10.1327 2.8555 9.60387 2.91943 9.31829 3.29237C4.80194 9.1208 4.80194 17.304 9.31829 23.1431C9.60387 23.5161 10.1327 23.58 10.5029 23.2923C10.8731 23.0046 10.9366 22.4719 10.651 22.0989C6.6106 16.8778 6.6106 9.55767 10.651 4.34724C10.9366 3.96365 10.8731 3.43089 10.5029 3.14319Z" fill="#3C72C2"/>
<path d="M33.4971 3.14326C33.1269 3.43095 33.0635 3.96371 33.3491 4.33665C37.3894 9.55773 37.3894 16.8779 33.3491 22.0883C33.0635 22.4613 33.1269 22.994 33.4971 23.2817C33.8673 23.5694 34.3962 23.5055 34.6817 23.1325C39.1981 17.3041 39.1981 9.12086 34.6817 3.28178C34.3962 2.9195 33.8673 2.85557 33.4971 3.14326Z" fill="#3C72C2"/>
<path d="M28.1981 20.2556C28.5366 20.5753 29.076 20.5646 29.3933 20.2237C33.074 16.2919 33.074 10.1544 29.3933 6.22263C29.076 5.88166 28.5366 5.86035 28.1981 6.18001C27.8596 6.49967 27.8385 7.04308 28.1558 7.38405L28.1664 7.39471C31.2337 10.6659 31.2337 15.7804 28.1664 19.0622C27.8385 19.3925 27.8596 19.9253 28.1981 20.2556Z" fill="#3C72C2"/>
<path d="M15.2202 20.4794C15.6856 20.4794 16.0664 20.0958 16.0664 19.627C16.0664 19.4139 15.9818 19.2008 15.8337 19.0409C12.7664 15.7698 12.7664 10.6552 15.8337 7.37342C16.1616 7.03245 16.1404 6.48903 15.802 6.16937C15.4635 5.83906 14.9241 5.86037 14.6068 6.20134L14.5962 6.21199C10.9154 10.1438 10.9154 16.2812 14.5962 20.213C14.7654 20.3835 14.9875 20.4794 15.2202 20.4794Z" fill="#3C72C2"/>
<path d="M24.7394 16.441C26.5269 14.9173 26.7385 12.2322 25.226 10.4314C23.7135 8.63068 21.0481 8.41757 19.2606 9.93062C17.4731 11.4437 17.2615 14.1395 18.774 15.9402C18.9221 16.1213 19.0914 16.2812 19.2606 16.4303L11.0212 48.801C10.9048 49.2592 11.1798 49.7174 11.6346 49.8346C11.6981 49.8559 11.7721 49.8559 11.8462 49.8559C12.2269 49.8559 12.5654 49.5895 12.6606 49.2166L12.9462 48.1085C12.9885 48.0978 13.0414 48.0765 13.0837 48.0552L28.8962 39.6695L31.3289 49.2166C31.424 49.5895 31.7625 49.8559 32.1539 49.8559C32.2279 49.8559 32.2914 49.8453 32.3654 49.8346C32.8202 49.7174 33.0952 49.2486 32.9789 48.801L24.7394 16.441ZM22 10.6552C23.4067 10.6552 24.5385 11.7953 24.5385 13.2124C24.5385 14.6296 23.4067 15.7697 22 15.7697C20.5933 15.7697 19.4615 14.6296 19.4615 13.2124C19.4615 11.7953 20.5933 10.6552 22 10.6552ZM22 17.4746C22.4125 17.4639 22.8144 17.4 23.2058 17.2828L24.824 23.6226L20.2231 19.563L20.8048 17.2721C21.1856 17.4 21.5875 17.4746 22 17.4746ZM19.7471 21.417L24.8452 25.9135L17.3144 30.9641L19.7471 21.417ZM13.5067 45.9135L16.5423 33.9796L26.8654 38.8277L13.5067 45.9135ZM17.801 32.6903L25.7654 27.3413L28.399 37.6663L17.801 32.6903Z" fill="#3C72C2"/>
</svg>
