<svg width="44" height="44" viewBox="0 0 44 44" fill="none" xmlns="http://www.w3.org/2000/svg">
<g opacity="0.8" clip-path="url(#clip0)">
<path d="M29.8096 13.3311C29.3369 13.3311 28.9502 13.7178 28.9502 14.1904C28.9502 14.6631 29.3369 15.0498 29.8096 15.0498C30.2822 15.0498 30.6689 14.6631 30.6689 14.1904C30.6689 13.7178 30.2822 13.3311 29.8096 13.3311Z" fill="#3C72C2"/>
<path d="M14.1904 28.9502C13.7178 28.9502 13.3311 29.3369 13.3311 29.8096C13.3311 30.2822 13.7178 30.6689 14.1904 30.6689C14.6631 30.6689 15.0498 30.2822 15.0498 29.8096C15.0498 29.3369 14.6631 28.9502 14.1904 28.9502Z" fill="#3C72C2"/>
<path d="M42.9258 5.28403C42.6357 5.21957 42.335 5.30551 42.1201 5.52035L38.5645 9.10824H36.8564L34.9766 7.16391V5.42367L38.4893 1.85727C38.6934 1.64243 38.7793 1.34165 38.7148 1.05161C38.6504 0.761567 38.4355 0.535982 38.1562 0.439302C37.2646 0.149263 36.3408 -0.00112757 35.4062 -0.00112757C32.6025 -0.00112757 30.0674 1.29868 28.4346 3.57602C26.9092 5.70297 26.4365 8.31332 27.1133 10.8162L20.7861 17.1434L10.2266 6.58383V4.49985C10.2266 4.19907 10.0654 3.91977 9.80762 3.75864L3.73828 0.117036C3.39453 -0.087065 2.96484 -0.0333541 2.68555 0.245943L0.257812 2.68442C-0.0214844 2.96371 -0.0751953 3.3934 0.128906 3.73715L3.77051 9.81723C3.9209 10.075 4.2002 10.2362 4.51172 10.2362H6.58496L17.1338 20.8065L10.8281 27.1121C8.3252 26.4354 5.71484 26.908 3.58789 28.4442C1.2998 30.0662 0 32.6014 0 35.4051C0 36.3397 0.150391 37.2635 0.451172 38.1444C0.547852 38.4237 0.78418 38.6385 1.07422 38.703C1.36426 38.7674 1.66504 38.6815 1.87988 38.4666L5.44629 34.8787H7.16504L9.10938 36.8446V38.5633L5.52148 42.1297C5.30664 42.3446 5.2207 42.6453 5.28516 42.9354C5.34961 43.2254 5.56445 43.4617 5.84375 43.5584C6.72461 43.8592 7.64844 44.0096 8.58301 44.0096C11.3867 44.0096 13.9219 42.7098 15.5547 40.4324C17.0908 38.3055 17.5527 35.6844 16.8867 33.1922L21.9463 28.1326L23.1064 29.3895L22.5693 29.9266C22.2363 30.2596 22.2363 30.8074 22.5693 31.1405C22.9023 31.4735 23.4502 31.4735 23.7832 31.1405L24.2666 30.6571L35.1484 42.4842C35.1592 42.4949 35.1699 42.5057 35.1699 42.5057C37.1895 44.5252 40.4443 44.5252 42.4639 42.5057C44.4727 40.4969 44.4727 37.2205 42.4639 35.2117C42.4531 35.201 42.4424 35.1903 42.4316 35.1903L30.6152 24.3084L31.0879 23.8358C31.4209 23.5028 31.4209 22.9549 31.0879 22.6219C30.7549 22.2889 30.207 22.2889 29.874 22.6219L29.3477 23.1483L28.0801 21.9881L33.1719 16.8963C33.8916 17.0897 34.6436 17.1864 35.3955 17.1864C40.1328 17.1864 43.9893 13.3299 43.9893 8.59262C43.9893 7.65805 43.8389 6.73422 43.5381 5.85336C43.4521 5.56332 43.2158 5.34848 42.9258 5.28403ZM7.54102 8.75375C7.37988 8.59262 7.16504 8.50668 6.92871 8.50668H4.98438L1.94434 3.42563L3.42676 1.94321L8.50781 4.99399V6.93832C8.50781 7.16391 8.59375 7.37875 8.75488 7.53988L19.5615 18.368L18.3477 19.5819L7.54102 8.75375ZM29.4014 25.5223L41.2822 36.4256C42.6143 37.7684 42.6035 39.9383 41.2715 41.2703C39.9287 42.6131 37.7695 42.6131 36.4268 41.2811L25.502 29.4217L29.4014 25.5223ZM28.1338 24.3621L24.3311 28.1649L23.1709 26.908L26.8662 23.2127L28.1338 24.3621ZM35.4062 15.4676C34.6543 15.4676 33.9131 15.3495 33.2148 15.1131C32.9033 15.0057 32.5596 15.0916 32.334 15.3172C28.0264 19.6248 18.7451 28.9061 15.3291 32.3221C15.0928 32.5584 15.0176 32.8914 15.125 33.203C15.834 35.3192 15.501 37.5858 14.1904 39.4119C12.8799 41.2274 10.8496 42.2694 8.61523 42.2694C8.36816 42.2694 8.11035 42.2586 7.86328 42.2264L10.5703 39.5301C10.7314 39.369 10.8281 39.1541 10.8281 38.9178V36.4901C10.8281 36.2645 10.7422 36.0389 10.5811 35.8778L8.12109 33.4178C7.95996 33.2567 7.74512 33.1707 7.50879 33.1707H5.08105C4.85547 33.1707 4.62988 33.2674 4.46875 33.4285L1.76172 36.1571C1.72949 35.91 1.71875 35.6629 1.71875 35.4051C1.71875 33.1707 2.76074 31.1297 4.57617 29.8299C6.40234 28.5194 8.6582 28.1756 10.7852 28.8953C11.0967 29.0028 11.4404 28.9168 11.666 28.6912C11.709 28.6483 28.6602 11.6971 28.6709 11.6864C28.9072 11.4608 28.9824 11.117 28.875 10.8055C28.1553 8.6893 28.499 6.4227 29.8096 4.59653C31.1309 2.75961 33.1719 1.71762 35.4062 1.71762C35.6641 1.71762 35.9219 1.72836 36.1797 1.76059L33.5049 4.47836C33.3438 4.6395 33.2578 4.85434 33.2578 5.07992V7.50766C33.2578 7.73324 33.3438 7.94809 33.4941 8.10922L35.8682 10.5692C36.0293 10.7411 36.2549 10.827 36.4912 10.827H38.9189C39.1445 10.827 39.3701 10.7303 39.5312 10.5692L42.2383 7.84067C42.2705 8.08774 42.2812 8.33481 42.2812 8.59262C42.2812 12.3846 39.1982 15.4676 35.4062 15.4676Z" fill="#3C72C2"/>
<path d="M26.7695 16.0166L16.0166 26.7695C15.6836 27.1025 15.6836 27.6504 16.0166 27.9834C16.3496 28.3164 16.8975 28.3164 17.2305 27.9834L27.9834 17.2305C28.3164 16.8975 28.3164 16.3496 27.9834 16.0166C27.6504 15.6836 27.1025 15.6836 26.7695 16.0166Z" fill="#3C72C2"/>
<path d="M37.6299 38.8438C37.9629 39.1768 38.5107 39.1768 38.8437 38.8438C39.1767 38.5108 39.1767 37.9629 38.8437 37.6299L31.0986 29.9063C30.7656 29.5732 30.2178 29.5732 29.8848 29.9063C29.5518 30.2393 29.5518 30.7871 29.8848 31.1201L37.6299 38.8438Z" fill="#3C72C2"/>
</g>
<defs>
<clipPath id="clip0">
<rect width="44" height="44" fill="white"/>
</clipPath>
</defs>
</svg>
