<svg width="46" height="46" viewBox="0 0 46 46" fill="none" xmlns="http://www.w3.org/2000/svg">
<path d="M40.9688 34.8863V15.6328C40.9688 13.9527 39.5941 12.5781 37.9141 12.5781C36.234 12.5781 34.8594 13.9527 34.8594 15.6328V21.0234C34.8594 21.5176 35.2637 21.9219 35.7578 21.9219C36.252 21.9219 36.6562 21.5176 36.6562 21.0234V15.6328C36.6562 14.941 37.2223 14.375 37.9141 14.375C38.6059 14.375 39.1719 14.941 39.1719 15.6328V34.8594H36.6562V28.2109C36.6562 27.7168 36.252 27.3125 35.7578 27.3125C35.2637 27.3125 34.8594 27.7168 34.8594 28.2109V34.8594H11.1406V15.6328C11.1406 13.9527 9.76602 12.5781 8.08594 12.5781C6.40586 12.5781 5.03125 13.9527 5.03125 15.6328V34.8863C2.21016 35.1559 0 37.5367 0 40.4297C0 43.5023 2.49766 46 5.57031 46H40.4297C43.5023 46 46 43.5023 46 40.4297C46 37.5367 43.7898 35.1559 40.9688 34.8863ZM6.82812 15.6328C6.82812 14.941 7.39414 14.375 8.08594 14.375C8.77773 14.375 9.34375 14.941 9.34375 15.6328V34.8594H6.82812V15.6328ZM40.4297 44.2031H5.57031C3.48594 44.2031 1.79688 42.5141 1.79688 40.4297C1.79688 38.3453 3.48594 36.6562 5.57031 36.6562H40.4297C42.5141 36.6562 44.2031 38.3453 44.2031 40.4297C44.2031 42.5141 42.5141 44.2031 40.4297 44.2031Z" fill="#3C72C2"/>
<path d="M5.92969 39.5312C5.69609 39.5312 5.4625 39.6301 5.2918 39.7918C5.12109 39.9625 5.03125 40.1871 5.03125 40.4297C5.03125 40.6723 5.13008 40.8969 5.2918 41.0676C5.4625 41.2383 5.68711 41.3281 5.92969 41.3281C6.16328 41.3281 6.39687 41.2293 6.56758 41.0676C6.73828 40.8969 6.82812 40.6723 6.82812 40.4297C6.82812 40.1871 6.7293 39.9625 6.56758 39.7918C6.39687 39.6301 6.16328 39.5312 5.92969 39.5312Z" fill="#3C72C2"/>
<path d="M10.6195 39.5312C10.3859 39.5312 10.1523 39.6301 9.98164 39.7918C9.81094 39.9625 9.72109 40.1871 9.72109 40.4297C9.72109 40.6723 9.81992 40.8969 9.98164 41.0676C10.1523 41.2383 10.377 41.3281 10.6195 41.3281C10.8531 41.3281 11.0867 41.2293 11.2574 41.0676C11.4281 40.8969 11.518 40.6723 11.518 40.4297C11.518 40.1871 11.4191 39.9625 11.2574 39.7918C11.0867 39.6301 10.8531 39.5312 10.6195 39.5312Z" fill="#3C72C2"/>
<path d="M15.3004 39.5312C15.0668 39.5312 14.8332 39.6301 14.6625 39.7918C14.4918 39.9625 14.402 40.1871 14.402 40.4297C14.402 40.6723 14.5008 40.8969 14.6625 41.0676C14.8332 41.2383 15.0578 41.3281 15.3004 41.3281C15.534 41.3281 15.7676 41.2293 15.9383 41.0676C16.109 40.8969 16.1988 40.6723 16.1988 40.4297C16.1988 40.1871 16.1 39.9625 15.9383 39.7918C15.7676 39.6301 15.543 39.5312 15.3004 39.5312Z" fill="#3C72C2"/>
<path d="M37.6445 39.5312H28.5703C28.0762 39.5312 27.6719 39.9355 27.6719 40.4297C27.6719 40.9238 28.0762 41.3281 28.5703 41.3281H37.6445C38.1387 41.3281 38.543 40.9238 38.543 40.4297C38.543 39.9355 38.1387 39.5312 37.6445 39.5312Z" fill="#3C72C2"/>
<path d="M24.5273 39.5312C24.2937 39.5312 24.0602 39.6301 23.8895 39.7918C23.7187 39.9625 23.6289 40.1871 23.6289 40.4297C23.6289 40.6723 23.7277 40.8969 23.8895 41.0676C24.0602 41.2383 24.2848 41.3281 24.5273 41.3281C24.7609 41.3281 24.9945 41.2293 25.1652 41.0676C25.3359 40.8969 25.4258 40.6723 25.4258 40.4297C25.4258 40.1871 25.327 39.9625 25.1652 39.7918C24.9945 39.6301 24.7609 39.5312 24.5273 39.5312Z" fill="#3C72C2"/>
<path d="M35.7578 25.5156C35.9914 25.5156 36.225 25.4168 36.3957 25.2551C36.5664 25.0844 36.6562 24.8598 36.6562 24.6172C36.6562 24.3836 36.5574 24.15 36.3957 23.9793C36.225 23.8086 36.0004 23.7188 35.7578 23.7188C35.5152 23.7188 35.2906 23.8176 35.1199 23.9793C34.9492 24.15 34.8594 24.3746 34.8594 24.6172C34.8594 24.8508 34.9582 25.0844 35.1199 25.2551C35.2906 25.4168 35.5242 25.5156 35.7578 25.5156Z" fill="#3C72C2"/>
<path d="M32.2539 4.1418C33.7633 2.63242 35.7758 1.79688 37.9141 1.79688C40.0523 1.79688 42.0648 2.63242 43.5742 4.1418C43.7539 4.32148 43.9785 4.40234 44.2121 4.40234C44.4457 4.40234 44.6703 4.3125 44.85 4.1418C45.2004 3.79141 45.2004 3.22539 44.85 2.875C42.9992 1.02422 40.5375 0 37.9141 0C35.2906 0 32.8289 1.02422 30.9781 2.875C30.6277 3.22539 30.6277 3.79141 30.9781 4.1418C31.3285 4.49219 31.9035 4.49219 32.2539 4.1418Z" fill="#3C72C2"/>
<path d="M40.9238 7.69053C41.1574 7.69053 41.382 7.60068 41.5617 7.42998C41.9121 7.07959 41.9121 6.51357 41.5617 6.16318C39.5492 4.15068 36.2789 4.15068 34.2664 6.16318C33.916 6.51357 33.916 7.07959 34.2664 7.42998C34.6168 7.78037 35.1828 7.78037 35.5332 7.42998C36.1711 6.79209 37.0156 6.4417 37.9141 6.4417C38.8125 6.4417 39.657 6.79209 40.2949 7.42998C40.4656 7.60068 40.6992 7.69053 40.9238 7.69053Z" fill="#3C72C2"/>
<path d="M37.2762 9.27178C37.1055 9.44248 37.0156 9.66709 37.0156 9.90967C37.0156 10.1433 37.1145 10.3769 37.2762 10.5476C37.4469 10.7183 37.6715 10.8081 37.9141 10.8081C38.1566 10.8081 38.3813 10.7093 38.552 10.5476C38.7227 10.3769 38.8125 10.1522 38.8125 9.90967C38.8125 9.67607 38.7137 9.44248 38.552 9.27178C38.3813 9.10107 38.1566 9.01123 37.9141 9.01123C37.6715 9.01123 37.4469 9.11006 37.2762 9.27178Z" fill="#3C72C2"/>
<path d="M2.42578 4.1418C3.93516 2.63242 5.94766 1.79688 8.08594 1.79688C10.2242 1.79688 12.2367 2.63242 13.7461 4.1418C13.9258 4.32148 14.1504 4.40234 14.384 4.40234C14.6176 4.40234 14.8422 4.3125 15.0219 4.1418C15.3723 3.79141 15.3723 3.22539 15.0219 2.875C13.1711 1.02422 10.7094 0 8.08594 0C5.4625 0 3.00078 1.02422 1.15 2.875C0.799609 3.22539 0.799609 3.79141 1.15 4.1418C1.50039 4.49219 2.07539 4.49219 2.42578 4.1418Z" fill="#3C72C2"/>
<path d="M11.0957 7.69053C11.3293 7.69053 11.5539 7.60068 11.7336 7.42998C12.084 7.07959 12.084 6.51357 11.7336 6.16318C9.72109 4.15068 6.45078 4.15068 4.43828 6.16318C4.08789 6.51357 4.08789 7.07959 4.43828 7.42998C4.78867 7.78037 5.35468 7.78037 5.70508 7.42998C6.34297 6.79209 7.1875 6.4417 8.08593 6.4417C8.98437 6.4417 9.8289 6.79209 10.4668 7.42998C10.6375 7.60068 10.8711 7.69053 11.0957 7.69053Z" fill="#3C72C2"/>
<path d="M7.44805 9.27178C7.27734 9.44248 7.1875 9.66709 7.1875 9.90967C7.1875 10.1433 7.28633 10.3769 7.44805 10.5476C7.61875 10.7183 7.84336 10.8081 8.08594 10.8081C8.32852 10.8081 8.55312 10.7093 8.72383 10.5476C8.89453 10.3769 8.98438 10.1522 8.98438 9.90967C8.98438 9.67607 8.88555 9.44248 8.72383 9.27178C8.55312 9.10107 8.32852 9.01123 8.08594 9.01123C7.84336 9.01123 7.61875 9.11006 7.44805 9.27178Z" fill="#3C72C2"/>
</svg>
