<svg width="49" height="49" viewBox="0 0 49 49" fill="none" xmlns="http://www.w3.org/2000/svg">
<path d="M46.55 0H2.45C1.09229 0 0 1.09229 0 2.45V36.75C0 38.1077 1.09229 39.2 2.45 39.2H20.1921L18.9671 44.1H5.71667C4.35896 44.1 3.26667 45.1923 3.26667 46.55C3.26667 47.9077 4.35896 49 5.71667 49H43.2833C44.641 49 45.7333 47.9077 45.7333 46.55C45.7333 45.1923 44.641 44.1 43.2833 44.1H30.0329L28.8079 39.2H46.55C47.9077 39.2 49 38.1077 49 36.75V2.45C49 1.09229 47.9077 0 46.55 0ZM2.45 1.63333H46.55C46.9992 1.63333 47.3667 2.00083 47.3667 2.45V34.3H1.63333V2.45C1.63333 2.00083 2.00083 1.63333 2.45 1.63333ZM44.1 46.55C44.1 46.9992 43.7325 47.3667 43.2833 47.3667H5.71667C5.2675 47.3667 4.9 46.9992 4.9 46.55C4.9 46.1008 5.2675 45.7333 5.71667 45.7333H43.2833C43.7325 45.7333 44.1 46.1008 44.1 46.55ZM28.3587 44.1H20.6515L21.8765 39.2H27.1337L28.3587 44.1ZM47.3667 36.75C47.3667 37.1992 46.9992 37.5667 46.55 37.5667H2.45C2.00083 37.5667 1.63333 37.1992 1.63333 36.75V35.9333H47.3667V36.75Z" fill="#3C72C2"/>
<path d="M8.47291 10.1368C8.22791 10.3818 7.99312 10.6472 7.76854 10.9126L7.63583 11.0759C7.22749 11.5762 6.85999 12.0968 6.54354 12.648C6.5027 12.7195 6.47208 12.7909 6.43124 12.8522C6.39041 12.9237 6.35979 12.9849 6.31895 13.0564C6.17604 13.332 6.03312 13.6178 5.91062 13.9037C5.8902 13.9547 5.86979 13.9955 5.84937 14.0466C5.71666 14.363 5.60437 14.6795 5.50229 15.0062C5.47166 15.1082 5.44104 15.2103 5.41041 15.3124C5.32874 15.588 5.25729 15.8637 5.19604 16.1393C5.17562 16.2107 5.1552 16.2822 5.14499 16.3537C5.07354 16.6905 5.02249 17.0376 4.99187 17.3847C4.98166 17.4766 4.97145 17.5787 4.96124 17.6705C4.93062 18.038 4.9102 18.4055 4.9102 18.773C4.9102 19.1405 4.93062 19.508 4.96124 19.8755C4.97145 19.9674 4.98166 20.0695 4.99187 20.1614C5.0327 20.5084 5.08374 20.8555 5.14499 21.1924C5.1552 21.2639 5.17562 21.3353 5.19604 21.4068C5.25729 21.6824 5.32874 21.958 5.41041 22.2337C5.44104 22.3357 5.47166 22.4378 5.50229 22.5399C5.60437 22.8666 5.72687 23.183 5.84937 23.4995C5.86979 23.5505 5.8902 23.5914 5.91062 23.6424C6.03312 23.9282 6.17604 24.2141 6.31895 24.4897C6.35979 24.5612 6.39041 24.6224 6.43124 24.6939C6.47208 24.7551 6.5027 24.8368 6.54354 24.898C6.8702 25.4493 7.2377 25.9801 7.63583 26.4803L7.76854 26.6437C7.99312 26.9091 8.22791 27.1745 8.47291 27.4195L8.49333 27.4399C8.73833 27.6849 8.99354 27.9095 9.24874 28.1239C9.33041 28.1953 9.42229 28.2668 9.51416 28.3382C9.70812 28.4914 9.90208 28.6343 10.1062 28.7772C10.2287 28.8589 10.341 28.9405 10.4635 29.0222C10.6779 29.1651 10.9025 29.2978 11.1373 29.4305C11.2802 29.5122 11.4231 29.5837 11.566 29.6653C11.7294 29.747 11.8927 29.8287 12.056 29.9001C12.2704 29.992 12.4746 30.0839 12.6992 30.1757C12.9033 30.2574 13.1075 30.3289 13.3117 30.4003C13.4648 30.4514 13.6179 30.4922 13.771 30.5432C13.9854 30.6045 14.21 30.6657 14.4346 30.7168C14.5571 30.7474 14.6796 30.778 14.8021 30.7985C15.1185 30.8597 15.435 30.9107 15.7617 30.9414C15.8637 30.9516 15.9658 30.9618 16.0781 30.972C16.4354 31.0026 16.8029 31.023 17.1704 31.023C17.5175 31.023 17.8646 31.0026 18.2117 30.972C18.3035 30.9618 18.3954 30.9516 18.4771 30.9414C18.7833 30.9107 19.0896 30.8597 19.3958 30.8087C19.4265 30.7985 19.4673 30.7985 19.4979 30.7882C19.8552 30.7168 20.2023 30.6351 20.5494 30.533L20.6515 30.5024C23.6527 29.6041 26.2048 27.6032 27.7769 24.898C27.8687 24.7347 27.9402 24.5714 28.0321 24.3978C28.0933 24.2855 28.1444 24.1835 28.1954 24.0712C28.3077 23.8364 28.4098 23.6016 28.5119 23.3668C28.5731 23.2137 28.6344 23.0503 28.6956 22.887C28.7773 22.6726 28.8487 22.4582 28.91 22.2439C28.9712 22.0295 29.0325 21.7947 29.0835 21.5701C29.1244 21.3966 29.1754 21.2332 29.206 21.0597C29.2469 20.8453 29.2775 20.6207 29.3081 20.3962H41.65C43.0077 20.3962 44.1 19.3039 44.1 17.9462V14.6795C44.1 13.3218 43.0077 12.2295 41.65 12.2295H27.5012C25.2554 8.67699 21.3456 6.52303 17.15 6.51282C16.7825 6.51282 16.415 6.53323 16.0577 6.56386C15.9556 6.57407 15.8535 6.58428 15.7412 6.59448C15.4146 6.63532 15.0981 6.67615 14.7817 6.7374C14.6592 6.75782 14.5367 6.78844 14.4142 6.81907C14.1896 6.87011 13.965 6.93136 13.7506 6.99261C13.5975 7.03344 13.4444 7.08448 13.2912 7.13553C13.0871 7.20698 12.8829 7.27844 12.6787 7.36011C12.4644 7.44178 12.25 7.53365 12.0356 7.63574C11.8723 7.70719 11.709 7.78886 11.5456 7.87053C11.4027 7.94198 11.2598 8.02365 11.1169 8.10532C10.8923 8.23803 10.6677 8.37074 10.4431 8.51365C10.3206 8.59532 10.1981 8.67699 10.0858 8.75865C9.88166 8.90157 9.6877 9.04449 9.49374 9.19761C9.40187 9.26907 9.3202 9.34053 9.22833 9.41199C8.97312 9.62636 8.71791 9.86115 8.47291 10.0959V10.1368ZM9.05478 11.9232C9.20791 11.7395 9.37124 11.5659 9.53458 11.4026C9.59583 11.3414 9.65708 11.2801 9.71833 11.2189C9.9327 11.0147 10.1471 10.8105 10.3717 10.6268C10.4431 10.5655 10.5146 10.5145 10.586 10.4634C10.7494 10.3409 10.9127 10.2082 11.076 10.0959C11.1985 10.0143 11.3108 9.93261 11.4333 9.86115C11.5558 9.77949 11.6885 9.69782 11.8212 9.62636C11.954 9.5549 12.0867 9.46303 12.2296 9.39157C12.3929 9.29969 12.5665 9.22824 12.74 9.14657C12.9442 9.05469 13.1585 8.96282 13.3729 8.88115C13.4546 8.85053 13.5362 8.8199 13.6179 8.78928C13.5975 8.8199 13.5771 8.85053 13.5669 8.88115C13.4546 9.05469 13.3423 9.22824 13.23 9.42219C13.1994 9.47324 13.1687 9.51407 13.1483 9.56511C13.0156 9.7999 12.9033 10.0347 12.7808 10.2899C12.7604 10.3409 12.7298 10.4022 12.7094 10.4532C12.6175 10.6676 12.5154 10.8922 12.4337 11.127C12.4133 11.1882 12.3827 11.2597 12.3623 11.3209C12.2602 11.6068 12.1581 11.9028 12.0662 12.2091C12.0662 12.2193 12.056 12.2295 12.056 12.2499H8.79958C8.84041 12.1989 8.87103 12.158 8.90166 12.107C8.9527 12.0457 9.00374 11.9845 9.05478 11.9232ZM20.8352 8.84032C20.9985 8.90157 21.1619 8.96282 21.3252 9.03428C21.3967 9.0649 21.4579 9.09553 21.5294 9.12615C21.6825 9.19761 21.8356 9.26907 21.9887 9.35074C22.05 9.38136 22.1215 9.42219 22.1827 9.45282C22.3358 9.53449 22.4787 9.61615 22.6319 9.70803C22.6931 9.74886 22.7544 9.77949 22.8156 9.82032C22.9687 9.91219 23.1117 10.0143 23.2546 10.1164L23.4179 10.2287C23.5608 10.3409 23.714 10.4532 23.8569 10.5655C23.8977 10.6064 23.9487 10.637 23.9896 10.6778C24.1427 10.8003 24.2856 10.933 24.4285 11.0657C24.4592 11.0964 24.5 11.127 24.5306 11.1576C24.694 11.3107 24.8471 11.4741 25.0002 11.6374C25.0104 11.6578 25.0308 11.668 25.041 11.6782C25.2044 11.862 25.3677 12.0559 25.5208 12.2499H22.2746C22.2746 12.2397 22.2644 12.2193 22.2644 12.2091C22.1725 11.9028 22.0704 11.6068 21.9683 11.3209C21.9479 11.2495 21.9173 11.1882 21.8969 11.127C21.805 10.8922 21.7131 10.6676 21.6212 10.4532C21.6008 10.4022 21.5702 10.3409 21.5498 10.2899C21.4375 10.0347 21.315 9.78969 21.1823 9.56511C21.1517 9.51407 21.121 9.46303 21.1006 9.42219C20.9883 9.23844 20.876 9.05469 20.7637 8.88115C20.7433 8.85053 20.7229 8.8199 20.7025 8.78928C20.7331 8.79949 20.7842 8.8199 20.8352 8.84032ZM21.0087 28.6649C20.9067 28.7057 20.8046 28.7364 20.6923 28.7772C20.7127 28.7568 20.7229 28.7262 20.7433 28.6955C20.8556 28.522 20.9679 28.3485 21.0802 28.1545C21.1108 28.1035 21.1415 28.0626 21.1619 28.0116C21.2844 27.787 21.4069 27.542 21.5294 27.2868C21.5498 27.2357 21.5804 27.1745 21.6008 27.1235C21.6927 26.9091 21.7948 26.6845 21.8765 26.4497C21.8969 26.3885 21.9275 26.317 21.9479 26.2557C22.05 25.9699 22.1521 25.6739 22.2439 25.3676C22.2439 25.3574 22.2542 25.3472 22.2542 25.3268H25.4698C24.3162 26.7968 22.7952 27.9401 21.0598 28.6445L21.0087 28.6649ZM12.7298 28.4199C12.5562 28.3382 12.3929 28.2668 12.2194 28.1749C12.0867 28.1035 11.9437 28.0218 11.811 27.9401C11.6783 27.8585 11.5558 27.787 11.4231 27.7053C11.3006 27.6237 11.1781 27.5522 11.0658 27.4705C10.9025 27.348 10.729 27.2255 10.5758 27.103C10.5044 27.052 10.4329 27.001 10.3717 26.9397C10.1471 26.756 9.92249 26.5518 9.71833 26.3476C9.65708 26.2864 9.59583 26.2251 9.53458 26.1639C9.37124 25.9903 9.20791 25.8168 9.05478 25.6432C9.00374 25.582 8.9527 25.5207 8.90166 25.4595C8.86083 25.4085 8.8302 25.3676 8.79958 25.3166H12.0356C12.0356 25.3268 12.0458 25.3472 12.0458 25.3574C12.1377 25.6637 12.2398 25.9597 12.3419 26.2455C12.3623 26.317 12.3929 26.3782 12.4133 26.4395C12.5052 26.6743 12.5971 26.8989 12.689 27.1132C12.7094 27.1643 12.74 27.2255 12.7604 27.2766C12.8727 27.5318 12.9952 27.7768 13.1279 28.0014C13.1585 28.0524 13.1892 28.0932 13.2096 28.1443C13.3219 28.328 13.4342 28.5118 13.5465 28.6853C13.5669 28.716 13.5873 28.7466 13.5975 28.7772C13.5158 28.7466 13.4342 28.716 13.3525 28.6853C13.1483 28.6037 12.934 28.522 12.7298 28.4199ZM7.57458 23.3362C7.49291 23.1626 7.40104 22.9789 7.32958 22.7951C7.27854 22.6624 7.22749 22.5195 7.17645 22.3868C7.10499 22.1928 7.03354 21.9989 6.97229 21.7947C6.93145 21.662 6.90083 21.5191 6.85999 21.3762C6.80895 21.172 6.75791 20.9678 6.71708 20.7637C6.68645 20.6105 6.66604 20.4574 6.64562 20.2941C6.61499 20.1001 6.58437 19.9062 6.57416 19.7122C6.57416 19.6714 6.57416 19.6305 6.56395 19.5897H11.1373C11.1373 19.6816 11.1577 19.7734 11.1577 19.8653C11.1781 20.386 11.219 20.9066 11.27 21.417C11.2802 21.5293 11.2904 21.6314 11.3006 21.7437C11.3721 22.3562 11.464 22.938 11.5865 23.5199C11.5967 23.5709 11.5967 23.622 11.6069 23.673H7.7277C7.68687 23.5709 7.62562 23.4587 7.57458 23.3362ZM13.3015 23.6832C13.2606 23.5301 13.23 23.3668 13.1994 23.2137C13.179 23.1014 13.1585 22.9993 13.1381 22.887C13.0667 22.4889 13.0054 22.0805 12.9544 21.6722C12.9442 21.6212 12.9442 21.5803 12.9442 21.5293C12.9033 21.1618 12.8625 20.7841 12.8421 20.3962C12.8319 20.2737 12.8319 20.1409 12.8217 20.0184C12.8115 19.8959 12.8115 19.7428 12.8115 19.6101H21.5192C21.5192 19.7428 21.509 19.8857 21.509 20.0184C21.4987 20.1512 21.4987 20.2737 21.4885 20.3962C21.4681 20.7739 21.4273 21.1516 21.3864 21.5191C21.3762 21.5701 21.3762 21.6212 21.366 21.6722C21.315 22.0907 21.2537 22.4889 21.1823 22.887C21.1619 22.9993 21.1414 23.1014 21.121 23.2137C21.0904 23.377 21.0496 23.5301 21.0189 23.6832H13.3015ZM20.9985 13.8832C21.0394 14.0364 21.07 14.1997 21.1006 14.3528C21.121 14.4651 21.1415 14.5672 21.1619 14.6795C21.2333 15.0776 21.2946 15.4859 21.3456 15.8943C21.3558 15.9453 21.3558 15.9964 21.366 16.0474C21.4069 16.4149 21.4375 16.7926 21.4681 17.1703C21.4783 17.2928 21.4783 17.4255 21.4885 17.548C21.4987 17.6705 21.4987 17.8237 21.4987 17.9564H12.791C12.791 17.8237 12.8012 17.6807 12.8012 17.548C12.8115 17.4153 12.8115 17.2928 12.8217 17.1703C12.8421 16.7926 12.8829 16.4149 12.9237 16.0372C12.934 15.9862 12.934 15.9453 12.934 15.8943C12.985 15.4757 13.0462 15.0776 13.1177 14.6795C13.1381 14.5672 13.1585 14.4651 13.179 14.3528C13.2096 14.1895 13.2504 14.0364 13.281 13.8832H20.9985ZM11.5967 14.0364C11.4844 14.608 11.3823 15.2001 11.3108 15.8126C11.3006 15.9249 11.2904 16.027 11.2802 16.1393C11.2292 16.6497 11.1883 17.1703 11.1679 17.6909C11.1679 17.7828 11.1475 17.8747 11.1475 17.9666H6.57416C6.57416 17.9257 6.57416 17.8849 6.58437 17.8339C6.60479 17.6399 6.6252 17.4459 6.65583 17.252C6.67624 17.0989 6.69666 16.9355 6.72729 16.7824C6.76812 16.5782 6.81916 16.3741 6.8702 16.1699C6.90083 16.027 6.94166 15.8943 6.98249 15.7514C7.04374 15.5472 7.1152 15.3532 7.18666 15.1593C7.2377 15.0266 7.27854 14.8837 7.33979 14.7509C7.41124 14.5672 7.50312 14.3937 7.58479 14.2099C7.63583 14.0976 7.69708 13.9751 7.74812 13.8628H11.6273C11.6069 13.9343 11.6069 13.9853 11.5967 14.0364ZM16.711 29.3387C16.6906 29.3285 16.6702 29.3285 16.6498 29.3182C16.5069 29.2672 16.3742 29.206 16.2415 29.1345C16.2108 29.1243 16.1904 29.1039 16.17 29.0937C16.0271 29.0018 15.8944 28.9099 15.7719 28.7976L15.7106 28.7364C15.5677 28.6037 15.435 28.4607 15.3125 28.3178C15.3023 28.3076 15.2921 28.2872 15.2819 28.277C15.1492 28.1137 15.0165 27.9401 14.9042 27.7564C14.894 27.736 14.8735 27.7155 14.8633 27.6951C14.7408 27.5012 14.6285 27.297 14.506 27.0826C14.4856 27.0418 14.4652 27.001 14.4448 26.9601C14.3325 26.7457 14.2304 26.511 14.1283 26.2762C14.1079 26.2251 14.0875 26.1843 14.0671 26.1332C13.965 25.8882 13.8629 25.6228 13.771 25.3472L13.7506 25.3166H20.5596L20.5494 25.3472C20.4575 25.6228 20.3554 25.878 20.2533 26.1332C20.2329 26.1843 20.2125 26.2251 20.1921 26.2762C20.09 26.5212 19.9879 26.7457 19.8756 26.9601C19.8552 27.001 19.8348 27.0418 19.8144 27.0826C19.7021 27.297 19.5796 27.5012 19.4571 27.6951C19.4469 27.7155 19.4265 27.736 19.4162 27.7564C19.304 27.9401 19.1712 28.1035 19.0385 28.277C19.0283 28.2872 19.0181 28.2974 19.0079 28.3178C18.8854 28.471 18.7527 28.6037 18.6098 28.7364L18.5485 28.7976C18.426 28.9099 18.2933 29.012 18.1504 29.0937C18.13 29.1141 18.0994 29.1243 18.079 29.1345C17.9462 29.2162 17.8135 29.2774 17.6706 29.3182C17.6502 29.3285 17.6298 29.3285 17.6094 29.3387C17.3031 29.4203 16.9969 29.4203 16.711 29.3387ZM27.5931 20.7126C27.5319 21.0189 27.4604 21.3251 27.3787 21.6212C27.3787 21.6416 27.3685 21.662 27.3685 21.6824C27.1644 22.3766 26.8887 23.0503 26.5519 23.6832H22.6829C22.6931 23.6322 22.6931 23.5812 22.7033 23.5301C22.8156 22.9482 22.9177 22.3562 22.9892 21.7539C22.9994 21.6416 23.0096 21.5395 23.0198 21.4272C23.0708 20.9168 23.1117 20.3962 23.1321 19.8755C23.1321 19.7837 23.1525 19.6918 23.1525 19.5999H25.1431C25.6025 20.1205 26.266 20.4166 26.9602 20.4166H27.6442C27.6135 20.5187 27.6033 20.6105 27.5931 20.7126ZM24.5 14.6999V17.9666H23.1525C23.1525 17.8747 23.1321 17.7828 23.1321 17.6909C23.1117 17.1703 23.0708 16.6497 23.0198 16.1393C23.0096 16.027 22.9994 15.9249 22.9892 15.8126C22.9177 15.2103 22.8258 14.6182 22.7033 14.0364C22.6931 13.9853 22.6931 13.9343 22.6829 13.8832H24.6531C24.551 14.1487 24.5 14.4243 24.5 14.6999ZM17.589 8.22782C17.6094 8.23803 17.6298 8.23803 17.6502 8.24824C17.7931 8.29928 17.9258 8.36053 18.0585 8.43198C18.0892 8.44219 18.1096 8.46261 18.13 8.47282C18.2729 8.56469 18.4056 8.65657 18.5281 8.76886L18.5894 8.83011C18.7323 8.96282 18.865 9.10574 18.9875 9.24865C18.9977 9.25886 19.0079 9.26907 19.0181 9.28949C19.1508 9.45282 19.2835 9.62636 19.3958 9.81011C19.406 9.83053 19.4264 9.85094 19.4367 9.87136C19.5592 10.0653 19.6714 10.2695 19.794 10.4839C19.8144 10.5247 19.8348 10.5655 19.8552 10.6064C19.9675 10.8207 20.0696 11.0555 20.1717 11.2903C20.1921 11.3414 20.2125 11.3822 20.2329 11.4332C20.335 11.6782 20.4371 11.9437 20.529 12.2193L20.5392 12.2499H13.7404L13.7506 12.2193C13.8425 11.9437 13.9446 11.6884 14.0467 11.4332C14.0671 11.3822 14.0875 11.3414 14.1079 11.2903C14.21 11.0453 14.3121 10.8207 14.4244 10.6064C14.4448 10.5655 14.4652 10.5247 14.4856 10.4839C14.5979 10.2695 14.7204 10.0653 14.8429 9.87136C14.8531 9.85094 14.8735 9.83053 14.8837 9.81011C14.996 9.62636 15.1287 9.46303 15.2615 9.28949C15.2717 9.27928 15.2819 9.26907 15.2921 9.24865C15.4146 9.09553 15.5473 8.96282 15.6902 8.83011L15.7515 8.76886C15.874 8.65657 16.0067 8.55449 16.1496 8.47282C16.17 8.4524 16.2006 8.44219 16.221 8.43198C16.3537 8.35032 16.4865 8.28907 16.6294 8.24824C16.6498 8.23803 16.6702 8.23803 16.6906 8.22782C16.9969 8.14615 17.3031 8.14615 17.589 8.22782ZM42.4667 14.6999V17.9666C42.4667 18.4157 42.0992 18.7832 41.65 18.7832H26.95C26.5008 18.7832 26.1333 18.4157 26.1333 17.9666V14.6999C26.1333 14.2507 26.5008 13.8832 26.95 13.8832H41.65C42.0992 13.8832 42.4667 14.2507 42.4667 14.6999Z" fill="#3C72C2"/>
<path d="M41.4152 26.7153C41.7317 26.3988 41.7317 25.8782 41.4152 25.5617L39.5369 23.6834H40.8333C41.2825 23.6834 41.65 23.3159 41.65 22.8667C41.65 22.4175 41.2825 22.05 40.8333 22.05H37.5667C37.1175 22.05 36.75 22.4175 36.75 22.8667V26.1334C36.75 26.5825 37.1175 26.95 37.5667 26.95C38.0158 26.95 38.3833 26.5825 38.3833 26.1334V24.8369L40.2514 26.705C40.5781 27.0317 41.0885 27.0317 41.4152 26.7153Z" fill="#3C72C2"/>
<path d="M32.6667 15.5167H31.0333V17.1501H32.6667V15.5167Z" fill="#3C72C2"/>
<path d="M35.9333 15.5167H34.3V17.1501H35.9333V15.5167Z" fill="#3C72C2"/>
<path d="M39.2 15.5167H37.5667V17.1501H39.2V15.5167Z" fill="#3C72C2"/>
<path d="M4.08333 8.16672C4.5325 8.16672 4.9 7.79922 4.9 7.35006V5.71672C4.9 5.26756 5.2675 4.90006 5.71666 4.90006H7.35C7.79916 4.90006 8.16666 4.53256 8.16666 4.08339C8.16666 3.63422 7.79916 3.26672 7.35 3.26672H5.71666C4.35895 3.26672 3.26666 4.35902 3.26666 5.71672V7.35006C3.26666 7.79922 3.63416 8.16672 4.08333 8.16672Z" fill="#3C72C2"/>
<path d="M10.6167 4.90006H13.0667C13.5158 4.90006 13.8833 4.53256 13.8833 4.08339C13.8833 3.63422 13.5158 3.26672 13.0667 3.26672H10.6167C10.1675 3.26672 9.8 3.63422 9.8 4.08339C9.8 4.53256 10.1675 4.90006 10.6167 4.90006Z" fill="#3C72C2"/>
<path d="M44.1 30.2167C44.1 30.6659 43.7325 31.0334 43.2833 31.0334H41.65C41.2008 31.0334 40.8333 31.4009 40.8333 31.8501C40.8333 32.2992 41.2008 32.6667 41.65 32.6667H43.2833C44.6411 32.6667 45.7333 31.5744 45.7333 30.2167V28.5834C45.7333 28.1342 45.3658 27.7667 44.9167 27.7667C44.4675 27.7667 44.1 28.1342 44.1 28.5834V30.2167Z" fill="#3C72C2"/>
<path d="M38.3833 31.0333H35.9333C35.4842 31.0333 35.1167 31.4008 35.1167 31.85C35.1167 32.2992 35.4842 32.6667 35.9333 32.6667H38.3833C38.8325 32.6667 39.2 32.2992 39.2 31.85C39.2 31.4008 38.8325 31.0333 38.3833 31.0333Z" fill="#3C72C2"/>
</svg>
