<svg width="31" height="30" viewBox="0 0 31 30" fill="none" xmlns="http://www.w3.org/2000/svg">
<path d="M25.7383 24.1406H25.7266C25.4043 24.1406 25.1406 24.4043 25.1406 24.7266C25.1406 25.0488 25.4043 25.3125 25.7266 25.3125H25.7441C26.0664 25.3125 26.3301 25.0488 26.3301 24.7266C26.3242 24.4043 26.0664 24.1406 25.7383 24.1406Z" fill="#1F1F1F" stroke="#1F1F1F" stroke-width="0.25"/>
<path d="M5.04297 4.21875H5.06055C5.38281 4.21875 5.64648 3.95508 5.64648 3.63281C5.64648 3.31055 5.38281 3.04688 5.06055 3.04688H5.04297C4.7207 3.04688 4.45703 3.31055 4.45703 3.63281C4.45703 3.95508 4.7207 4.21875 5.04297 4.21875Z" fill="#1F1F1F" stroke="#1F1F1F" stroke-width="0.25"/>
<path d="M29.2422 3.04688H27.8887C26.8633 1.23047 24.9121 0 22.6797 0C20.4473 0 18.4961 1.23047 17.4707 3.04688H7.38672C7.06445 3.04688 6.80078 3.31055 6.80078 3.63281C6.80078 3.95508 7.06445 4.21875 7.38672 4.21875H16.9668C16.8496 4.59375 16.7734 4.98633 16.7324 5.39062H2.17188V4.80469C2.17188 4.48242 2.43555 4.21875 2.75781 4.21875H3.34375C3.66602 4.21875 3.92969 3.95508 3.92969 3.63281C3.92969 3.31055 3.66602 3.04688 3.34375 3.04688H2.75781C1.79102 3.04688 1 3.83789 1 4.80469V23.5547C1 24.5215 1.79102 25.3125 2.75781 25.3125H12.4141L11.957 28.8281H11.3125C10.9902 28.8281 10.7266 29.0918 10.7266 29.4141C10.7266 29.7363 10.9902 30 11.3125 30H20.6875C21.0098 30 21.2734 29.7363 21.2734 29.4141C21.2734 29.0918 21.0098 28.8281 20.6875 28.8281H20.043L19.5859 25.3125H23.3828C23.7051 25.3125 23.9688 25.0488 23.9688 24.7266C23.9688 24.4043 23.7051 24.1406 23.3828 24.1406H2.75781C2.43555 24.1406 2.17188 23.877 2.17188 23.5547V22.3828H12.584C12.8242 23.0625 13.4746 23.5547 14.2422 23.5547H17.7578C18.5195 23.5547 19.1758 23.0625 19.416 22.3828H29.8281V23.5547C29.8281 23.877 29.5645 24.1406 29.2422 24.1406H27.4258C27.1035 24.1406 26.8398 24.4043 26.8398 24.7266C26.8398 25.0488 27.1035 25.3125 27.4258 25.3125H29.2422C30.209 25.3125 31 24.5215 31 23.5547V4.80469C31 3.83789 30.209 3.04688 29.2422 3.04688ZM18.8594 28.8281H13.1348L13.5918 25.3125H18.3965L18.8594 28.8281ZM29.2422 4.21875C29.5645 4.21875 29.8281 4.48242 29.8281 4.80469V5.39062H28.627C28.5859 4.98633 28.5098 4.59375 28.3926 4.21875H29.2422ZM22.6797 1.17188C25.3281 1.17188 27.4844 3.32812 27.4844 5.97656C27.4844 8.625 25.3281 10.7812 22.6797 10.7812C20.0312 10.7812 17.875 8.625 17.875 5.97656C17.875 3.32812 20.0312 1.17188 22.6797 1.17188ZM29.8281 21.2109H18.9297C18.6074 21.2109 18.3438 21.4746 18.3438 21.7969C18.3438 22.1191 18.0801 22.3828 17.7578 22.3828H14.2422C13.9199 22.3828 13.6562 22.1191 13.6562 21.7969C13.6562 21.4746 13.3926 21.2109 13.0703 21.2109H2.17188V6.5625H16.7324C17.0254 9.58594 19.5801 11.9531 22.6797 11.9531C25.7793 11.9531 28.334 9.58594 28.627 6.5625H29.8281V21.2109Z" fill="#1F1F1F" stroke="#1F1F1F" stroke-width="0.25"/>
<path d="M19.2812 12.8848C18.3965 12.375 17.5117 11.8594 16.6211 11.3496C15.7305 10.834 14.834 10.3184 13.9434 9.80273C13.5859 9.57422 13.1348 9.55078 12.7598 9.75586C12.3789 9.96094 12.1387 10.3535 12.1387 10.7871V17.0098C12.1387 17.4316 12.3555 17.8125 12.7246 18.0234C12.9062 18.1289 13.1113 18.1816 13.3105 18.1816C13.5098 18.1816 13.709 18.1289 13.8965 18.0234L19.2871 14.9121C19.6445 14.7012 19.873 14.3145 19.873 13.8984C19.8613 13.4707 19.6445 13.0957 19.2812 12.8848ZM13.3105 17.0039V10.7871C13.3223 10.793 13.334 10.8047 13.3457 10.8105C14.2422 11.3262 15.1387 11.8477 16.041 12.3633C16.9258 12.873 17.8105 13.3828 18.6953 13.8984L13.3105 17.0039Z" fill="#1F1F1F" stroke="#1F1F1F" stroke-width="0.25"/>
<path d="M18.9531 5.41992C19.1816 5.64843 19.5508 5.64843 19.7793 5.41992C20.5527 4.64648 21.584 4.21875 22.6797 4.21875C23.7754 4.21875 24.8066 4.64648 25.5801 5.41992C25.6973 5.53711 25.8438 5.58984 25.9961 5.58984C26.1484 5.58984 26.2949 5.53125 26.4121 5.41992C26.6406 5.1914 26.6406 4.82226 26.4121 4.59375C25.4102 3.59766 24.0859 3.04688 22.6797 3.04688C21.2734 3.04688 19.9492 3.59766 18.9531 4.59375C18.7187 4.82226 18.7187 5.1914 18.9531 5.41992Z" fill="#1F1F1F" stroke="#1F1F1F" stroke-width="0.25"/>
<path d="M20.6055 6.24609C20.377 6.47461 20.377 6.84375 20.6055 7.07227C20.7227 7.18945 20.8691 7.24219 21.0215 7.24219C21.1738 7.24219 21.3203 7.1836 21.4375 7.07227C22.123 6.38672 23.2363 6.38672 23.9219 7.07227C24.1504 7.30078 24.5195 7.30078 24.748 7.07227C24.9766 6.84375 24.9766 6.47461 24.748 6.24609C23.6113 5.10937 21.748 5.10937 20.6055 6.24609Z" fill="#1F1F1F" stroke="#1F1F1F" stroke-width="0.25"/>
<path d="M22.6797 7.73438C22.3574 7.73438 22.0938 7.99805 22.0938 8.32031C22.0938 8.64258 22.3574 8.90625 22.6797 8.90625C23.002 8.90625 23.2656 8.64258 23.2656 8.32031C23.2656 7.99805 23.002 7.73438 22.6797 7.73438Z" fill="#1F1F1F" stroke="#1F1F1F" stroke-width="0.25"/>
</svg>
