<svg width="48" height="41" viewBox="0 0 48 41" fill="none" xmlns="http://www.w3.org/2000/svg">
<path d="M43.0031 16.2155V15.1193C43.0031 13.4563 41.6531 12.0956 40.0031 12.0956H30V7.05911C30 6.5016 29.55 6.04804 28.9969 6.04804H25.9969V3.02427C25.9969 2.46677 25.5469 2.0132 24.9938 2.0132H11.4188L9.70312 0.293434C9.31875 -0.0939863 8.68125 -0.0939863 8.29688 0.293434L2.5875 6.04804H1.00312C0.45 6.04804 0 6.5016 0 7.05911V35.2841C0 35.8416 0.45 36.2951 1.00312 36.2951H5.1C5.25 37.0416 5.56875 37.722 6 38.3078H4.00313C3.45 38.3078 3 38.7614 3 39.3189C3 39.8764 3.45 40.33 4.00313 40.33H10.0031H10.0125C12.4219 40.33 14.4375 38.5913 14.9062 36.2951H29.0062H33.1031C33.2531 37.0416 33.5719 37.722 34.0031 38.3078H31.9969C31.4437 38.3078 30.9938 38.7614 30.9938 39.3189C30.9938 39.8764 31.4437 40.33 31.9969 40.33H37.9969H38.0062C40.4156 40.33 42.4313 38.5913 42.9 36.2951H46.9969C47.55 36.2951 48 35.8416 48 35.2841V26.2128V22.1779C48 19.1825 45.8344 16.6974 43.0031 16.2155ZM46.0031 22.1779V25.2017H39V18.1431H42C44.2031 18.1431 46.0031 19.9479 46.0031 22.1779ZM34.9969 25.2017V18.1431H36.9938V25.2017H34.9969ZM24 4.03534V6.04804H15.4125L13.4156 4.03534H24ZM9 2.43842L10.2938 3.74242L12.5906 6.04804H5.41875L9 2.43842ZM1.99687 18.1431H6C6.55312 18.1431 7.00312 17.6895 7.00312 17.132C7.00312 16.5745 6.55312 16.121 6 16.121H1.99687V14.1083H13.9969C14.55 14.1083 15 13.6547 15 13.0972C15 12.5397 14.55 12.0861 13.9969 12.0861H1.99687V8.06073H3H28.0031V13.0972V30.2382H21.2062C20.6531 30.2382 20.2031 30.6917 20.2031 31.2492C20.2031 31.8067 20.6531 32.2603 21.2062 32.2603H28.0031V34.273H14.8969C14.4281 31.9768 12.4125 30.2382 9.99375 30.2382C7.575 30.2382 5.55937 31.9768 5.09062 34.273H1.99687V18.1431ZM10.0031 38.2984C8.35312 38.2984 7.00312 36.9377 7.00312 35.2746C7.00312 33.6115 8.35312 32.2509 10.0031 32.2509C11.6531 32.2509 13.0031 33.6115 13.0031 35.2746C13.0031 36.9471 11.6531 38.2984 10.0031 38.2984ZM30 32.2509H34.0031C33.5625 32.8367 33.2531 33.5265 33.1031 34.2635H30V32.2509ZM37.9969 38.2984C36.3469 38.2984 34.9969 36.9377 34.9969 35.2746C34.9969 33.6115 36.3375 32.2509 37.9875 32.2509H37.9969C39.6469 32.2509 40.9969 33.6021 40.9969 35.2746C40.9969 36.9471 39.6562 38.2984 37.9969 38.2984ZM46.0031 34.273H42.9C42.4313 31.9768 40.4156 30.2382 37.9969 30.2382H37.9875H30V14.1083H40.0031C40.5563 14.1083 41.0062 14.5618 41.0062 15.1193V16.1304H34.0031C33.45 16.1304 33 16.584 33 17.1415V26.2128C33 26.7703 33.45 27.2238 34.0031 27.2238H46.0031V34.273Z" fill="#24C708"/>
<path d="M17.2875 32.2503H17.9157C18.4688 32.2503 18.9188 31.7968 18.9188 31.2393C18.9188 30.6817 18.4688 30.2282 17.9157 30.2282H17.2875C16.7344 30.2282 16.2844 30.6817 16.2844 31.2393C16.2844 31.7968 16.7344 32.2503 17.2875 32.2503Z" fill="#24C708"/>
<path d="M17.2875 14.1077H17.9157C18.4688 14.1077 18.9188 13.6542 18.9188 13.0967C18.9188 12.5392 18.4688 12.0856 17.9157 12.0856H17.2875C16.7344 12.0856 16.2844 12.5392 16.2844 13.0967C16.2844 13.6542 16.7344 14.1077 17.2875 14.1077Z" fill="#24C708"/>
</svg>
