<svg width="52" height="52" viewBox="0 0 52 52" fill="none" xmlns="http://www.w3.org/2000/svg">
<path d="M26 1C12.25 1 1 12.25 1 26C1 39.75 12.25 51 26 51C39.75 51 51 39.75 51 26C51 12.25 39.75 1 26 1ZM26 49.3333C13.0833 49.3333 2.66667 38.9167 2.66667 26C2.66667 13.0833 13.0833 2.66667 26 2.66667C38.9167 2.66667 49.3333 13.0833 49.3333 26C49.3333 38.9167 38.9167 49.3333 26 49.3333Z" fill="#24C708" stroke="#24C708" stroke-width="0.5"/>
<path d="M26.8333 22.6667V14.2292C26.8333 13.8125 26.4167 13.3958 26 13.3958C25.5833 13.3958 25.1667 13.8125 25.1667 14.2292V22.6667C24.0208 22.9792 23.0833 23.9167 22.7708 25.0625H16.8333C16.4167 25.0625 16 25.4792 16 25.8958C16 26.3125 16.4167 26.7292 16.8333 26.7292H22.7708C23.1875 28.1875 24.4375 29.2292 26 29.2292C27.875 29.2292 29.3333 27.7708 29.3333 25.8958C29.3333 24.3333 28.2917 23.0833 26.8333 22.6667ZM26 27.5625C25.0625 27.5625 24.3333 26.8333 24.3333 25.8958C24.3333 24.9583 25.0625 24.2292 26 24.2292C26.9375 24.2292 27.6667 24.9583 27.6667 25.8958C27.6667 26.8333 26.9375 27.5625 26 27.5625Z" fill="#24C708" stroke="#24C708" stroke-width="0.5"/>
<path d="M26.0001 9.22916C26.4167 9.22916 26.8334 8.81249 26.8334 8.39582V7.56249C26.8334 7.14582 26.4167 6.72916 26.0001 6.72916C25.5834 6.72916 25.1667 7.14582 25.1667 7.56249V8.39582C25.1667 8.81249 25.5834 9.22916 26.0001 9.22916Z" fill="#24C708" stroke="#24C708" stroke-width="0.5"/>
<path d="M26.0001 42.5625C25.5834 42.5625 25.1667 42.9792 25.1667 43.3958V44.2292C25.1667 44.6458 25.5834 45.0625 26.0001 45.0625C26.4167 45.0625 26.8334 44.6458 26.8334 44.2292V43.3958C26.8334 42.9792 26.4167 42.5625 26.0001 42.5625Z" fill="#24C708" stroke="#24C708" stroke-width="0.5"/>
<path d="M44.3334 25.0625H43.5001C43.0834 25.0625 42.6667 25.4792 42.6667 25.8958C42.6667 26.3125 43.0834 26.7292 43.5001 26.7292H44.3334C44.7501 26.7292 45.1668 26.3125 45.1668 25.8958C45.1668 25.4792 44.7501 25.0625 44.3334 25.0625Z" fill="#24C708" stroke="#24C708" stroke-width="0.5"/>
<path d="M8.49992 25.0625H7.66659C7.24992 25.0625 6.83325 25.4792 6.83325 25.8958C6.83325 26.3125 7.24992 26.7292 7.66659 26.7292H8.49992C8.91659 26.7292 9.33325 26.3125 9.33325 25.8958C9.33325 25.4792 8.91659 25.0625 8.49992 25.0625Z" fill="#24C708" stroke="#24C708" stroke-width="0.5"/>
<path d="M38.3958 12.3542L37.7708 12.9792C37.4583 13.2917 37.4583 13.8125 37.7708 14.125C37.9791 14.3333 38.1874 14.3333 38.3958 14.3333C38.6041 14.3333 38.8124 14.2292 39.0208 14.125L39.5416 13.5C39.8541 13.1875 39.8541 12.6667 39.5416 12.3542C39.2291 12.0417 38.7083 12.0417 38.3958 12.3542Z" fill="#24C708" stroke="#24C708" stroke-width="0.5"/>
<path d="M13.0833 37.6667L12.4583 38.2917C12.1458 38.6042 12.1458 39.125 12.4583 39.4375C12.6666 39.6458 12.8749 39.6458 13.0833 39.6458C13.2916 39.6458 13.4999 39.5417 13.7083 39.4375L14.3333 38.8125C14.6458 38.5 14.6458 37.9792 14.3333 37.6667C13.9166 37.3542 13.3958 37.3542 13.0833 37.6667Z" fill="#24C708" stroke="#24C708" stroke-width="0.5"/>
<path d="M38.9166 37.6667C38.6041 37.3542 38.0833 37.3542 37.7708 37.6667C37.4583 37.9792 37.4583 38.5 37.7708 38.8125L38.3958 39.4375C38.6041 39.6458 38.8124 39.6458 39.0208 39.6458C39.2291 39.6458 39.4374 39.5417 39.6458 39.4375C39.9583 39.125 39.9583 38.6042 39.6458 38.2917L38.9166 37.6667Z" fill="#24C708" stroke="#24C708" stroke-width="0.5"/>
<path d="M13.6041 12.3542C13.2916 12.0417 12.7708 12.0417 12.4583 12.3542C12.1458 12.6667 12.1458 13.1875 12.4583 13.5L13.0833 14.125C13.2916 14.3333 13.4999 14.3333 13.7083 14.3333C13.9166 14.3333 14.1249 14.2292 14.3333 14.125C14.6458 13.8125 14.6458 13.2917 14.3333 12.9792L13.6041 12.3542Z" fill="#24C708" stroke="#24C708" stroke-width="0.5"/>
</svg>
