<svg width="32" height="49" viewBox="0 0 32 49" fill="none" xmlns="http://www.w3.org/2000/svg">
<g clip-path="url(#clip0)">
<path fill-rule="evenodd" clip-rule="evenodd" d="M31.9905 9.57794C31.9905 9.56838 31.9905 9.55882 31.9905 9.54926C31.9905 9.51103 31.981 9.46323 31.9715 9.425C31.962 9.38676 31.9525 9.34853 31.943 9.31029C31.943 9.30074 31.9335 9.29118 31.9335 9.28162C31.924 9.24338 31.905 9.20515 31.8861 9.17647C31.8861 9.17647 31.8861 9.17647 31.8861 9.16691C31.8671 9.12868 31.8481 9.1 31.8196 9.06176C31.8101 9.05221 31.8101 9.04265 31.8006 9.03309C31.7721 8.99485 31.7437 8.96618 31.7152 8.9375L23.1243 0.277206C23.0958 0.248529 23.0578 0.219853 23.0294 0.191176C23.0199 0.181618 23.0104 0.181618 23.0009 0.172059C22.9629 0.143382 22.9344 0.124265 22.8965 0.105147H22.887C22.849 0.0860294 22.8205 0.0764706 22.7825 0.0573529C22.773 0.0573529 22.7636 0.0477941 22.7541 0.0477941C22.7161 0.0382353 22.6781 0.0191176 22.6401 0.0191176C22.6022 0.00955882 22.5642 0.00955882 22.5167 0C22.5072 0 22.4978 0 22.4883 0C22.4788 0 22.4693 0 22.4598 0H0.949272C0.427173 0 0 0.430147 0 0.955882V41.8676C0 42.3934 0.427173 42.8235 0.949272 42.8235H15.2453V47.9853C15.2453 48.3294 15.4352 48.6544 15.7389 48.8169C16.0427 48.989 16.4129 48.9794 16.7072 48.7882L20.3239 46.5037L23.9407 48.7882C24.0925 48.8838 24.2729 48.9316 24.4438 48.9316C24.6051 48.9316 24.757 48.8934 24.8994 48.8169C25.2032 48.6449 25.393 48.3294 25.393 47.9757V42.814H31.0602C31.5823 42.814 32.0095 42.3838 32.0095 41.8581V9.60662C32 9.59706 31.9905 9.5875 31.9905 9.57794ZM23.4091 3.25956L28.7535 8.64118H23.4091V3.25956ZM14.7707 29.5272C14.7042 29.3456 14.5998 29.0493 14.5903 28.925C14.6663 28.8294 14.9226 28.6669 15.0839 28.5713C15.4257 28.3515 15.8054 28.1125 16.0807 27.7301C16.3655 27.3478 16.4794 26.8985 16.5743 26.5066C16.6218 26.3346 16.6882 26.0574 16.7547 25.9522C16.7926 25.9426 16.8591 25.9331 16.992 25.9331C17.0964 25.9331 17.2198 25.9426 17.3432 25.9426C17.4856 25.9522 17.6375 25.9618 17.7894 25.9618C18.1311 25.9618 18.4064 25.9235 18.6532 25.8375C19.0899 25.6941 19.4411 25.4074 19.7449 25.1588C19.9157 25.025 20.2005 24.786 20.3049 24.7765C20.4094 24.786 20.6941 25.025 20.865 25.1588C21.1688 25.4074 21.52 25.6941 21.9567 25.8375C22.2035 25.9235 22.4788 25.9618 22.8205 25.9618C22.9724 25.9618 23.1243 25.9522 23.2667 25.9426C23.3901 25.9331 23.5135 25.9331 23.6179 25.9331C23.7508 25.9331 23.8172 25.9426 23.8552 25.9522C23.9122 26.0574 23.9881 26.3346 24.0356 26.5066C24.14 26.8985 24.2539 27.3478 24.5292 27.7301C24.8045 28.1125 25.1937 28.3515 25.5259 28.5713C25.6873 28.6765 25.9436 28.839 26.0101 28.925C26.0101 29.0493 25.8962 29.3456 25.8297 29.5272C25.6873 29.9191 25.5259 30.3493 25.5259 30.8368C25.5259 31.3243 25.6873 31.764 25.8297 32.1463C25.8962 32.3279 26.0006 32.6243 26.0101 32.7485C25.9341 32.8441 25.6778 33.0066 25.5259 33.1022C25.1842 33.3221 24.8045 33.561 24.5292 33.9434C24.2444 34.3257 24.1305 34.775 24.0356 35.1669C23.9881 35.339 23.9217 35.6162 23.8552 35.7213C23.8172 35.7309 23.7508 35.7404 23.6179 35.7404C23.5135 35.7404 23.3901 35.7309 23.2667 35.7309C23.1243 35.7213 22.9724 35.7118 22.8205 35.7118C22.4788 35.7118 22.2035 35.75 21.9567 35.836C21.52 35.9794 21.1688 36.2662 20.865 36.5147C20.6941 36.6485 20.4188 36.8779 20.3049 36.8971C20.191 36.8779 19.9157 36.6485 19.7449 36.5147C19.4316 36.2662 19.0899 35.9794 18.6532 35.836C18.4064 35.75 18.1311 35.7118 17.7894 35.7118C17.6375 35.7118 17.4856 35.7213 17.3432 35.7309C17.2198 35.7404 17.0964 35.7404 16.992 35.7404C16.8591 35.7404 16.7926 35.7309 16.7547 35.7213C16.6977 35.6162 16.6218 35.339 16.5743 35.1669C16.4699 34.775 16.356 34.3257 16.0807 33.9434C15.8054 33.561 15.4162 33.3221 15.0839 33.1022C14.9226 33.0066 14.6663 32.8346 14.5998 32.7485C14.5998 32.6243 14.7137 32.3279 14.7802 32.1463C14.9226 31.7544 15.0839 31.3243 15.0839 30.8368C15.0744 30.3493 14.9131 29.9096 14.7707 29.5272ZM23.485 46.2551L20.8175 44.5728C20.5138 44.3816 20.1151 44.3816 19.8113 44.5728L17.1439 46.2551V37.6522C17.2483 37.6522 17.3432 37.6426 17.4381 37.6426C17.5615 37.6331 17.6849 37.6331 17.7894 37.6331C17.9602 37.6331 18.0267 37.6522 18.0552 37.6618C18.1691 37.7 18.3874 37.8721 18.5583 38.0154C19.0044 38.3787 19.555 38.8184 20.3049 38.8184C21.0644 38.8184 21.6149 38.3691 22.0516 38.0154C22.2225 37.8721 22.4408 37.7 22.5547 37.6618C22.5832 37.6522 22.6591 37.6331 22.8205 37.6331C22.9249 37.6331 23.0483 37.6426 23.1717 37.6426C23.2667 37.6522 23.3711 37.6522 23.466 37.6522L23.485 46.2551ZM25.3835 40.9118V36.8779C25.6683 36.4956 25.7822 36.0368 25.8867 35.6449C25.9436 35.4441 26.0101 35.1574 26.0765 35.0713C26.143 34.9853 26.3803 34.8324 26.5606 34.7176C27.0258 34.4213 27.6048 34.0485 27.8422 33.3507C28.07 32.6625 27.8327 32.0125 27.6428 31.4868C27.5574 31.2478 27.4625 30.9801 27.4625 30.8272C27.4625 30.6838 27.5574 30.4066 27.6428 30.1772C27.8327 29.6515 28.07 29.0015 27.8422 28.3132C27.6143 27.6154 27.0258 27.2426 26.5606 26.9463C26.3803 26.8316 26.143 26.6787 26.0765 26.5926C26.0101 26.5066 25.9436 26.2199 25.8867 26.0191C25.7538 25.4838 25.5829 24.8243 24.9943 24.3941C24.5292 24.05 23.9976 24.0118 23.6369 24.0118C23.485 24.0118 23.3331 24.0213 23.1907 24.0309C23.0673 24.0404 22.9439 24.0404 22.8395 24.0404C22.6686 24.0404 22.6022 24.0213 22.5737 24.0118C22.4598 23.9735 22.2415 23.8015 22.0706 23.6581C21.6244 23.2949 21.0738 22.8551 20.3239 22.8551C19.5645 22.8551 19.0139 23.3044 18.5773 23.6581C18.4064 23.8015 18.1881 23.9735 18.0741 24.0118C18.0457 24.0213 17.9697 24.0404 17.8084 24.0404C17.7039 24.0404 17.5805 24.0309 17.4571 24.0309C17.3147 24.0213 17.1628 24.0118 17.011 24.0118C16.6502 24.0118 16.1092 24.05 15.6535 24.3941C15.0744 24.8243 14.9036 25.4838 14.7612 26.0191C14.7042 26.2199 14.6378 26.4971 14.5713 26.5926C14.5049 26.6787 14.2676 26.8316 14.0872 26.9463C13.6221 27.2426 13.043 27.6154 12.8057 28.3132C12.5779 29.0015 12.8152 29.6515 13.005 30.1772C13.0905 30.4162 13.1854 30.6838 13.1854 30.8272C13.1854 30.9706 13.0905 31.2478 13.005 31.4868C12.8152 32.0125 12.5779 32.6625 12.8057 33.3507C13.0335 34.0485 13.6221 34.4213 14.0872 34.7176C14.2676 34.8324 14.5049 34.9853 14.5713 35.0713C14.6378 35.1574 14.7042 35.4441 14.7612 35.6449C14.8656 36.0368 14.9795 36.486 15.2643 36.8779V40.9118H1.89854V1.91176H21.5105V9.60662C21.5105 10.1324 21.9377 10.5625 22.4598 10.5625H30.1014V40.9118H25.3835Z" fill="#24C708"/>
<path fill-rule="evenodd" clip-rule="evenodd" d="M5.59112 10.5625H17.8178C18.3399 10.5625 18.767 10.1323 18.767 9.60661C18.767 9.08087 18.3399 8.65073 17.8178 8.65073H5.59112C5.06902 8.65073 4.64185 9.08087 4.64185 9.60661C4.64185 10.1323 5.05953 10.5625 5.59112 10.5625Z" fill="#24C708"/>
<path fill-rule="evenodd" clip-rule="evenodd" d="M26.5131 13.4779H5.59112C5.06902 13.4779 4.64185 13.9081 4.64185 14.4338C4.64185 14.9596 5.06902 15.3897 5.59112 15.3897H26.5131C27.0352 15.3897 27.4624 14.9596 27.4624 14.4338C27.4624 13.8985 27.0352 13.4779 26.5131 13.4779Z" fill="#24C708"/>
<path fill-rule="evenodd" clip-rule="evenodd" d="M22.716 18.2956H5.59112C5.06902 18.2956 4.64185 18.7257 4.64185 19.2515C4.64185 19.7772 5.06902 20.2074 5.59112 20.2074H22.716C23.2381 20.2074 23.6653 19.7772 23.6653 19.2515C23.6653 18.7257 23.2381 18.2956 22.716 18.2956Z" fill="#24C708"/>
<path fill-rule="evenodd" clip-rule="evenodd" d="M26.5132 18.2956C25.9911 18.2956 25.564 18.7257 25.564 19.2515C25.564 19.7772 25.9911 20.2074 26.5132 20.2074C27.0353 20.2074 27.4625 19.7772 27.4625 19.2515C27.4625 18.7257 27.0353 18.2956 26.5132 18.2956Z" fill="#24C708"/>
</g>
<defs>
<clipPath id="clip0">
<rect width="32" height="48.9412" fill="white"/>
</clipPath>
</defs>
</svg>
