<svg width="39" height="49" viewBox="0 0 39 49" fill="none" xmlns="http://www.w3.org/2000/svg">
<path d="M19.0045 6.02436C19.5577 6.02436 20.0077 5.57253 20.0077 5.01715C20.0077 4.46178 19.5577 4.00995 19.0045 4.00995C12.629 4.00995 7.05982 8.33057 5.45656 14.515C5.31592 15.0515 5.6347 15.5975 6.16912 15.7387C6.2535 15.7575 6.33788 15.7669 6.42226 15.7669C6.86292 15.7669 7.27546 15.4657 7.38797 15.0139C8.75683 9.72371 13.5385 6.02436 19.0045 6.02436Z" fill="#24C708"/>
<path d="M6.05668 16.4824C5.50351 16.4541 5.03472 16.8871 5.01597 17.4425C5.00659 17.6496 5.00659 17.8661 5.00659 18.0732C5.00659 18.6286 5.45663 19.0804 6.0098 19.0804C6.56297 19.0804 7.01301 18.6286 7.01301 18.0732C7.01301 17.8943 7.01301 17.7155 7.02239 17.5367C7.04114 16.9813 6.60985 16.5106 6.05668 16.4824Z" fill="#24C708"/>
<path d="M18.0015 31.1292C18.0015 31.6845 18.4515 32.1364 19.0047 32.1364C25.3802 32.1364 30.9494 27.8157 32.5527 21.6313C32.6933 21.0948 32.3745 20.5488 31.8401 20.4076C31.3057 20.2664 30.7619 20.5865 30.6212 21.123C29.243 26.4226 24.4707 30.122 19.0047 30.122C18.4515 30.122 18.0015 30.5738 18.0015 31.1292Z" fill="#24C708"/>
<path d="M31.9434 19.664C31.9621 19.664 31.9715 19.664 31.9903 19.664C32.5247 19.664 32.9653 19.2404 32.9841 18.7039C32.9935 18.4968 32.9935 18.2803 32.9935 18.0732C32.9935 17.5178 32.5434 17.066 31.9903 17.066C31.4371 17.066 30.9871 17.5178 30.9871 18.0732C30.9871 18.252 30.9871 18.4309 30.9777 18.6097C30.9683 19.1651 31.3902 19.6358 31.9434 19.664Z" fill="#24C708"/>
<path d="M37.8744 40.2599L32.1833 30.3667C35.1742 27.138 37.0025 22.8174 37.0025 18.0732C37.0025 8.10469 28.9299 0 19.001 0C9.07205 0 0.999516 8.10469 0.999516 18.0732C0.999516 22.8174 2.82779 27.138 5.81866 30.3667L0.136946 40.2599C-0.0693213 40.6082 -0.041194 41.0506 0.211952 41.3706C0.455722 41.6907 0.877631 41.8319 1.26204 41.7283L9.04392 39.6386L11.1253 47.4515C11.2285 47.8468 11.5566 48.1386 11.9598 48.1857C12.0067 48.1951 12.0442 48.1951 12.091 48.1951C12.4473 48.1951 12.7755 48.0069 12.9536 47.6962L19.001 37.163L25.0577 47.6962C25.2359 48.0069 25.5734 48.1951 25.9203 48.1951C25.9672 48.1951 26.0047 48.1951 26.0516 48.1857C26.4547 48.1292 26.7829 47.8468 26.886 47.4515L28.9674 39.6386L36.7493 41.7283C37.1431 41.8319 37.5556 41.6907 37.7994 41.3706C38.0525 41.0506 38.0807 40.6176 37.8744 40.2599ZM19.0104 2.00499C27.833 2.00499 35.0148 9.21544 35.0148 18.0732C35.0148 26.9309 27.833 34.1414 19.0104 34.1414C10.1878 34.1414 3.00593 26.9309 3.00593 18.0732C3.00593 9.21544 10.1878 2.00499 19.0104 2.00499ZM12.4286 44.5899L10.7128 38.1607C10.5722 37.6242 10.019 37.3042 9.48458 37.4548L3.07156 39.1774L7.31878 31.8069C10.0659 34.1696 13.5255 35.7133 17.3227 36.071L12.4286 44.5899ZM28.5268 37.4454C27.9923 37.3042 27.4486 37.6242 27.2985 38.1513L25.5828 44.5899L20.6793 36.071C24.4858 35.7133 27.9455 34.1696 30.7019 31.8069L34.9398 39.168L28.5268 37.4454Z" fill="#24C708"/>
<path d="M21.2578 24H18.7617V14.2266L16.3271 15.167V13.0928L20.9941 11.1855H21.2578V24Z" fill="#24C708"/>
</svg>
