<svg width="50" height="50" viewBox="0 0 50 50" fill="none" xmlns="http://www.w3.org/2000/svg">
<path d="M43.7636 1C40.8758 1 38.5273 3.34851 38.5273 6.23636C38.5273 7.13964 38.7568 7.98967 39.1609 8.73236L30.5828 17.3104C29.4003 16.3897 27.9201 15.8364 26.3091 15.8364C24.698 15.8364 23.2179 16.3897 22.0345 17.3095L15.3415 10.6166C15.6487 10.0973 15.8364 9.50036 15.8364 8.85455C15.8364 6.92931 14.2707 5.36364 12.3455 5.36364C10.4202 5.36364 8.85455 6.92931 8.85455 8.85455C8.85455 10.7798 10.4202 12.3455 12.3455 12.3455C12.9913 12.3455 13.5882 12.1578 14.1075 11.8506L20.8004 18.5436C19.8806 19.727 19.3273 21.2071 19.3273 22.8182C19.3273 24.4292 19.8806 25.9094 20.8004 27.0919L9.74822 38.145C8.81789 37.3011 7.58822 36.7818 6.23636 36.7818C3.34851 36.7818 1 39.1303 1 42.0182C1 44.906 3.34851 47.2545 6.23636 47.2545C9.12422 47.2545 11.4727 44.906 11.4727 42.0182C11.4727 41.1149 11.2432 40.2649 10.8391 39.5222L22.0353 28.326C23.0006 29.0765 24.1648 29.5792 25.4372 29.7389V38.6058C22.9648 39.023 21.0736 41.1734 21.0736 43.7636C21.0736 46.6515 23.4221 49 26.31 49C29.1978 49 31.5463 46.6515 31.5463 43.7636C31.5463 41.1743 29.6551 39.0239 27.1827 38.6058V29.7389C28.4551 29.5792 29.6193 29.0765 30.5846 28.326L37.2775 35.0189C36.9695 35.5391 36.7818 36.136 36.7818 36.7818C36.7818 38.7071 38.3475 40.2727 40.2727 40.2727C42.198 40.2727 43.7636 38.7071 43.7636 36.7818C43.7636 34.8566 42.198 33.2909 40.2727 33.2909C39.6269 33.2909 39.03 33.4785 38.5107 33.7857L31.8177 27.0928C32.7376 25.9094 33.2909 24.4292 33.2909 22.8182C33.2909 21.2071 32.7376 19.727 31.8177 18.5444L40.2527 10.1095C41.1821 10.9535 42.4118 11.4727 43.7636 11.4727C46.6515 11.4727 49 9.12422 49 6.23636C49 3.34851 46.6515 1 43.7636 1ZM10.6 8.85455C10.6 7.89193 11.3828 7.10909 12.3455 7.10909C13.3081 7.10909 14.0909 7.89193 14.0909 8.85455C14.0909 9.81716 13.3081 10.6 12.3455 10.6C11.3828 10.6 10.6 9.81716 10.6 8.85455ZM6.23636 45.5091C4.31113 45.5091 2.74545 43.9434 2.74545 42.0182C2.74545 40.0929 4.31113 38.5273 6.23636 38.5273C8.1616 38.5273 9.72727 40.0929 9.72727 42.0182C9.72727 43.9434 8.1616 45.5091 6.23636 45.5091ZM29.8 43.7636C29.8 45.6889 28.2343 47.2545 26.3091 47.2545C24.3839 47.2545 22.8182 45.6889 22.8182 43.7636C22.8182 41.8384 24.3839 40.2727 26.3091 40.2727C28.2343 40.2727 29.8 41.8384 29.8 43.7636ZM26.3091 28.0545C23.4212 28.0545 21.0727 25.706 21.0727 22.8182C21.0727 19.9303 23.4212 17.5818 26.3091 17.5818C29.1969 17.5818 31.5455 19.9303 31.5455 22.8182C31.5455 25.706 29.1969 28.0545 26.3091 28.0545ZM42.0182 36.7818C42.0182 37.7444 41.2353 38.5273 40.2727 38.5273C39.3101 38.5273 38.5273 37.7444 38.5273 36.7818C38.5273 35.8192 39.3101 35.0364 40.2727 35.0364C41.2353 35.0364 42.0182 35.8192 42.0182 36.7818ZM43.7636 9.72727C41.8384 9.72727 40.2727 8.1616 40.2727 6.23636C40.2727 4.31113 41.8384 2.74545 43.7636 2.74545C45.6889 2.74545 47.2545 4.31113 47.2545 6.23636C47.2545 8.1616 45.6889 9.72727 43.7636 9.72727Z" fill="#24C708" stroke="#24C708" stroke-width="0.5"/>
</svg>
