<svg width="24" height="24" viewBox="0 0 24 24" fill="none" xmlns="http://www.w3.org/2000/svg">
<path d="M23.9016 14.6531L19.8563 7.9125L23.4844 6.90469C23.8594 6.80156 24.0797 6.4125 23.9719 6.0375C23.8687 5.6625 23.4797 5.44219 23.1047 5.55L18.5953 6.80156L12.7031 8.4375V0.703125C12.7031 0.314062 12.3891 0 12 0C11.6109 0 11.2969 0.314062 11.2969 0.703125V8.83125L5.04375 10.5703L0.515625 11.8219C0.140625 11.925 -0.0796875 12.3141 0.028125 12.6891C0.1125 12.9984 0.398438 13.2047 0.703125 13.2047C0.764063 13.2047 0.829687 13.1953 0.890625 13.1766L3.7125 12.3937L0.0984375 18.4172C0.0328125 18.525 0 18.6516 0 18.7781C0 21.6562 2.34375 24 5.22188 24C8.1 24 10.4438 21.6562 10.4438 18.7781C10.4438 18.6516 10.4109 18.525 10.3453 18.4172L6.3 11.6766L17.2687 8.62969L13.6547 14.6484C13.5891 14.7563 13.5563 14.8828 13.5563 15.0094C13.5563 17.8875 15.9 20.2313 18.7781 20.2313C20.175 20.2313 21.4828 19.6875 22.4719 18.7031C23.4562 17.7188 24 16.4062 24 15.0094C24 14.8828 23.9672 14.7609 23.9016 14.6531ZM5.22188 12.6141L8.49844 18.075H1.94531L5.22188 12.6141ZM5.22188 22.5938C3.35625 22.5938 1.80469 21.2484 1.47187 19.4813H8.97187C8.63906 21.2484 7.0875 22.5938 5.22188 22.5938ZM22.0547 14.3109H15.5016L18.7781 8.85L22.0547 14.3109ZM18.7781 18.8297C16.9125 18.8297 15.3609 17.4844 15.0281 15.7172H22.5281C22.1953 17.4844 20.6438 18.8297 18.7781 18.8297Z" fill="#33C11C"/>
</svg>
