<svg width="46" height="46" viewBox="0 0 46 46" fill="none" xmlns="http://www.w3.org/2000/svg">
<path d="M37.6448 44.8132L35.3919 38.165C35.2684 37.8002 34.9261 37.5548 34.541 37.5548H34.4103V24.5266C34.4103 18.2352 29.2919 13.1167 23.0004 13.1167C16.7089 13.1167 11.5905 18.2351 11.5905 24.5266V37.5548H11.4598C11.0747 37.5548 10.7324 37.8002 10.6089 38.165L8.35615 44.8132C8.26316 45.0875 8.30817 45.3897 8.4769 45.625C8.64563 45.8603 8.9174 46 9.20706 46H36.7939C37.0835 46 37.3553 45.8603 37.524 45.625C37.6927 45.3897 37.7378 45.0875 37.6448 44.8132ZM13.3874 24.5267C13.3874 19.2261 17.6998 14.9137 23.0004 14.9137C28.301 14.9137 32.6134 19.2261 32.6134 24.5267V37.5549H13.3874V24.5267ZM10.4601 44.2032L12.104 39.3518H33.8968L35.5407 44.2032H10.4601Z" fill="#638ECE"/>
<path d="M23 0C22.5039 0 22.1016 0.40232 22.1016 0.898437V6.28897C22.1016 6.78509 22.5038 7.18741 23 7.18741C23.4961 7.18741 23.8984 6.78509 23.8984 6.28897V0.898437C23.8984 0.40232 23.4961 0 23 0Z" fill="#638ECE"/>
<path d="M23.6351 9.1537C23.4681 8.98659 23.2363 8.89136 23 8.89136C22.7637 8.89136 22.5319 8.98659 22.3648 9.1537C22.1977 9.32171 22.1016 9.55252 22.1016 9.7898C22.1016 10.0261 22.1976 10.257 22.3648 10.425C22.5319 10.592 22.7637 10.6873 23 10.6873C23.2363 10.6873 23.4681 10.592 23.6351 10.425C23.8022 10.257 23.8984 10.0261 23.8984 9.7898C23.8984 9.55252 23.8023 9.32171 23.6351 9.1537Z" fill="#638ECE"/>
<path d="M8.58043 24.0474H4.45508C3.95896 24.0474 3.55664 24.4497 3.55664 24.9458C3.55664 25.4419 3.95896 25.8442 4.45508 25.8442H8.58052C9.07664 25.8442 9.47896 25.4419 9.47896 24.9458C9.47896 24.4497 9.07655 24.0474 8.58043 24.0474Z" fill="#638ECE"/>
<path d="M1.53452 24.3106C1.3675 24.1434 1.1357 24.0474 0.899414 24.0474C0.663125 24.0474 0.431328 24.1434 0.264219 24.3106C0.0971094 24.4778 0.000976562 24.7095 0.000976562 24.9458C0.000976562 25.1821 0.0970195 25.4139 0.264219 25.5809C0.431328 25.748 0.663125 25.8442 0.899414 25.8442C1.1357 25.8442 1.3675 25.7481 1.53452 25.5809C1.70163 25.4139 1.79785 25.1821 1.79785 24.9458C1.79785 24.7095 1.70163 24.4777 1.53452 24.3106Z" fill="#638ECE"/>
<path d="M16.9514 7.99495L15.7336 5.05517C15.5437 4.59679 15.0182 4.37946 14.5597 4.56894C14.1013 4.75887 13.8837 5.28445 14.0735 5.74284L15.2912 8.68261C15.4346 9.0286 15.7691 9.23749 16.1217 9.23749C16.2362 9.23749 16.3527 9.21539 16.4651 9.16885C16.9236 8.97883 17.1412 8.45324 16.9514 7.99495Z" fill="#638ECE"/>
<path d="M6.73599 17.2371L3.79621 16.0193C3.33765 15.8299 2.81224 16.0473 2.62231 16.5056C2.43247 16.964 2.65016 17.4895 3.10854 17.6795L6.04832 18.8972C6.16081 18.9437 6.27724 18.9658 6.39179 18.9658C6.74434 18.9658 7.07883 18.757 7.22222 18.411C7.41206 17.9525 7.19437 17.427 6.73599 17.2371Z" fill="#638ECE"/>
<path d="M41.9194 24.0474H37.7939C37.2978 24.0474 36.8955 24.4497 36.8955 24.9458C36.8955 25.4419 37.2978 25.8442 37.7939 25.8442H41.9194C42.4155 25.8442 42.8178 25.4419 42.8178 24.9458C42.8178 24.4497 42.4155 24.0474 41.9194 24.0474Z" fill="#638ECE"/>
<path d="M45.7357 24.3106C45.5687 24.1435 45.3369 24.0474 45.1006 24.0474C44.8643 24.0474 44.6325 24.1434 44.4654 24.3106C44.2983 24.4778 44.2021 24.7095 44.2021 24.9458C44.2021 25.1821 44.2982 25.4139 44.4654 25.5809C44.6325 25.748 44.8643 25.8442 45.1006 25.8442C45.3369 25.8442 45.5687 25.7481 45.7357 25.5809C45.9028 25.4139 45.999 25.1821 45.999 24.9458C45.999 24.7095 45.9029 24.4777 45.7357 24.3106Z" fill="#638ECE"/>
<path d="M40.7659 7.17932C40.415 6.82857 39.8463 6.82857 39.4952 7.17932L35.0747 11.6C34.7238 11.9508 34.7238 12.5197 35.0747 12.8706C35.2502 13.0461 35.4801 13.1338 35.71 13.1338C35.94 13.1338 36.1699 13.046 36.3453 12.8706L40.7659 8.44998C41.1166 8.09914 41.1166 7.53025 40.7659 7.17932Z" fill="#638ECE"/>
<path d="M10.9251 11.6001L6.50449 7.17957C6.15356 6.82882 5.58485 6.82882 5.23383 7.17957C4.88299 7.53041 4.88299 8.0993 5.23383 8.45023L9.6545 12.8708C9.82997 13.0462 10.0599 13.134 10.2898 13.134C10.5197 13.134 10.7496 13.0462 10.9251 12.8708C11.2759 12.5199 11.2759 11.951 10.9251 11.6001Z" fill="#638ECE"/>
<path d="M31.4407 4.56889C30.9822 4.3795 30.4567 4.59683 30.2668 5.05512L29.0491 7.9949C28.8592 8.45328 29.0769 8.97878 29.5353 9.16879C29.6478 9.21533 29.7642 9.23744 29.8788 9.23744C30.2313 9.23744 30.5658 9.02855 30.7092 8.68256L31.9269 5.74279C32.1168 5.28422 31.8991 4.75882 31.4407 4.56889Z" fill="#638ECE"/>
<path d="M43.3765 16.5054C43.1866 16.0469 42.6611 15.8296 42.2026 16.0192L39.2629 17.2369C38.8044 17.4269 38.5868 17.9524 38.7766 18.4108C38.92 18.7568 39.2545 18.9657 39.607 18.9657C39.7216 18.9657 39.838 18.9436 39.9505 18.8971L42.8903 17.6793C43.3488 17.4894 43.5664 16.9638 43.3765 16.5054Z" fill="#638ECE"/>
<path d="M22.9999 18.7781C21.5137 18.7781 20.3047 19.9872 20.3047 21.4733V25.7857C20.3047 27.2719 21.5138 28.4809 22.9999 28.4809C24.486 28.4809 25.6951 27.2718 25.6951 25.7857V21.4733C25.6951 19.9872 24.4861 18.7781 22.9999 18.7781ZM23.8983 25.7857C23.8983 26.2811 23.4953 26.6841 22.9999 26.6841C22.5045 26.6841 22.1015 26.2811 22.1015 25.7857V21.4733C22.1015 20.9779 22.5045 20.5749 22.9999 20.5749C23.4953 20.5749 23.8983 20.9779 23.8983 21.4733V25.7857Z" fill="#638ECE"/>
<path d="M22.9999 30.2778C21.5137 30.2778 20.3047 31.4869 20.3047 32.9731C20.3047 34.4592 21.5138 35.6683 22.9999 35.6683C24.486 35.6683 25.6951 34.4592 25.6951 32.9731C25.6951 31.4869 24.4861 30.2778 22.9999 30.2778ZM22.9999 33.8715C22.5045 33.8715 22.1015 33.4685 22.1015 32.9731C22.1015 32.4777 22.5045 32.0746 22.9999 32.0746C23.4953 32.0746 23.8983 32.4777 23.8983 32.9731C23.8983 33.4685 23.4953 33.8715 22.9999 33.8715Z" fill="#638ECE"/>
</svg>
