<svg width="48" height="48" viewBox="0 0 48 48" fill="none" xmlns="http://www.w3.org/2000/svg">
<g clip-path="url(#clip0)">
<path d="M14.9437 29.8969C6.70312 29.8969 0 23.1937 0 14.9437C0 6.69375 6.70312 0 14.9437 0C21.9937 0 28.0312 4.88438 29.5406 11.7C30.7031 11.925 32.1562 11.8687 33.2812 10.7812C33.5719 10.5 34.0125 10.4344 34.3687 10.6219C34.725 10.8094 34.9219 11.2031 34.8656 11.6063C34.2375 15.4875 31.3031 17.7656 29.3812 18.8719C28.5562 21.9188 26.7469 24.6656 24.2719 26.6438C21.5906 28.7719 18.375 29.8969 14.9437 29.8969ZM14.9437 1.875C7.74375 1.875 1.875 7.74375 1.875 14.9437C1.875 22.1437 7.74375 28.0125 14.9437 28.0125C21.0094 28.0125 26.2312 23.8969 27.6562 18.0094C27.7219 17.7469 27.8906 17.5312 28.125 17.4C29.3344 16.7531 31.2281 15.4875 32.2969 13.4437C31.1531 13.7719 29.8594 13.7531 28.4906 13.3688C28.1437 13.275 27.8812 12.9844 27.8156 12.6281C26.7094 6.40312 21.2906 1.875 14.9437 1.875Z" fill="#769CD4"/>
<path d="M35.9529 48C33.2342 48 30.5623 47.0719 28.4435 45.375C26.4654 43.8 25.0217 41.6156 24.3467 39.1875C22.781 38.2781 20.4654 36.4406 19.9685 33.3281C19.9029 32.925 20.0998 32.5312 20.4654 32.3438C20.8217 32.1562 21.2623 32.2219 21.5529 32.5031C22.3498 33.2813 23.3717 33.3469 24.2248 33.2063C25.481 27.7781 30.3185 23.9062 35.9623 23.9062C42.6091 23.9062 48.0091 29.3062 48.0091 35.9531C48.0091 42.6 42.5998 48 35.9529 48ZM22.5842 35.0625C23.4279 36.4125 24.731 37.2844 25.5935 37.7438C25.8279 37.8656 26.006 38.0906 26.0623 38.3531C27.1685 42.9375 31.2279 46.1344 35.9529 46.1344C41.5591 46.1344 46.1248 41.5688 46.1248 35.9625C46.1248 30.3563 41.5591 25.7812 35.9529 25.7812C31.0123 25.7812 26.8029 29.3062 25.9404 34.1531C25.8748 34.5094 25.6123 34.8 25.2654 34.8938C24.3185 35.1563 23.4092 35.2125 22.5842 35.0625Z" fill="#769CD4"/>
<path d="M31.9688 36.9375C31.725 36.9375 31.4812 36.8344 31.3031 36.6656C31.125 36.4969 31.0312 36.2531 31.0312 36C31.0312 35.7469 31.1344 35.5125 31.3031 35.3344C31.4719 35.1562 31.7156 35.0625 31.9688 35.0625C32.2219 35.0625 32.4563 35.1656 32.6344 35.3344C32.8125 35.5031 32.9062 35.7469 32.9062 36C32.9062 36.2531 32.8031 36.4875 32.6344 36.6656C32.4656 36.8438 32.2125 36.9375 31.9688 36.9375Z" fill="#769CD4"/>
<path d="M36 36.9375C35.7563 36.9375 35.5125 36.8344 35.3344 36.6656C35.1562 36.4969 35.0625 36.2531 35.0625 36C35.0625 35.7469 35.1656 35.5125 35.3344 35.3344C35.5031 35.1562 35.7469 35.0625 36 35.0625C36.2531 35.0625 36.4875 35.1656 36.6656 35.3344C36.8438 35.5031 36.9375 35.7469 36.9375 36C36.9375 36.2531 36.8344 36.4875 36.6656 36.6656C36.4969 36.8438 36.2437 36.9375 36 36.9375Z" fill="#769CD4"/>
<path d="M40.0312 36.9375C39.7875 36.9375 39.5437 36.8344 39.3656 36.6656C39.1875 36.4969 39.0938 36.2531 39.0938 36C39.0938 35.7469 39.1969 35.5125 39.3656 35.3344C39.5344 35.1562 39.7781 35.0625 40.0312 35.0625C40.275 35.0625 40.5188 35.1656 40.6969 35.3344C40.875 35.5031 40.9688 35.7469 40.9688 36C40.9688 36.2531 40.8656 36.4875 40.6969 36.6656C40.5281 36.8438 40.275 36.9375 40.0312 36.9375Z" fill="#769CD4"/>
<path d="M20.7375 13.5938H8.15625C7.64062 13.5938 7.21875 13.1719 7.21875 12.6562C7.21875 12.1406 7.64062 11.7188 8.15625 11.7188H20.7375C21.2531 11.7188 21.675 12.1406 21.675 12.6562C21.675 13.1719 21.2531 13.5938 20.7375 13.5938Z" fill="#769CD4"/>
<path d="M16.5 18.0938H8.15625C7.64062 18.0938 7.21875 17.6719 7.21875 17.1562C7.21875 16.6406 7.64062 16.2188 8.15625 16.2188H16.5C17.0156 16.2188 17.4375 16.6406 17.4375 17.1562C17.4375 17.6719 17.0156 18.0938 16.5 18.0938Z" fill="#769CD4"/>
<path d="M20.7373 18.0938C20.4936 18.0938 20.2498 17.9906 20.0717 17.8219C19.8936 17.6438 19.7998 17.4094 19.7998 17.1562C19.7998 16.9031 19.9029 16.6687 20.0717 16.4906C20.2498 16.3125 20.4842 16.2188 20.7373 16.2188C20.9811 16.2188 21.2248 16.3219 21.4029 16.4906C21.5811 16.6594 21.6748 16.9031 21.6748 17.1562C21.6748 17.4094 21.5717 17.6438 21.4029 17.8219C21.2248 17.9906 20.9811 18.0938 20.7373 18.0938Z" fill="#769CD4"/>
</g>
<defs>
<clipPath id="clip0">
<rect width="48" height="48" fill="white"/>
</clipPath>
</defs>
</svg>
