<svg width="10" height="17" viewBox="0 0 10 17" fill="none" xmlns="http://www.w3.org/2000/svg">
<path d="M8.84487 0.00353713L6.64037 0C4.1637 0 2.56316 1.64211 2.56316 4.18372V6.1127H0.346636C0.155102 6.1127 0 6.26798 0 6.45951V9.25438C0 9.44592 0.155279 9.60102 0.346636 9.60102H2.56316V16.6534C2.56316 16.8449 2.71826 17 2.90979 17H5.80173C5.99326 17 6.14836 16.8447 6.14836 16.6534V9.60102H8.73999C8.93153 9.60102 9.08663 9.44592 9.08663 9.25438L9.08769 6.45951C9.08769 6.36755 9.05108 6.27948 8.98618 6.21439C8.92127 6.14931 8.83284 6.1127 8.74088 6.1127H6.14836V4.47748C6.14836 3.69153 6.33565 3.29254 7.35946 3.29254L8.84451 3.29201C9.03587 3.29201 9.19097 3.13673 9.19097 2.94537V0.350176C9.19097 0.158994 9.03605 0.00389085 8.84487 0.00353713Z" fill="#3B5998"/>
</svg>
