<svg width="14" height="17" viewBox="0 0 14 17" fill="none" xmlns="http://www.w3.org/2000/svg">
<path d="M10 0H5C4.45 0 4 0.455921 4 1.01316V10.1316H1C0.45 10.1316 0 10.5875 0 11.1447C0 11.702 0.45 12.1579 1 12.1579H4V15.1974C4 15.7546 4.45 16.2105 5 16.2105C5.55 16.2105 6 15.7546 6 15.1974V12.1579H9C9.55 12.1579 10 11.702 10 11.1447C10 10.5875 9.55 10.1316 9 10.1316H6V8.10526H10C12.2063 8.10526 14 6.28791 14 4.05263C14 1.81735 12.2063 0 10 0ZM10 6.07895H6V2.02632H10C11.1062 2.02632 12 2.93816 12 4.05263C12 5.16711 11.1062 6.07895 10 6.07895Z" fill="white"/>
</svg>
