<svg width="21" height="18" viewBox="0 0 21 18" fill="none" xmlns="http://www.w3.org/2000/svg">
<path d="M19.667 10.4308C19.3399 9.98437 19.1917 9.44152 19.1917 8.88852C19.1917 8.88345 19.1917 8.88345 19.1917 8.87837C19.1917 3.97751 15.185 0 10.2481 0C9.16978 0 8.13232 0.192788 7.17152 0.537776C6.65535 0.72549 6.08296 0.761003 5.55145 0.613876C5.08127 0.481969 4.58043 0.426162 4.05914 0.461675C1.8769 0.608803 0.118843 2.38955 0.00640902 4.55587C-0.049808 5.59084 0.267052 6.55478 0.829221 7.32085C1.1563 7.76731 1.30451 8.31016 1.30451 8.86315C1.30451 8.86823 1.30451 8.86823 1.30451 8.8733C1.30451 13.7742 5.30614 17.7517 10.2481 17.7517C11.3265 17.7517 12.3639 17.5589 13.3247 17.2139C13.8409 17.0262 14.4133 16.9907 14.9448 17.1378C15.415 17.2697 15.9158 17.3255 16.4371 17.29C18.6193 17.1429 20.3774 15.3621 20.4898 13.1958C20.5409 12.1608 20.2241 11.202 19.667 10.4308ZM10.5752 7.28534C12.3793 7.7115 15.1032 8.35582 15.1032 11.3339C15.1032 12.8001 14.3775 13.9213 13.0539 14.4844C12.1084 14.8903 11.0403 14.941 10.1204 14.941C7.29418 14.941 5.50545 12.7595 5.4339 12.6631C4.96884 12.0847 5.06594 11.2476 5.64855 10.786C6.23116 10.3243 7.07442 10.4207 7.53949 10.999C7.5446 11.0041 8.61272 12.2217 10.1255 12.2674C11.95 12.3232 12.3639 11.7854 12.415 11.3288C12.4815 10.7657 11.9755 10.3547 9.95682 9.87782C8.23964 9.47196 5.64855 8.86315 5.64855 6.11847C5.64855 5.26614 6.00118 2.4758 10.5037 2.4758C13.3503 2.4758 15.0266 4.69793 15.0981 4.79432C15.5376 5.3879 15.4099 6.22501 14.8119 6.66132C14.214 7.09763 13.3809 6.97079 12.9363 6.38228C12.9057 6.3417 11.9449 5.28136 10.5037 5.14438C9.41509 5.04292 8.33675 5.43356 8.33675 6.00685C8.33164 6.6258 8.64338 6.82874 10.5752 7.28534Z" fill="#00AAF2"/>
</svg>
