<svg width="32" height="32" viewBox="0 0 32 32" fill="none" xmlns="http://www.w3.org/2000/svg">
<path d="M27.3016 4.69136C24.2818 1.66255 20.2664 0 15.9959 0C11.7254 0 7.70995 1.66255 4.69015 4.69136C1.66212 7.71193 0 11.7284 0 16C0 20.2716 1.66212 24.2881 4.69015 27.3086C7.70995 30.3292 11.7254 32 15.9959 32C18.4808 32 20.7436 31.5391 22.5374 30.6749C24.2407 29.8519 25.4832 28.6749 26.0262 27.3663C26.6763 25.7942 26.306 24.1564 25.0224 22.8642L24.973 22.8148C24.9895 22.7901 25.0224 22.7654 25.0388 22.749C25.9604 21.7778 25.9604 20.5103 25.0224 19.572L22.7431 17.2922C22.2988 16.8313 21.7557 16.5844 21.1797 16.5844C20.6038 16.5844 20.0607 16.8313 19.5999 17.2922L18.415 18.4774C18.3574 18.4444 18.2998 18.4198 18.2422 18.3951C18.0941 18.321 17.9625 18.2551 17.8555 18.1811C16.6542 17.4156 15.5598 16.4198 14.5148 15.1358C14.054 14.5597 13.7413 14.0658 13.5027 13.572C13.7989 13.2922 14.0787 13.0123 14.342 12.7325C14.4572 12.6173 14.5724 12.5021 14.6876 12.3868C15.6585 11.4156 15.6585 10.1646 14.6876 9.20165L13.5768 8.07407C13.4451 7.94239 13.3217 7.81893 13.1983 7.68724C12.9514 7.4321 12.6881 7.16872 12.4166 6.91358C11.9722 6.46914 11.4374 6.23868 10.8696 6.23868C10.3019 6.23868 9.76704 6.46914 9.30625 6.91358L9.28979 6.93004L7.87452 8.34568C7.30676 8.91358 6.97763 9.61317 6.9118 10.4115C6.81306 11.6626 7.17511 12.823 7.45487 13.5802C8.1296 15.4074 9.14991 17.1111 10.6557 18.93C12.4824 21.1193 14.6876 22.8477 17.2137 24.0658C18.1846 24.5267 19.4765 25.07 20.9411 25.1687C21.0316 25.177 21.1221 25.177 21.2209 25.177C22.2412 25.177 23.1052 24.8066 23.7717 24.0741L23.7963 24.0494C23.8128 24.0247 23.8457 24 23.8704 23.9671L23.9115 24.0082C24.7508 24.8477 24.9812 25.8107 24.578 26.7901C23.821 28.5844 20.8753 30.428 16.0041 30.428C8.05554 30.428 1.58807 23.9588 1.58807 16.0082C1.58807 8.05761 8.05554 1.58848 16.0041 1.58848C23.9527 1.58848 30.4202 8.05761 30.4202 16.0082C30.4202 17.3169 30.2391 18.6091 29.9018 19.8519C29.7866 20.2716 30.0334 20.7078 30.4531 20.823C30.8727 20.9383 31.3088 20.6914 31.424 20.2716C31.8025 18.8889 32 17.4568 32 16.0082C31.9918 11.7284 30.3296 7.71193 27.3016 4.69136ZM22.595 22.9877C22.2165 23.3909 21.7969 23.5638 21.2127 23.5638C21.1551 23.5638 21.0975 23.5638 21.0316 23.5556C19.8467 23.4733 18.7277 23.0123 17.8884 22.6091C15.5762 21.4897 13.5521 19.9012 11.8653 17.8848C10.4747 16.214 9.54487 14.6667 8.92774 13.0041C8.55747 12 8.41759 11.2428 8.47519 10.5185C8.51633 10.0905 8.67267 9.74486 8.98534 9.44033L10.4006 8.03292C10.5158 7.92593 10.6804 7.80247 10.8696 7.80247C11.0507 7.80247 11.2152 7.9177 11.314 8.02469L11.3304 8.04115C11.5773 8.2716 11.8159 8.51852 12.071 8.77366C12.2026 8.90535 12.3343 9.04527 12.4659 9.17696L13.5932 10.3045C13.9388 10.6502 13.9388 10.9136 13.5932 11.2593L13.2394 11.6132C12.8938 11.9588 12.5647 12.2963 12.2109 12.6173C12.1944 12.6255 12.1944 12.6337 12.1779 12.6502C11.6842 13.144 11.857 13.6543 11.9064 13.8272C11.9146 13.8436 11.9229 13.8601 11.9229 13.8765C12.2273 14.6091 12.647 15.2922 13.2888 16.107L13.297 16.1152C14.4572 17.5473 15.675 18.6502 17.0244 19.5062C17.2055 19.6214 17.3782 19.7119 17.551 19.7942C17.6992 19.8683 17.8308 19.9342 17.9378 20.0082C17.9542 20.0247 17.9871 20.0329 18.0118 20.0494C18.1846 20.1317 18.3574 20.1728 18.522 20.1728C18.81 20.1728 19.0815 20.0576 19.3119 19.8189L20.7272 18.4033C20.8424 18.2881 21.0069 18.1564 21.188 18.1564C21.3608 18.1564 21.5171 18.2798 21.6158 18.3868L23.9033 20.6749C24.2242 20.9959 24.2242 21.2922 23.8869 21.6461L23.8786 21.6543C23.7305 21.8189 23.566 21.9753 23.3849 22.1481C23.1299 22.4033 22.8583 22.6749 22.595 22.9877Z" fill="#3C72C2"/>
</svg>
