<svg width="20" height="17" viewBox="0 0 20 17" fill="none" xmlns="http://www.w3.org/2000/svg">
<path d="M17.9888 0.13354L0.724002 6.66709C-0.214432 6.94384 -0.190368 7.87033 0.507442 8.09894L4.82664 9.44656L6.48695 14.5242C6.69148 15.0777 6.84788 15.2943 7.19679 15.2943C7.55772 15.2943 7.69006 15.1619 8.07506 14.837C8.50819 14.4279 9.18193 13.7782 10.2407 12.7434L14.7404 16.0643C15.5705 16.5216 16.16 16.2809 16.3766 15.2943L19.1919 1.33677C19.4927 0.13354 18.7828 -0.22743 17.9888 0.13354ZM5.51242 9.14575L15.3419 2.97317C15.8232 2.6483 15.9796 3.00927 15.763 3.26195L7.60585 10.6017L7.18476 14.2715L5.51242 9.14575Z" fill="#61A8DE"/>
</svg>
