<svg width="19" height="19" viewBox="0 0 19 19" fill="none" xmlns="http://www.w3.org/2000/svg">
<path fill-rule="evenodd" clip-rule="evenodd" d="M3.53175 14.3789L3.82782 13.4994L3.34729 12.7054C2.70277 11.6404 2.33688 10.3974 2.33688 9.06034C2.33688 5.15929 5.49615 2 9.39641 2C13.2967 2 16.4559 5.15929 16.4559 9.06034C16.4559 12.9614 13.2967 16.1207 9.39641 16.1207C8.15633 16.1207 6.99782 15.8022 5.98838 15.2414L5.23052 14.8203L4.40511 15.0856L3.15912 15.486L3.53175 14.3789ZM0 18.602L2.36623 17.8415L5.01703 16.9896C6.31641 17.7116 7.80828 18.1207 9.39641 18.1207C14.4014 18.1207 18.4559 14.0658 18.4559 9.06034C18.4559 4.05489 14.4014 0 9.39641 0C4.39141 0 0.336877 4.05489 0.336877 9.06034C0.336877 10.7689 0.806094 12.3692 1.63625 13.7409L0.792888 16.2464L0 18.602ZM6.87835 4.65763C7.00574 4.65823 7.17085 4.659 7.32696 5.06492C7.49539 5.53418 7.91649 6.70131 7.97665 6.8096C8.02477 6.92992 8.06086 7.06228 7.97665 7.2187C7.90446 7.36309 7.85633 7.45935 7.73602 7.5917C7.69592 7.63582 7.65447 7.68395 7.61303 7.73208C7.53015 7.82834 7.44727 7.9246 7.37508 7.98877C7.25477 8.09706 7.12243 8.21738 7.25477 8.45803C7.38712 8.69867 7.82024 9.46874 8.48196 10.1065C9.21146 10.8052 9.85322 11.109 10.1674 11.2578C10.2212 11.2832 10.2653 11.3042 10.2987 11.3217C10.5273 11.4541 10.6596 11.43 10.804 11.2856C10.9484 11.1412 11.4056 10.6359 11.574 10.4073C11.7424 10.1786 11.8988 10.2268 12.1034 10.311C12.2686 10.3791 13.0311 10.785 13.4382 11.0018C13.5349 11.0533 13.6115 11.0941 13.6554 11.1172C13.6677 11.1236 13.6797 11.13 13.6915 11.1361C13.8992 11.2453 14.0316 11.3149 14.0885 11.4059C14.1366 11.5022 14.1246 11.9715 13.908 12.5009C13.6915 13.0423 12.729 13.5236 12.3079 13.5477C12.2371 13.5517 12.1778 13.5636 12.1172 13.5758C11.8174 13.6358 11.4843 13.7026 9.55274 12.8619C7.40495 11.9159 6.04975 9.73454 5.77277 9.28872C5.7503 9.25255 5.73493 9.2278 5.7268 9.21606L5.72261 9.21001C5.59958 9.03249 4.82504 7.91489 4.87258 6.78554C4.9056 5.73999 5.43185 5.20784 5.68713 4.9497C5.71094 4.92563 5.73239 4.90393 5.75087 4.88443C5.96743 4.66785 6.22008 4.61972 6.37649 4.61972C6.43253 4.62403 6.48856 4.62989 6.5435 4.63563C6.64188 4.64591 6.73672 4.65582 6.82165 4.65582C6.83951 4.65744 6.85847 4.65753 6.87835 4.65763Z" fill="#1BD741"/>
</svg>
