<svg width="18" height="20" viewBox="0 0 18 20" fill="none" xmlns="http://www.w3.org/2000/svg">
<path d="M15.3272 1.77335C14.6293 1.17174 13.7992 0.810767 12.9209 0.582153C10.6831 -0.00743099 8.43327 -0.151819 6.15937 0.161022C5.00438 0.317442 3.88548 0.61825 2.86282 1.1958C1.6597 1.86961 0.829551 2.84423 0.468615 4.19185C0.203928 5.15444 0.083616 6.12905 0.0354912 7.12774C-0.0487273 8.59568 -0.000602435 10.0516 0.372365 11.4834C0.805488 13.1319 1.74392 14.3592 3.36813 15.0089C3.5486 15.0811 3.70501 15.1774 3.88548 15.2496C4.04188 15.3218 4.10204 15.43 4.09001 15.5985C4.07798 16.7416 4.09001 17.8846 4.09001 19.0758C4.5111 18.6667 4.81188 18.3659 5.01641 18.1253C5.65406 17.4033 6.25562 16.8017 6.91734 16.1279C7.25421 15.779 7.10984 15.803 7.63921 15.803C8.2528 15.8151 9.2153 15.8391 9.82889 15.791C10.9959 15.6948 12.1509 15.5504 13.2698 15.2135C14.7015 14.7803 15.8445 14.0223 16.422 12.5784C16.5784 12.1933 16.7228 11.8083 16.819 11.4112C17.3725 9.11307 17.3003 6.8149 16.8311 4.51672C16.6265 3.44585 16.1693 2.49529 15.3272 1.77335ZM8.22874 3.15707C8.24077 2.94049 8.37312 2.85626 8.57765 2.85626C10.3462 2.95252 11.6817 3.48194 12.7043 4.85363C13.3059 5.65979 13.6308 6.75474 13.6668 7.76545C13.6668 7.92187 13.6789 8.06626 13.6668 8.22268C13.6548 8.39113 13.5826 8.52349 13.3901 8.52349C13.1976 8.52349 13.1014 8.42723 13.0893 8.22268C13.0412 7.47668 12.8968 6.7427 12.6081 6.04483C12.0547 4.69721 10.9959 3.97527 9.62436 3.62633C9.26342 3.53007 8.90249 3.45788 8.52952 3.42178C8.37312 3.42178 8.21671 3.38568 8.22874 3.15707ZM10.0214 5.04615C9.66046 4.92582 9.29952 4.81753 8.91452 4.7694C8.73405 4.74534 8.60171 4.64908 8.6378 4.4325C8.6739 4.22795 8.80624 4.15575 8.99874 4.16779C10.238 4.28811 11.2004 4.7333 11.8622 5.80418C12.175 6.30954 12.3554 7.01945 12.3314 7.54887C12.3073 7.92187 12.2592 8.01813 12.0426 8.01813C11.7298 8.0061 11.7779 7.75342 11.7539 7.5609C11.7178 7.27213 11.6576 6.98335 11.5734 6.69457C11.3328 5.87638 10.8155 5.32289 10.0214 5.04615ZM11.0681 7.12774C11.0561 7.23603 11.0561 7.30822 11.044 7.36838C11.0079 7.50074 10.9237 7.58497 10.7794 7.597C10.623 7.597 10.5508 7.51277 10.5026 7.38042C10.4786 7.28416 10.4665 7.1879 10.4545 7.10367C10.3583 6.61035 10.0695 6.27344 9.57624 6.14109C9.51608 6.12905 9.45592 6.11702 9.39577 6.10499C9.23936 6.05686 9.04686 6.05686 9.03483 5.82825C9.03483 5.63573 9.17921 5.52744 9.43186 5.51541C9.61233 5.50337 9.87702 5.5876 10.0455 5.67183C10.6831 5.97263 10.9839 6.42986 11.0681 7.12774ZM13.6668 12.3859C13.3179 13.168 12.7404 13.6733 11.9103 13.914C11.6095 13.9982 11.3208 13.926 11.0561 13.8057C7.30234 12.2054 4.59532 9.5703 3.06735 5.76808C2.95907 5.49134 2.88689 5.20257 2.89892 4.94989C2.89892 3.97527 3.76516 3.06081 4.7036 3.01268C4.96828 3.00065 5.18485 3.08488 5.37735 3.26536C6.03906 3.89104 6.56844 4.60095 6.96547 5.41915C7.18203 5.86434 7.08578 6.17718 6.71281 6.49002C6.65265 6.53815 6.58047 6.58628 6.52031 6.63441C6.015 7.00741 5.90672 7.38042 6.14734 7.95797C6.54437 8.90852 7.18203 9.65453 8.0603 10.208C8.38515 10.4126 8.72202 10.6171 9.09499 10.7254C9.44389 10.8217 9.72061 10.7134 9.93717 10.4487C9.96124 10.4126 9.9853 10.3885 10.0094 10.3524C10.4906 9.67859 11.0079 9.5703 11.7058 10.0035C12.3073 10.3765 12.8728 10.7976 13.4142 11.2548C13.7631 11.5797 13.8593 11.9407 13.6668 12.3859Z" fill="#7D3DAF"/>
</svg>
