<svg width="26" height="15" viewBox="0 0 26 15" fill="none" xmlns="http://www.w3.org/2000/svg">
<path d="M22.3766 9.4469C23.2391 10.2972 24.1494 11.0971 24.9229 12.0331C25.2646 12.4491 25.5881 12.8782 25.8356 13.361C26.1863 14.0471 25.8687 14.8022 25.2593 14.8432L21.4716 14.8415C20.4946 14.9233 19.7153 14.5262 19.06 13.8517C18.5356 13.3123 18.0499 12.7383 17.5457 12.1807C17.3389 11.9528 17.1226 11.7384 16.8641 11.5689C16.347 11.23 15.8982 11.3337 15.6027 11.8783C15.3018 12.4322 15.2335 13.0454 15.2039 13.6627C15.1633 14.5633 14.8937 14.8001 13.9978 14.8414C12.0831 14.9325 10.266 14.6401 8.57784 13.6647C7.08954 12.8049 5.93549 11.591 4.93094 10.2169C2.9752 7.54111 1.47742 4.6008 0.13131 1.57814C-0.1717 0.897137 0.0499083 0.531585 0.794055 0.518612C2.02971 0.494358 3.26522 0.496102 4.50235 0.516869C5.00457 0.524304 5.33703 0.815145 5.53097 1.29422C6.1995 2.9541 7.01753 4.53332 8.04433 5.99711C8.31779 6.38682 8.59662 6.77657 8.99363 7.05085C9.43289 7.35456 9.76733 7.2539 9.97396 6.7598C10.1051 6.4465 10.1625 6.10905 10.1921 5.77355C10.29 4.61916 10.3029 3.46671 10.1312 2.31637C10.0258 1.59845 9.6253 1.13368 8.91583 0.997844C8.55382 0.928569 8.60769 0.792532 8.78299 0.583887C9.08742 0.224028 9.37378 0 9.94461 0H14.2254C14.8993 0.134294 15.0489 0.440005 15.1412 1.1247L15.1448 5.9261C15.1375 6.19114 15.276 6.97778 15.7488 7.1532C16.1272 7.27811 16.3766 6.9724 16.6037 6.73011C17.6287 5.63172 18.3602 4.3336 19.0137 2.98943C19.3037 2.39836 19.5531 1.78458 19.7947 1.17126C19.9738 0.716181 20.2547 0.492256 20.7624 0.502152L24.8824 0.505844C25.0046 0.505844 25.1282 0.507639 25.2465 0.528099C25.9407 0.647573 26.131 0.949131 25.9165 1.63367C25.5787 2.70766 24.9213 3.6027 24.2786 4.50183C23.5915 5.46179 22.8567 6.38892 22.1753 7.35456C21.5493 8.23652 21.599 8.68098 22.3766 9.4469Z" fill="#436EAB"/>
</svg>
