<svg width="48" height="48" viewBox="0 0 48 48" fill="none" xmlns="http://www.w3.org/2000/svg">
<g clip-path="url(#clip0)">
<path d="M9.59961 24C9.59766 29.3488 12.5617 34.2578 17.2961 36.7465C22.0309 39.2351 27.7551 38.8933 32.1598 35.8586C32.4027 35.6996 32.5406 35.4211 32.5199 35.1312C32.4992 34.8418 32.3227 34.5859 32.0594 34.4633C31.7957 34.341 31.4867 34.3707 31.2516 34.5418C30.3953 35.1316 29.4703 35.6152 28.4973 35.9816C30.5109 33.5527 31.8395 29.5074 31.9781 24.8H36.6805C36.3316 26.1144 35.1438 27.3601 33.2254 28.3769C32.9664 28.5074 32.7988 28.7672 32.7863 29.0566C32.7738 29.3461 32.9184 29.6195 33.1648 29.7719C33.4113 29.9242 33.7207 29.9312 33.9738 29.7906C34.6938 29.4144 35.3727 28.9648 35.9996 28.4488C35.8012 28.989 35.566 29.5148 35.2957 30.0226C35.0871 30.4121 35.234 30.8972 35.6234 31.1058C36.0133 31.314 36.4984 31.1672 36.7066 30.7777C39.5266 25.4883 38.775 19.0058 34.8199 14.5019C30.8648 9.99802 24.5336 8.41521 18.9246 10.5277C13.3152 12.6402 9.60117 18.0062 9.59961 24ZM18.8539 31.4832C20.2855 31.7738 21.7395 31.9394 23.1996 31.9785V36.6832C21.4395 36.2199 19.8781 34.2617 18.8539 31.4832ZM23.1996 30.3793C21.5469 30.3308 19.9039 30.1027 18.3004 29.6992C17.8969 28.0957 17.6688 26.4531 17.6203 24.8H23.1996V30.3793ZM11.3164 23.2C11.7797 21.4402 13.7379 19.8785 16.5164 18.8543C16.2258 20.2859 16.0602 21.7398 16.0211 23.2H11.3164ZM16.0211 24.8C16.0602 26.2601 16.2258 27.714 16.5164 29.1457C13.7379 28.1219 11.7797 26.5617 11.3164 24.8H16.0211ZM17.6211 23.2C17.6695 21.5472 17.8977 19.9043 18.3012 18.3008C19.9047 17.8972 21.5469 17.6695 23.1996 17.6207V23.2H17.6211ZM18.8547 16.5168C19.8789 13.7387 21.4387 11.7801 23.2004 11.3168V16.0219C21.7398 16.0605 20.2855 16.2262 18.8539 16.5168H18.8547ZM29.1461 16.5168C27.7145 16.2262 26.2602 16.0605 24.7996 16.0219V11.3168C26.5598 11.7801 28.1211 13.7387 29.1453 16.5168H29.1461ZM19.4918 12.0367C18.341 13.507 17.4895 15.1883 16.9852 16.9855C15.1879 17.4898 13.5066 18.3414 12.0363 19.4922C13.3395 16.0543 16.0531 13.3398 19.4906 12.0359L19.4918 12.0367ZM12.0355 28.509C13.5059 29.6594 15.1871 30.5109 16.9844 31.0152C17.4887 32.8129 18.3402 34.4941 19.4906 35.964C16.0531 34.6609 13.3391 31.9465 12.0355 28.509ZM24.7996 36.6832V31.9722C25.5941 31.9441 26.4125 31.8871 27.302 31.773C27.7406 31.7164 28.05 31.3148 27.9938 30.8765C27.9371 30.4379 27.5355 30.1285 27.0973 30.1847C26.2781 30.2914 25.5277 30.3449 24.7996 30.3711V24.8H27.1996C27.6414 24.8 27.9996 24.4418 27.9996 24C27.9996 23.5582 27.6414 23.2 27.1996 23.2H24.7996V17.6207C26.4523 17.6695 28.0953 17.8972 29.6988 18.3008C30.1688 20.164 30.4039 22.0785 30.3996 24C30.3996 30.4 27.9074 35.8664 24.7996 36.6832ZM31.4828 18.8543C34.2613 19.8785 36.2195 21.4387 36.6828 23.2H31.9781C31.9391 21.7398 31.7734 20.2859 31.4828 18.8543ZM35.9629 19.4945C34.4926 18.3437 32.8113 17.4922 31.0141 16.9879C30.5098 15.1906 29.6582 13.5094 28.5074 12.0394C31.9449 13.3418 34.6594 16.0547 35.9637 19.4914L35.9629 19.4945Z" fill="#638ECE"/>
<path d="M20.8 6.18477V8.8C20.8 9.12344 20.9949 9.41523 21.2938 9.53945C21.3906 9.57969 21.4949 9.60039 21.6 9.6C21.8121 9.6 22.0156 9.51562 22.1656 9.36563L25.1313 6.4H26.4C27.2836 6.4 28 5.68359 28 4.8V1.6C28 0.716406 27.2836 0 26.4 0H21.6C20.7164 0 20 0.716406 20 1.6V4.8C20.0004 5.37148 20.3051 5.89922 20.8 6.18477ZM21.6 1.6H26.4V4.8H24.8C24.5879 4.8 24.3844 4.88438 24.2344 5.03438L22.4 6.86875V5.6C22.4 5.1582 22.0418 4.8 21.6 4.8V1.6Z" fill="#638ECE"/>
<path d="M47.2003 23.52V20.4001C47.2003 19.9583 46.8421 19.6001 46.4003 19.6001H43.2003C42.7585 19.6001 42.4003 19.9583 42.4003 20.4001V21.4243L40.5475 22.0419C40.1276 22.1813 39.9007 22.6349 40.0401 23.0544C40.18 23.4743 40.6335 23.7013 41.053 23.5618L42.4003 23.1099V23.52L41.6163 27.4403C41.5682 27.6755 41.6284 27.92 41.7803 28.1063C41.9323 28.2923 42.16 28.4001 42.4003 28.4001H47.2003C47.4405 28.4001 47.6682 28.2923 47.8202 28.1063C47.9721 27.92 48.0323 27.6755 47.9843 27.4403L47.2003 23.52ZM44.0003 21.2001H45.6003V22.8001H44.0003V21.2001ZM43.3764 26.8001L43.8561 24.4001H45.746L46.2261 26.8001H43.3764Z" fill="#638ECE"/>
<path d="M28.6965 43.2571L20.6965 40.0571C20.45 39.9587 20.1707 39.9888 19.9508 40.1376C19.7312 40.2864 19.5996 40.5348 19.5996 40.8001V47.2001C19.5996 47.6419 19.9578 48.0001 20.3996 48.0001C20.5012 48.0005 20.602 47.9813 20.6965 47.9434L28.6965 44.7434C29.0008 44.622 29.2004 44.3278 29.2004 44.0001C29.2004 43.6727 29.0008 43.3782 28.6965 43.2571ZM21.1996 46.0184V41.9817L26.2461 44.0001L21.1996 46.0184Z" fill="#638ECE"/>
<path d="M0.8 19.1999H1.6V21.5999C1.6 22.0417 1.9582 22.3999 2.4 22.3999C2.8418 22.3999 3.2 22.0417 3.2 21.5999V19.1999H4C4.4418 19.1999 4.8 18.8417 4.8 18.3999C4.8 17.9581 4.4418 17.5999 4 17.5999H3.2V16.7999C3.2 16.3581 3.5582 15.9999 4 15.9999C4.4418 15.9999 4.8 15.6417 4.8 15.1999C4.8 14.7581 4.4418 14.3999 4 14.3999C2.67461 14.3999 1.6 15.4745 1.6 16.7999V17.5999H0.8C0.358203 17.5999 0 17.9581 0 18.3999C0 18.8417 0.358203 19.1999 0.8 19.1999Z" fill="#638ECE"/>
<path d="M8 31.9999V28.7999C8 27.4745 6.92539 26.3999 5.6 26.3999H2.4C1.07461 26.3999 0 27.4745 0 28.7999V31.9999C0 33.3253 1.07461 34.3999 2.4 34.3999H5.6C6.92539 34.3999 8 33.3253 8 31.9999ZM6.4 31.9999C6.4 32.4417 6.0418 32.7999 5.6 32.7999H2.4C1.9582 32.7999 1.6 32.4417 1.6 31.9999V28.7999C1.6 28.3581 1.9582 27.9999 2.4 27.9999H5.6C6.0418 27.9999 6.4 28.3581 6.4 28.7999V31.9999Z" fill="#638ECE"/>
<path d="M4.8002 30.4001C4.8002 30.8419 4.44199 31.2001 4.0002 31.2001C3.5584 31.2001 3.2002 30.8419 3.2002 30.4001C3.2002 29.9583 3.5584 29.6001 4.0002 29.6001C4.44199 29.6001 4.8002 29.9583 4.8002 30.4001Z" fill="#638ECE"/>
<path d="M35.9992 9.60024C37.3246 9.60024 38.3992 10.6749 38.3992 12.0002C38.3992 12.442 38.7574 12.8002 39.1992 12.8002C39.641 12.8002 39.9992 12.442 39.9992 12.0002C39.9965 9.79243 38.2074 8.00298 35.9992 8.00024C35.5574 8.00024 35.1992 8.35845 35.1992 8.80024C35.1992 9.24204 35.5574 9.60024 35.9992 9.60024Z" fill="#638ECE"/>
<path d="M35.9992 6.40005C39.0902 6.40396 41.5953 8.90903 41.5992 12C41.5992 12.4418 41.9574 12.8 42.3992 12.8C42.841 12.8 43.1992 12.4418 43.1992 12C43.1949 8.02544 39.9738 4.80435 35.9992 4.80005C35.5574 4.80005 35.1992 5.15825 35.1992 5.60005C35.1992 6.04185 35.5574 6.40005 35.9992 6.40005Z" fill="#638ECE"/>
<path d="M35.9992 3.2001C40.857 3.20596 44.7934 7.14229 44.7992 12.0001C44.7992 12.4419 45.1574 12.8001 45.5992 12.8001C46.041 12.8001 46.3992 12.4419 46.3992 12.0001C46.3934 6.25869 41.7406 1.60596 35.9992 1.6001C35.5574 1.6001 35.1992 1.9583 35.1992 2.4001C35.1992 2.84189 35.5574 3.2001 35.9992 3.2001Z" fill="#638ECE"/>
<path d="M17.3337 42.8385C13.7427 41.5714 10.5876 39.3057 8.23996 36.3073C7.96808 35.9589 7.46496 35.8975 7.11691 36.1694C6.76886 36.4417 6.70715 36.9444 6.97941 37.2928C9.51457 40.5311 12.9216 42.978 16.8001 44.3463C17.215 44.4878 17.6661 44.2694 17.8126 43.8565C17.9587 43.4436 17.7458 42.9897 17.3345 42.8385H17.3337Z" fill="#638ECE"/>
<path d="M6.04923 13.4738C6.42071 13.7121 6.91485 13.6047 7.15391 13.2336C9.65626 9.32616 13.4348 6.40546 17.8469 4.96874C18.2445 4.81679 18.4535 4.38007 18.3223 3.97499C18.191 3.56952 17.7652 3.33866 17.3539 3.44882C12.5902 4.99882 8.51055 8.15038 5.80743 12.368C5.56876 12.7402 5.67696 13.2351 6.04923 13.4738Z" fill="#638ECE"/>
<path d="M43.795 30.4495C43.3805 30.2967 42.9207 30.5088 42.7676 30.9233C40.8332 36.1377 36.8227 40.3163 31.6918 42.4631C31.3418 42.6112 31.1442 42.9846 31.2188 43.3573C31.2934 43.7295 31.62 43.9983 31.9996 43.9999C32.1055 44.0002 32.2102 43.9792 32.3075 43.9385C37.8485 41.6202 42.1797 37.1077 44.2692 31.4768C44.4219 31.062 44.2094 30.6022 43.795 30.4495Z" fill="#638ECE"/>
</g>
<defs>
<clipPath id="clip0">
<rect width="48" height="48" fill="white"/>
</clipPath>
</defs>
</svg>
