<?xml version="1.0" encoding="UTF-8" standalone="no"?>
<svg width="64" height="47" viewBox="0 0 64 47" fill="none" xmlns="http://www.w3.org/2000/svg">
<path fill-rule="evenodd" clip-rule="evenodd" d="M25.3088 36.6652C23.2149 36.6652 22.0314 37.8819 21.7279 40.2848L21.4851 42.779C21.3941 43.8132 20.9086 44.3911 19.9982 44.5128C19.7554 44.5128 19.634 44.6345 19.634 44.8778V45.8816C19.634 46.0945 19.7554 46.2162 19.9982 46.2162C22.001 46.2162 23.0935 45.0299 23.3363 42.6878L23.579 40.4977C23.6397 39.6765 23.7915 39.1594 24.0039 38.916C24.2466 38.6119 24.7322 38.4598 25.3998 38.4598H26.9778V45.7903C26.9778 46.0032 27.0688 46.1249 27.3116 46.1249H28.4648C28.6772 46.1249 28.7986 46.0032 28.7986 45.7903V37.0302C28.7986 36.7868 28.6772 36.6652 28.4648 36.6652H25.3088Z" fill="black"/>
<path fill-rule="evenodd" clip-rule="evenodd" d="M12.3509 42.1402V37.0301C12.3509 36.7867 12.2296 36.6651 11.9868 36.6651H10.8033C10.5909 36.6651 10.4695 36.7867 10.4695 37.0301V42.7485C10.4695 45.0906 11.5923 46.2769 13.8076 46.2769C14.9 46.2769 15.9014 45.8815 16.8725 45.0906L17.0849 45.9119C17.176 46.064 17.2974 46.0944 17.3884 46.0944H18.2077C18.4505 46.0944 18.5719 46.0031 18.5719 45.7902V36.9996C18.5719 36.7563 18.4202 36.6346 18.1774 36.6346H17.0546C16.8118 36.6346 16.6904 36.7563 16.6904 36.9996V43.1439C15.9925 43.9652 15.1124 44.391 14.111 44.391C12.9275 44.4215 12.3509 43.661 12.3509 42.1402Z" fill="black"/>
<path fill-rule="evenodd" clip-rule="evenodd" d="M9.07349 41.8665C9.07349 38.9464 7.4955 37.4864 4.30915 37.4864H1.94215V34.5968H7.4348C7.67757 34.5968 7.76861 34.4447 7.79896 34.2014V33.1368C7.76861 32.863 7.67757 32.7413 7.4348 32.7413H0.364154C0.121385 32.7413 0 32.8934 0 33.1368V42.1402C0 44.8169 1.27454 46.1553 3.79327 46.1553H4.12707C7.4348 46.1857 9.07349 44.7257 9.07349 41.8665ZM4.36984 39.2506C6.19061 39.2506 7.101 40.1327 7.101 41.8665C7.101 43.5394 6.19061 44.3911 4.36984 44.4215H3.76292C2.54908 44.3911 1.91181 43.7219 1.91181 42.3836V39.281H4.36984V39.2506Z" fill="black"/>
<path fill-rule="evenodd" clip-rule="evenodd" d="M56.292 40.4673H51.9829V37.0302C51.9829 36.7868 51.8615 36.6652 51.6187 36.6652H50.4655C50.2531 36.6652 50.1621 36.7868 50.1621 37.0302V45.7903C50.1317 46.0032 50.2531 46.1249 50.4655 46.1249H51.6187C51.8615 46.1249 51.9829 46.0032 51.9829 45.7903V42.1707H56.292V45.7903C56.292 46.0032 56.4437 46.1249 56.6562 46.1249H57.779C58.0217 46.1249 58.1431 46.0032 58.1431 45.7903V37.0302C58.1431 36.7868 58.0217 36.6652 57.779 36.6652H56.6562C56.4134 36.6652 56.292 36.7868 56.292 37.0302V40.4673Z" fill="black"/>
<path fill-rule="evenodd" clip-rule="evenodd" d="M47.6435 36.6652H46.4904C46.2173 36.6652 46.0959 36.7868 46.0959 37.0302V43.1744C45.3979 43.9957 44.5482 44.4215 43.5165 44.4215C42.3633 44.4215 41.7867 43.6611 41.7867 42.1403V37.0302C41.7867 36.7868 41.6654 36.6652 41.4529 36.6652H40.2998C40.0267 36.6652 39.9053 36.7868 39.9053 37.0302V42.7486C39.9053 45.0907 41.0281 46.277 43.2433 46.277C44.4268 46.277 45.4586 45.8816 46.3387 45.0907L46.5207 45.912C46.6118 46.0641 46.7028 46.0945 46.8242 46.0945H47.6435C47.856 46.0945 47.9773 46.0032 47.9773 45.7903V36.9998C47.9773 36.7868 47.856 36.6652 47.6435 36.6652Z" fill="black"/>
<path fill-rule="evenodd" clip-rule="evenodd" d="M47.947 33.1368C47.947 32.863 47.8256 32.7413 47.5828 32.7413H40.2998C40.0267 32.7413 39.9053 32.8934 39.9053 33.1368V34.2014C39.9053 34.4447 40.057 34.5968 40.2998 34.5968H47.5828C47.8256 34.5968 47.947 34.4447 47.947 34.2014V33.1368Z" fill="black"/>
<path fill-rule="evenodd" clip-rule="evenodd" d="M35.8085 38.4598C35.9906 38.7031 36.0817 39.0985 36.0817 39.646V39.859L34.0181 39.9502C31.6815 40.1023 30.5283 41.1365 30.5283 43.0832C30.5283 45.182 31.7118 46.2466 34.0788 46.2466C34.9285 46.2466 35.7479 46.0336 36.5065 45.547L36.6582 45.8816C36.81 46.0336 36.901 46.0641 36.992 46.0641H37.7204C37.9024 46.0641 37.9935 45.9728 37.9935 45.7599V39.646C37.9935 37.456 36.7796 36.3306 34.3216 36.3306C33.2595 36.3306 32.3187 36.4826 31.4994 36.8172C31.3477 36.9389 31.287 37.0606 31.287 37.1518V38.2164C31.3173 38.3685 31.378 38.4598 31.4387 38.5206C31.5904 38.551 31.6815 38.551 31.7422 38.551C32.5008 38.2468 33.3809 38.1252 34.3216 38.1252C35.0499 38.1252 35.5354 38.2468 35.8085 38.4598ZM34.0788 44.5432C33.0167 44.5432 32.5008 44.0565 32.5008 43.1136C32.4705 42.1707 32.9864 41.684 33.9878 41.5927L36.0513 41.3798L36.0817 43.9349C35.3837 44.3303 34.7161 44.5432 34.0788 44.5432Z" fill="black"/>
<path fill-rule="evenodd" clip-rule="evenodd" d="M64 36.726L63.9696 36.6652H63.5751L62.9682 38.0644L62.3916 36.6652H61.9668V38.8856H62.3309V37.3343L62.8165 38.551H63.12L63.6662 37.3343L63.6055 38.8248L63.6662 38.8856H63.9696L64 38.8248V36.726Z" fill="black"/>
<path fill-rule="evenodd" clip-rule="evenodd" d="M61.6936 36.726L61.6329 36.6652H60.1763V37.0302H60.7225V38.8248L60.7832 38.8856H61.0563V37.0302H61.6329L61.6936 36.9693V36.726Z" fill="black"/>
<path fill-rule="evenodd" clip-rule="evenodd" d="M28.8593 0.559937C36.5975 0.559937 42.8792 6.85629 42.8792 14.6127C42.8792 22.3691 36.5975 28.6654 28.8593 28.6654C21.121 28.6654 14.8394 22.3691 14.8394 14.6127C14.8394 6.85629 21.121 0.559937 28.8593 0.559937Z" fill="url(#paint0_linear)"/>
<path fill-rule="evenodd" clip-rule="evenodd" d="M18.3596 5.30501C25.1268 4.72709 32.5616 4.69667 39.3591 5.30501C36.7797 2.38497 33.0471 0.559937 28.8594 0.559937C24.6716 0.559937 20.939 2.38497 18.3596 5.30501Z" fill="black"/>
<path fill-rule="evenodd" clip-rule="evenodd" d="M39.5107 23.7987C32.9256 24.3158 25.0963 24.3462 18.238 23.7987C20.8175 26.81 24.6107 28.6959 28.8895 28.6959C33.1076 28.6959 36.9313 26.7796 39.5107 23.7987Z" fill="black"/>
<path fill-rule="evenodd" clip-rule="evenodd" d="M15.2945 11.0538C24.4287 10.9017 33.3202 10.8713 42.424 11.0538C42.7275 12.2097 42.8792 13.396 42.8792 14.6126C42.8792 15.6772 42.7578 16.7418 42.5454 17.7152C33.3202 17.989 24.2163 17.9281 15.1732 17.7152C14.9607 16.7114 14.8394 15.6772 14.8394 14.6126C14.8394 13.396 14.9911 12.1793 15.2945 11.0538Z" fill="black"/>
<defs>
<linearGradient id="paint0_linear" x1="14.8333" y1="14.6246" x2="42.8944" y2="14.6246" gradientUnits="userSpaceOnUse">
<stop stop-color="#D89141"/>
<stop offset="0.1" stop-color="#FBB034"/>
<stop offset="0.3" stop-color="#FFC233"/>
<stop offset="0.4893" stop-color="#FFDD2F"/>
<stop offset="0.65" stop-color="#FFF32A"/>
<stop offset="0.737" stop-color="#FFE42F"/>
<stop offset="0.8871" stop-color="#F2C837"/>
<stop offset="1" stop-color="#E6B13B"/>
</linearGradient>
</defs>
</svg>
