<svg width="120" height="49" viewBox="0 0 120 49" fill="none" xmlns="http://www.w3.org/2000/svg">
<path d="M52.8227 30.0196V24.966H51.1226V14.8589H42.2266V16.9281C42.2266 18.9972 42.108 20.6685 41.8312 21.8623C41.5545 23.0958 41.1986 24.1304 40.6451 24.966H39.3799V30.0196H41.9894V27.4729H50.2132V30.0196H52.8227ZM48.3549 17.3658V24.966H43.729C44.757 22.7377 44.9942 20.3104 44.9942 17.3658H48.3549Z" fill="black"/>
<path d="M58.7139 27.7122C60.1768 27.7122 61.3629 27.2745 62.3119 26.3592C63.2608 25.4042 63.7352 24.2901 63.7352 22.9371C63.7352 21.624 63.2608 20.47 62.3119 19.5548C61.3629 18.6396 60.2164 18.1621 58.7139 18.1621C57.251 18.1621 56.0649 18.5998 55.116 19.5548C54.1671 20.47 53.6926 21.5842 53.6926 22.9371C53.6926 24.2901 54.1671 25.4042 55.116 26.3592C56.0649 27.2745 57.2906 27.7122 58.7139 27.7122ZM60.3745 24.6482C59.9396 25.0859 59.3861 25.3247 58.7139 25.3247C58.0418 25.3247 57.4882 25.0859 57.0533 24.6482C56.6184 24.1707 56.3812 23.6534 56.3812 22.9769C56.3812 22.3005 56.6184 21.7434 57.0533 21.3057C57.4882 20.868 58.0418 20.6292 58.7139 20.6292C59.3861 20.6292 59.9396 20.868 60.3745 21.3057C60.8094 21.7434 61.0071 22.3005 61.0071 22.9769C61.0466 23.6136 60.8094 24.1707 60.3745 24.6482Z" fill="black"/>
<path d="M67.8866 22.2607L69.824 24.7278L69.8635 24.7676H70.9705L72.987 22.2607V27.4734H75.5569V18.4009H72.9474L70.417 21.624L67.9657 18.4407L67.9261 18.4009H65.3167V27.4734H67.8866V22.2607Z" fill="black"/>
<path d="M85.283 21.2256H79.5896V23.6927H85.283V21.2256Z" fill="black"/>
<path d="M42.0685 41.3207V36.3467H39.4194V45.4192H41.9103L45.7059 40.4452V45.4192H48.3945V36.3467H45.9036L42.0685 41.3207Z" fill="black"/>
<path d="M56.6579 39.6497H53.2972V36.3867H50.5691V45.4593H53.2972V41.9576H56.6579V45.4593H59.386V36.3867H56.6579V39.6497Z" fill="black"/>
<path d="M60.6511 38.6946H63.3792V45.4593H66.1073V38.6946H68.875V36.3867H60.6511V38.6946Z" fill="black"/>
<path d="M74.2521 36.1479C72.8683 36.1479 71.7217 36.6255 70.8519 37.5407C69.982 38.4559 69.5471 39.5701 69.5471 40.923C69.5471 42.3555 70.0216 43.5095 71.01 44.3849C71.9589 45.2603 73.145 45.698 74.5684 45.698C76.0313 45.698 77.1779 45.3797 77.9686 44.7828L78.0082 44.743V42.4749L77.85 42.5942C76.9407 43.1115 76.0313 43.3503 75.0824 43.3503C73.58 43.3503 72.5915 42.7534 72.2752 41.7586H78.5617V41.0026C78.5617 39.6894 78.1663 38.5355 77.3756 37.6202C76.5848 36.6255 75.5173 36.1479 74.2521 36.1479ZM74.1335 38.3365C75.201 38.3365 75.7545 39.0926 75.8731 39.8884H72.2752C72.4334 38.9334 73.145 38.3365 74.1335 38.3365Z" fill="black"/>
<path d="M85.7179 36.1479C84.5318 36.1479 83.6224 36.5061 82.9503 37.2621V36.3867H80.2222V49.0007H82.9503V44.5838C83.662 45.3399 84.5713 45.698 85.7179 45.698C86.9436 45.698 87.9716 45.2205 88.7623 44.3451C89.5926 43.4299 89.988 42.3157 89.988 40.9628C89.988 39.6098 89.5926 38.4957 88.7623 37.5805C87.9716 36.5857 86.9436 36.1479 85.7179 36.1479ZM87.2599 40.923C87.2599 41.5597 87.0622 42.1565 86.6273 42.5942C86.2319 43.032 85.6784 43.2707 85.0062 43.2707C84.1364 43.2707 83.3457 42.7932 82.9503 42.0372V39.8088C83.3852 39.0528 84.176 38.5753 85.0062 38.5753C85.6784 38.5753 86.2319 38.814 86.6273 39.2517C87.0622 39.6894 87.2599 40.2465 87.2599 40.923Z" fill="black"/>
<path d="M97.6584 39.6497H94.2581V36.3867H91.5696V45.4593H94.2581V41.9576H97.6584V45.4593H100.347V36.3867H97.6584V39.6497Z" fill="black"/>
<path d="M106.673 36.1479C105.289 36.1479 104.143 36.6255 103.273 37.5407C102.403 38.4559 101.968 39.5701 101.968 40.923C101.968 42.3555 102.442 43.5095 103.431 44.3849C104.38 45.2603 105.566 45.698 106.989 45.698C108.452 45.698 109.599 45.3797 110.39 44.7828L110.429 44.743V42.4749L110.271 42.5942C109.362 43.1115 108.452 43.3503 107.503 43.3503C106.001 43.3503 105.012 42.7534 104.696 41.7586H110.983V41.0026C110.983 39.6894 110.587 38.5355 109.796 37.6202C109.045 36.6255 107.978 36.1479 106.673 36.1479ZM106.554 38.3365C107.622 38.3365 108.175 39.0926 108.294 39.8884H104.696C104.854 38.9334 105.605 38.3365 106.554 38.3365Z" fill="black"/>
<path d="M111.694 36.3867V38.6946H114.462V45.4593H117.151V38.6946H119.958V36.3867H111.694Z" fill="black"/>
<path d="M27.9536 40.6046C26.6093 40.5648 25.5813 41.6392 25.5813 42.9921C25.5813 44.3052 26.6488 45.3796 27.9536 45.3796C29.2583 45.3796 30.3258 44.3052 30.3258 42.9921C30.3258 41.7188 29.2583 40.6046 27.9536 40.6046Z" fill="url(#paint0_linear)"/>
<path d="M28.0719 23.4541C28.0324 23.4541 27.9928 23.4541 27.9533 23.4541C27.9138 23.4541 27.8742 23.4541 27.8742 23.4541C17.9107 23.4939 9.68687 31.0942 8.57981 40.8432H4.86326C5.97032 29.025 15.8548 19.7535 27.8742 19.7535H27.9533C29.258 19.7535 30.3256 18.6791 30.3256 17.3659C30.3256 17.0476 30.286 16.7293 30.1674 16.4507C30.1279 16.3711 30.0883 16.2916 30.0488 16.212C29.9697 16.0926 29.9302 15.9732 29.8511 15.8936C29.772 15.8141 29.772 15.6947 29.693 15.6151L15.5385 1.05125C15.2221 0.732916 14.7477 0.732916 14.4314 1.05125L0.711799 15.2968C0.316422 15.7345 0.0791956 16.2916 0.0791956 16.8884V21.5441C0.0791956 22.8174 1.10718 23.8122 2.33285 23.8122C3.59805 23.8122 4.5865 22.7776 4.5865 21.5441V18.4403C4.5865 18.0424 4.74465 17.6445 5.02141 17.3659L14.4709 7.57713C14.7872 7.25879 15.2617 7.25879 15.578 7.57713L22.6948 14.8988C22.8925 15.0978 22.7739 15.4161 22.4971 15.4957C9.68687 18.0026 -0.0394176 29.3831 0.000120109 42.9919C0.000120109 43.0317 0.000120109 43.0317 0.000120109 43.0715C0.000120109 43.1113 0.000120109 43.1113 0.000120109 43.1511C0.000120109 44.4245 1.0281 45.4193 2.25377 45.4193H10.9125C11.8614 45.4193 12.6917 44.8224 13.008 43.947C13.1266 43.6684 13.2057 43.3501 13.2057 42.9919C13.2057 35.5906 18.7015 29.4627 25.7787 28.4679V32.2481C20.797 33.2031 17.0013 37.6598 17.0013 42.9919C17.0013 44.3051 18.0689 45.3795 19.3736 45.3795C20.6784 45.3795 21.7459 44.3051 21.7459 42.9919C21.7459 39.5698 24.474 36.8242 27.8742 36.8242H27.9533C28.9417 36.8242 29.8116 36.1875 30.1674 35.3519C30.286 35.0734 30.3651 34.755 30.3651 34.4367V25.7222C30.3256 24.4489 29.3371 23.4541 28.0719 23.4541Z" fill="url(#paint1_linear)"/>
<defs>
<linearGradient id="paint0_linear" x1="28.981" y1="44.552" x2="-3.09742" y2="-2.64841" gradientUnits="userSpaceOnUse">
<stop stop-color="#00B800"/>
<stop offset="1" stop-color="#53DA13"/>
</linearGradient>
<linearGradient id="paint1_linear" x1="26.1184" y1="46.4971" x2="-5.95978" y2="-0.70329" gradientUnits="userSpaceOnUse">
<stop stop-color="#00B800"/>
<stop offset="1" stop-color="#53DA13"/>
</linearGradient>
</defs>
</svg>
