<?xml version="1.0" encoding="UTF-8" standalone="no"?>
<svg width="153" height="71" viewBox="0 0 153 71" fill="none" xmlns="http://www.w3.org/2000/svg">
<path d="M65.5575 35.6213V29.4579H63.4522V17.1312H52.4362V19.6548C52.4362 22.1784 52.2893 24.2167 51.9466 25.6726C51.6039 27.177 51.1632 28.4388 50.4778 29.4579H48.96V35.6213H52.1914V32.5154H62.3261V35.6213H65.5575ZM60.0739 20.1886V29.4579H54.3456C55.6186 26.7402 55.9123 23.7799 55.9123 20.1886H60.0739Z" fill="black"/>
<path d="M72.8525 32.8065C74.664 32.8065 76.1328 32.2727 77.3079 31.1565C78.4829 29.9918 79.0704 28.6329 79.0704 26.9829C79.0704 25.3814 78.4829 23.974 77.3079 22.8578C76.1328 21.7416 74.713 21.1592 72.8525 21.1592C71.041 21.1592 69.5722 21.6931 68.3971 22.8578C67.2221 23.974 66.6346 25.3329 66.6346 26.9829C66.6346 28.6329 67.2221 29.9918 68.3971 31.1565C69.5722 32.2727 71.0899 32.8065 72.8525 32.8065ZM74.9088 29.0697C74.3703 29.6035 73.6848 29.8947 72.8525 29.8947C72.0202 29.8947 71.3347 29.6035 70.7962 29.0697C70.2576 28.4873 69.9639 27.8564 69.9639 27.0314C69.9639 26.2064 70.2576 25.527 70.7962 24.9931C71.3347 24.4593 72.0202 24.1681 72.8525 24.1681C73.6848 24.1681 74.3703 24.4593 74.9088 24.9931C75.4474 25.527 75.6922 26.2064 75.6922 27.0314C75.7411 27.8079 75.4963 28.4873 74.9088 29.0697Z" fill="black"/>
<path d="M84.2112 26.1579L86.6592 29.1668L86.7082 29.2153H88.079L90.527 26.1579V32.5154H93.7584V21.4504H90.4781L87.3936 25.3814L84.3091 21.499V21.4504H81.0288V32.5154H84.2112V26.1579Z" fill="black"/>
<path d="M105.754 24.8961H98.7034V27.905H105.754V24.8961Z" fill="black"/>
<path d="M52.2893 49.4039V43.3376H48.96V54.4026H52.0445L56.7447 48.3363V54.4026H60.0739V43.3376H56.9895L52.2893 49.4039Z" fill="black"/>
<path d="M70.3556 47.3657H66.194V43.3862H62.8157V54.4511H66.194V50.1804H70.3556V54.4511H73.7338V43.3862H70.3556V47.3657Z" fill="black"/>
<path d="M75.2515 46.2009H78.6787V54.4511H82.008V46.2009H85.4842V43.3862H75.2515V46.2009Z" fill="black"/>
<path d="M92.0938 43.095C90.3802 43.095 88.9603 43.6774 87.8832 44.7936C86.8061 45.9098 86.2675 47.2686 86.2675 48.9187C86.2675 50.6658 86.855 52.0731 88.079 53.1408C89.2541 54.2085 90.7229 54.7423 92.4854 54.7423C94.297 54.7423 95.7168 54.3541 96.696 53.6261L96.745 53.5776V50.8113L96.5491 50.9569C95.423 51.5878 94.297 51.879 93.1219 51.879C91.2614 51.879 90.0374 51.1511 89.6458 49.9378H97.4304V49.0157C97.4304 47.4142 96.9408 46.0068 95.9616 44.8906C94.9824 43.6774 93.7094 43.095 92.0938 43.095ZM91.9469 45.7642C93.2688 45.7642 93.9542 46.6863 94.1011 47.6569H89.6458C89.8416 46.4921 90.7229 45.7642 91.9469 45.7642Z" fill="black"/>
<path d="M106.292 43.095C104.823 43.095 103.697 43.5318 102.865 44.4539V43.3862H99.4867V58.7703H102.865V53.3834C103.746 54.3055 104.872 54.7423 106.292 54.7423C107.81 54.7423 109.083 54.1599 110.062 53.0923C111.09 51.9761 111.58 50.6172 111.58 48.9672C111.58 47.3171 111.09 45.9583 110.062 44.8421C109.083 43.6288 107.81 43.095 106.292 43.095ZM108.202 48.9187C108.202 49.6951 107.957 50.4231 107.418 50.9569C106.929 51.4908 106.243 51.7819 105.411 51.7819C104.334 51.7819 103.355 51.1996 102.865 50.2775V47.5598C103.403 46.6377 104.383 46.0554 105.411 46.0554C106.243 46.0554 106.929 46.3465 107.418 46.8804C107.957 47.4142 108.202 48.0936 108.202 48.9187Z" fill="black"/>
<path d="M121.078 47.3657H116.917V43.3862H113.538V54.4511H116.917V50.1804H121.078V54.4511H124.456V43.3862H121.078V47.3657Z" fill="black"/>
<path d="M132.241 43.095C130.527 43.095 129.108 43.6774 128.03 44.7936C126.953 45.9098 126.415 47.2686 126.415 48.9187C126.415 50.6658 127.002 52.0731 128.226 53.1408C129.401 54.2085 130.87 54.7423 132.633 54.7423C134.444 54.7423 135.864 54.3541 136.843 53.6261L136.892 53.5776V50.8113L136.696 50.9569C135.57 51.5878 134.444 51.879 133.269 51.879C131.409 51.879 130.185 51.1511 129.793 49.9378H137.578V49.0157C137.578 47.4142 137.088 46.0068 136.109 44.8906C135.179 43.6774 133.857 43.095 132.241 43.095ZM132.143 45.7642C133.465 45.7642 134.15 46.6863 134.297 47.6569H129.842C130.038 46.4921 130.919 45.7642 132.143 45.7642Z" fill="black"/>
<path d="M138.508 43.3862V46.2009H141.886V54.4511H145.264V46.2009H148.692V43.3862H138.508Z" fill="black"/>
<path d="M34.7616 48.5304C33.0969 48.4819 31.824 49.7922 31.824 51.4422C31.824 53.0437 33.1459 54.3541 34.7616 54.3541C36.3772 54.3541 37.6992 53.0437 37.6992 51.4422C37.7481 49.8893 36.3772 48.5304 34.7616 48.5304Z" fill="url(#paint0_linear)"/>
<path d="M34.9565 27.6138C34.9075 27.6138 34.8586 27.6138 34.8096 27.6138C34.7607 27.6138 34.7117 27.6138 34.7117 27.6138C22.3738 27.6623 12.1901 36.9316 10.8192 48.8216H6.21698C7.58786 34.4081 19.8279 23.1005 34.7117 23.1005H34.7607C36.3763 23.1005 37.6983 21.7902 37.6983 20.1887C37.6983 19.8004 37.6493 19.4122 37.5024 19.0725C37.4535 18.9754 37.4045 18.8783 37.3555 18.7813C37.2576 18.6357 37.2087 18.4901 37.1107 18.393C37.0128 18.296 37.0128 18.1504 36.9149 18.0533L19.3872 0.291182C18.9955 -0.0970608 18.408 -0.0970608 18.0163 0.291182L1.02722 17.6651C0.537615 18.1989 0.243855 18.8783 0.243855 19.6063V25.2843C0.243855 26.8373 1.51682 28.0506 3.03457 28.0506C4.60129 28.0506 5.82529 26.7888 5.82529 25.2843V21.499C5.82529 21.0137 6.02114 20.5284 6.36386 20.1887L18.0653 8.25017C18.457 7.86193 19.0445 7.86193 19.4362 8.25017L28.249 17.1798C28.4938 17.4224 28.3469 17.8107 28.0042 17.9077C12.1411 20.9651 0.145935 34.8448 0.145935 51.4422C0.145935 51.4908 0.145935 51.4908 0.145935 51.5393C0.145935 51.5878 0.145935 51.5878 0.145935 51.6364C0.145935 53.1893 1.4189 54.4026 2.93666 54.4026H13.7079C14.8829 54.4026 15.9111 53.6746 16.3027 52.607C16.4496 52.2673 16.5475 51.879 16.5475 51.4422C16.5475 42.4156 23.353 34.9419 32.1168 33.7286V38.339C25.8989 39.5523 21.1987 44.9392 21.1987 51.4422C21.1987 53.0437 22.5207 54.3541 24.1363 54.3541C25.752 54.3541 27.0739 53.0437 27.0739 51.4422C27.0739 47.2686 30.4522 43.92 34.6627 43.92H34.7607C35.9847 43.92 37.0618 43.1435 37.5024 42.1244C37.6493 41.7847 37.7472 41.3964 37.7472 41.0082V30.38C37.7472 28.8271 36.4743 27.6138 34.9565 27.6138Z" fill="url(#paint1_linear)"/>
<path d="M0 69.7382V63.1381H1.02816V65.7102H4.50432V63.1381H5.53248V69.7382H4.50432V66.6808H1.02816V69.7382H0Z" fill="black"/>
<path d="M11.7504 68.9132V69.6897C11.6035 69.7867 11.4077 69.8353 11.1629 69.8353C10.6243 69.8353 10.3306 69.6411 10.1837 69.1558C9.74304 69.6411 9.20448 69.8838 8.47008 69.8838C7.98048 69.8838 7.53984 69.7382 7.19712 69.447C6.8544 69.1558 6.70752 68.7676 6.70752 68.3308C6.70752 67.8455 6.90336 67.4573 7.24608 67.2146C7.5888 66.9234 8.02944 66.8264 8.568 66.8264C9.10656 66.8264 9.64512 66.972 10.0368 67.1661V66.9234C10.0368 66.244 9.59616 65.9043 8.66592 65.9043C8.12736 65.9043 7.63776 66.0499 7.19712 66.3411V65.4675C7.63776 65.2249 8.22528 65.0793 8.91072 65.0793C10.1837 65.0793 11.065 65.7102 11.065 66.8264V68.5249C11.065 68.8161 11.2118 68.9617 11.4566 68.9617C11.6035 68.9617 11.6525 68.9617 11.7504 68.9132ZM10.0858 67.894C9.69408 67.6999 9.3024 67.5543 8.86176 67.5543C8.17632 67.5543 7.78464 67.797 7.78464 68.2823C7.78464 68.7676 8.17632 69.0102 8.8128 69.0102C9.35136 69.0102 9.84096 68.7676 10.1347 68.4764V67.894H10.0858Z" fill="black"/>
<path d="M12.24 71V68.8161H12.8275C13.0723 68.4279 13.2682 67.9911 13.3171 67.4573C13.415 66.9234 13.464 66.0984 13.464 65.0793H17.1849V68.8161H17.9683V71H16.9891V69.7382H13.2192V71H12.24ZM16.2057 68.8647V66.0014H14.4432C14.4432 67.2146 14.2473 68.1367 13.9046 68.8161H16.2057V68.8647Z" fill="black"/>
<path d="M19.3882 65.7102C19.8288 65.2734 20.4163 65.0308 21.1018 65.0308C21.5914 65.0308 21.9831 65.1764 22.3258 65.419C23.0112 65.9043 23.305 66.6808 23.305 67.5058V67.7485H19.7309C19.8778 68.5249 20.5143 69.0102 21.4935 69.0102C22.032 69.0102 22.5216 68.8647 23.0112 68.5735V69.447C22.5706 69.7382 22.032 69.8838 21.2976 69.8838C20.5632 69.8838 19.9757 69.6411 19.4861 69.2044C18.9965 68.7676 18.7517 68.1852 18.7517 67.4573C18.7517 66.7293 18.9475 66.147 19.3882 65.7102ZM22.2768 66.972C22.2768 66.6808 22.1789 66.4381 21.9341 66.1955C21.7383 65.9528 21.4445 65.8558 21.0528 65.8558C20.3184 65.8558 19.8288 66.3411 19.7309 66.972H22.2768Z" fill="black"/>
<path d="M23.7456 69.7382L25.9488 67.2632L23.9904 65.1278H25.2144L26.8301 66.9234V65.1278H27.8582V66.9234L29.4739 65.1278H30.6979L28.7395 67.2632L30.9917 69.7382H29.7187L27.9072 67.6999V69.7382H26.879V67.6999L25.0186 69.7382H23.7456Z" fill="black"/>
<path d="M31.9709 69.7382V65.1278H32.999V66.9234H35.3491V65.1278H36.3773V69.7382H35.3491V67.797H32.999V69.7382H31.9709Z" fill="black"/>
<path d="M42.4973 68.9132V69.6897C42.3504 69.7867 42.1546 69.8353 41.9098 69.8353C41.3712 69.8353 41.0774 69.6411 40.9306 69.1558C40.4899 69.6411 39.9514 69.8838 39.217 69.8838C38.7274 69.8838 38.2867 69.7382 37.944 69.447C37.6013 69.1558 37.4544 68.7676 37.4544 68.3308C37.4544 67.8455 37.6502 67.4573 37.993 67.2146C38.3357 66.9234 38.7763 66.8264 39.3149 66.8264C39.8534 66.8264 40.392 66.972 40.7837 67.1661V66.9234C40.7837 66.244 40.343 65.9043 39.4128 65.9043C38.8742 65.9043 38.3846 66.0499 37.944 66.3411V65.4675C38.3846 65.2249 38.9722 65.0793 39.6576 65.0793C40.9306 65.0793 41.8118 65.7102 41.8118 66.8264V68.5249C41.8118 68.8161 41.9587 68.9617 42.2035 68.9617C42.3014 68.9617 42.3994 68.9617 42.4973 68.9132ZM40.7837 67.894C40.392 67.6999 40.0003 67.5543 39.5597 67.5543C38.8742 67.5543 38.4826 67.797 38.4826 68.2823C38.4826 68.7676 38.8742 69.0102 39.5107 69.0102C40.0493 69.0102 40.5389 68.7676 40.8326 68.4764V67.894H40.7837Z" fill="black"/>
<path d="M43.0848 69.7382L44.4067 67.9426C43.7702 67.797 43.3785 67.2631 43.3785 66.5837C43.3785 65.7102 43.9661 65.1278 45.1411 65.1278H47.5891V69.7382H46.5609V68.1367H45.4349L44.2598 69.7382H43.0848ZM46.5609 67.3602V65.9528H45.288C44.7494 65.9528 44.4557 66.1955 44.4557 66.6323C44.4557 67.069 44.7494 67.3117 45.288 67.3117H46.5609V67.3602Z" fill="black"/>
<path d="M51.8976 69.2044C51.408 68.7676 51.1632 68.1367 51.1632 67.4573C51.1632 66.7293 51.408 66.147 51.8976 65.7102C52.3872 65.2734 52.9747 65.0308 53.7091 65.0308C54.2477 65.0308 54.6883 65.1278 55.129 65.3705V66.244C54.6883 66.0499 54.2966 65.9528 53.856 65.9528C53.4154 65.9528 53.0237 66.0984 52.681 66.3896C52.3872 66.6808 52.1914 67.069 52.1914 67.5058C52.1914 67.9426 52.3382 68.3308 52.681 68.622C53.0237 68.9132 53.4154 69.0588 53.856 69.0588C54.3456 69.0588 54.7862 68.9617 55.1779 68.7191V69.5926C54.7373 69.8353 54.2477 69.9809 53.7091 69.9809C53.0237 69.8838 52.3872 69.6411 51.8976 69.2044Z" fill="black"/>
<path d="M56.4509 69.7382V65.1278H58.9968C59.927 65.1278 60.4656 65.6131 60.4656 66.2925C60.4656 66.7778 60.2208 67.1176 59.8781 67.3117C60.4656 67.5058 60.8083 67.894 60.8083 68.4764C60.8083 69.2529 60.2208 69.7382 59.1926 69.7382H56.4509ZM57.479 66.972H58.752C59.1926 66.972 59.4374 66.7778 59.4374 66.4867C59.4374 66.1469 59.1926 65.9528 58.752 65.9528H57.479V66.972ZM57.479 68.9132H58.9478C59.4374 68.9132 59.7312 68.7191 59.7312 68.3308C59.7312 67.9426 59.4374 67.7485 58.9478 67.7485H57.479V68.9132Z" fill="black"/>
<path d="M61.5427 69.7382L62.8646 67.9426C62.2282 67.797 61.8365 67.2631 61.8365 66.5837C61.8365 65.7102 62.424 65.1278 63.599 65.1278H66.047V69.7382H65.0189V68.1367H63.8928L62.7178 69.7382H61.5427ZM65.0189 67.3602V65.9528H63.7459C63.2074 65.9528 62.9136 66.1955 62.9136 66.6323C62.9136 67.069 63.2074 67.3117 63.7459 67.3117H65.0189V67.3602Z" fill="black"/>
<path d="M67.32 69.5441V68.622C67.8586 68.8647 68.3971 69.0103 68.9357 69.0103C69.719 69.0103 70.2576 68.7676 70.2576 68.3308C70.2576 67.9426 69.9149 67.7485 69.2294 67.7485H68.3482V66.9234H69.2294C69.817 66.9234 70.1107 66.7779 70.1107 66.4381C70.1107 66.0984 69.719 65.9043 68.9846 65.9043C68.495 65.9043 67.9565 66.0014 67.4669 66.244V65.3705C67.9565 65.1764 68.544 65.0308 69.2294 65.0308C69.768 65.0308 70.2576 65.1278 70.6493 65.3705C71.041 65.6131 71.1878 65.9043 71.1878 66.244C71.1878 66.7293 70.943 67.069 70.4534 67.2632C71.041 67.4573 71.3347 67.8455 71.3347 68.3794C71.3347 68.8161 71.1389 69.1558 70.6982 69.447C70.3066 69.7382 69.719 69.8353 69.0826 69.8353C68.3482 69.8838 67.7606 69.7382 67.32 69.5441Z" fill="black"/>
<path d="M72.5098 69.7382V65.1278H73.5379V66.5352H74.8598C75.9859 66.5352 76.7203 67.1661 76.7203 68.1367C76.7203 68.5735 76.5734 68.9617 76.2307 69.3014C75.888 69.5926 75.4474 69.7382 74.8598 69.7382H72.5098ZM73.5379 68.9132H74.7619C75.3494 68.9132 75.7411 68.622 75.7411 68.1852C75.7411 67.6999 75.3984 67.4087 74.7619 67.4087H73.5379V68.9132Z" fill="black"/>
<path d="M80.3434 69.7382V65.1278H81.3715V66.9234H83.7216V65.1278H84.7498V69.7382H83.7216V67.797H81.3715V69.7382H80.3434Z" fill="black"/>
<path d="M90.8698 68.9132V69.6897C90.7229 69.7867 90.5271 69.8353 90.2823 69.8353C89.7437 69.8353 89.4499 69.6411 89.3031 69.1558C88.8624 69.6411 88.3239 69.8838 87.5895 69.8838C87.0999 69.8838 86.6592 69.7382 86.3165 69.447C85.9738 69.1558 85.8269 68.7676 85.8269 68.3308C85.8269 67.8455 86.0227 67.4573 86.3655 67.2146C86.7082 66.9234 87.1488 66.8264 87.6874 66.8264C88.2259 66.8264 88.7645 66.972 89.1562 67.1661V66.9234C89.1562 66.244 88.7155 65.9043 87.7853 65.9043C87.2467 65.9043 86.7571 66.0499 86.3165 66.3411V65.4675C86.7571 65.2249 87.3447 65.0793 88.0301 65.0793C89.3031 65.0793 90.1843 65.7102 90.1843 66.8264V68.5249C90.1843 68.8161 90.3312 68.9617 90.576 68.9617C90.7229 68.9617 90.8208 68.9617 90.8698 68.9132ZM89.2051 67.894C88.8135 67.6999 88.4218 67.5543 87.9811 67.5543C87.2957 67.5543 86.904 67.797 86.904 68.2823C86.904 68.7676 87.2957 69.0102 87.9322 69.0102C88.4707 69.0102 88.9603 68.7676 89.2541 68.4764V67.894H89.2051Z" fill="black"/>
<path d="M93.8563 71V68.8161H94.4438C94.6886 68.4279 94.8845 67.9911 94.9334 67.4573C95.0314 66.9234 95.0803 66.0984 95.0803 65.0793H98.8013V68.8161H99.5846V71H98.6054V69.7382H94.7866V71H93.8563ZM97.8221 68.8647V66.0014H96.0595C96.0595 67.2146 95.8637 68.1367 95.521 68.8161H97.8221V68.8647Z" fill="black"/>
<path d="M101.053 69.1558C100.564 68.6705 100.319 68.0881 100.319 67.4087C100.319 66.7293 100.564 66.1469 101.053 65.7102C101.543 65.2734 102.131 64.9822 102.914 64.9822C103.648 64.9822 104.285 65.2249 104.725 65.7102C105.166 66.1955 105.46 66.7778 105.46 67.4087C105.46 68.0881 105.215 68.6705 104.725 69.1558C104.236 69.6411 103.648 69.8838 102.914 69.8838C102.131 69.8838 101.543 69.6411 101.053 69.1558ZM103.991 68.5249C104.285 68.2337 104.432 67.8455 104.432 67.4087C104.432 66.972 104.285 66.6322 103.991 66.3411C103.697 66.0499 103.355 65.9043 102.914 65.9043C102.473 65.9043 102.131 66.0499 101.837 66.3411C101.543 66.6322 101.396 67.0205 101.396 67.4087C101.396 67.8455 101.543 68.2337 101.837 68.5249C102.131 68.8161 102.473 68.9617 102.914 68.9617C103.306 68.9617 103.697 68.8161 103.991 68.5249Z" fill="black"/>
<path d="M108.055 66.0014V66.6808C108.055 67.3602 108.006 67.797 107.859 68.3793C107.663 69.2044 107.173 69.6897 106.243 69.7382C106.096 69.7382 105.998 69.7382 105.901 69.6897V68.8161C105.949 68.8161 106.047 68.8646 106.096 68.8646C106.782 68.8646 107.027 68.2338 107.027 66.6323L107.076 65.1278H110.845V69.7382H109.817V66.0014H108.055Z" fill="black"/>
<path d="M112.314 69.7382V65.1278H115.937V66.0014H113.342V69.7382H112.314Z" fill="black"/>
<path d="M116.917 69.7382V65.1278H117.945V68.2823L120.442 65.1278H121.421V69.7382H120.393V66.5837L117.896 69.7382H116.917Z" fill="black"/>
<path d="M123.183 65.7102C123.624 65.2734 124.212 65.0308 124.897 65.0308C125.387 65.0308 125.778 65.1764 126.121 65.419C126.806 65.9043 127.1 66.6808 127.1 67.5058V67.7485H123.526C123.673 68.5249 124.309 69.0102 125.289 69.0102C125.827 69.0102 126.317 68.8647 126.806 68.5735V69.447C126.366 69.7382 125.827 69.8838 125.093 69.8838C124.358 69.8838 123.771 69.6411 123.281 69.2044C122.792 68.7676 122.547 68.1852 122.547 67.4573C122.547 66.7293 122.743 66.147 123.183 65.7102ZM126.072 66.972C126.072 66.6808 125.974 66.4381 125.729 66.1955C125.533 65.9528 125.24 65.8558 124.848 65.8558C124.114 65.8558 123.624 66.3411 123.526 66.972H126.072Z" fill="black"/>
<path d="M130.772 69.7382V65.1278H134.395V66.0014H131.8V69.7382H130.772Z" fill="black"/>
<path d="M135.619 69.1558C135.13 68.6705 134.885 68.0881 134.885 67.4087C134.885 66.7293 135.13 66.1469 135.619 65.7102C136.109 65.2734 136.696 64.9822 137.48 64.9822C138.214 64.9822 138.851 65.2249 139.291 65.7102C139.732 66.1955 140.026 66.7778 140.026 67.4087C140.026 68.0881 139.781 68.6705 139.291 69.1558C138.802 69.6411 138.214 69.8838 137.48 69.8838C136.696 69.8838 136.109 69.6411 135.619 69.1558ZM138.557 68.5249C138.851 68.2337 138.997 67.8455 138.997 67.4087C138.997 66.972 138.851 66.6322 138.557 66.3411C138.263 66.0499 137.92 65.9043 137.48 65.9043C137.039 65.9043 136.696 66.0499 136.403 66.3411C136.109 66.6322 135.962 67.0205 135.962 67.4087C135.962 67.8455 136.109 68.2337 136.403 68.5249C136.696 68.8161 137.039 68.9617 137.48 68.9617C137.92 68.9617 138.263 68.8161 138.557 68.5249Z" fill="black"/>
<path d="M140.466 71V68.8161H141.054C141.299 68.4279 141.494 67.9911 141.543 67.4573C141.641 66.9234 141.69 66.0984 141.69 65.0793H145.411V68.8161H146.195V71H145.215V69.7382H141.396V71H140.466ZM144.432 68.8647V66.0014H142.669C142.669 67.2146 142.474 68.1367 142.131 68.8161H144.432V68.8647Z" fill="black"/>
<path d="M147.321 69.7382V65.1278H148.349V66.5352H149.475C150.601 66.5352 151.335 67.1661 151.335 68.1367C151.335 68.5735 151.188 68.9617 150.846 69.3014C150.503 69.5926 150.062 69.7382 149.475 69.7382H147.321ZM148.349 68.9132H149.377C149.964 68.9132 150.356 68.622 150.356 68.1852C150.356 67.6999 150.013 67.4087 149.377 67.4087H148.349V68.9132ZM151.972 69.7382V65.1278H153V69.7382H151.972Z" fill="black"/>
<defs>
<linearGradient id="paint0_linear" x1="36.0525" y1="53.3447" x2="-2.84774" y2="-4.77161" gradientUnits="userSpaceOnUse">
<stop stop-color="#00B800"/>
<stop offset="1" stop-color="#53DA13"/>
</linearGradient>
<linearGradient id="paint1_linear" x1="32.5072" y1="55.7171" x2="-6.39308" y2="-2.39923" gradientUnits="userSpaceOnUse">
<stop stop-color="#00B800"/>
<stop offset="1" stop-color="#53DA13"/>
</linearGradient>
</defs>
</svg>
