<?xml version="1.0" encoding="UTF-8" standalone="no"?>
<svg width="52" height="49" viewBox="0 0 52 49" fill="none" xmlns="http://www.w3.org/2000/svg">
<g clip-path="url(#clip0)">
<path fill-rule="evenodd" clip-rule="evenodd" d="M26 0C16.4244 0 8.66663 7.70757 8.66663 17.2211C8.66663 25.6704 14.8015 32.7008 22.9163 34.152V19.0271C22.9163 18.3176 23.5006 17.7371 24.2147 17.7371H26.5193C26.5842 17.7371 26.6491 17.6726 26.6491 17.6081V0.0322493C26.4219 0 26.2272 0 26 0ZM22.6891 14.7702C21.553 14.7702 20.6442 13.8672 20.6442 12.7385C20.6442 11.6097 21.553 10.7068 22.6891 10.7068C23.8252 10.7068 24.734 11.6097 24.734 12.7385C24.7016 13.8672 23.7927 14.7702 22.6891 14.7702Z" fill="#00A73C"/>
<path fill-rule="evenodd" clip-rule="evenodd" d="M28.6941 0.193481V18.4143C28.6941 19.1238 28.1099 19.7043 27.3958 19.7043H25.0911C25.0262 19.7043 24.9613 19.7688 24.9613 19.8333V34.41C25.3184 34.4422 25.643 34.4422 26 34.4422C35.5755 34.4422 43.3333 26.7346 43.3333 17.2211C43.3333 8.61054 37.0038 1.48345 28.6941 0.193481ZM28.5968 26.0574C27.5905 26.0574 26.779 25.2512 26.779 24.2514C26.779 23.2517 27.5905 22.4455 28.5968 22.4455C29.603 22.4455 30.4145 23.2517 30.4145 24.2514C30.4145 25.2512 29.603 26.0574 28.5968 26.0574ZM33.4332 26.0574C32.427 26.0574 31.6155 25.2512 31.6155 24.2514C31.6155 23.2517 32.427 22.4455 33.4332 22.4455C34.4395 22.4455 35.2509 23.2517 35.2509 24.2514C35.2509 25.2512 34.4395 26.0574 33.4332 26.0574ZM38.2697 26.0574C37.2634 26.0574 36.4519 25.2512 36.4519 24.2514C36.4519 23.2517 37.2634 22.4455 38.2697 22.4455C39.2759 22.4455 40.0874 23.2517 40.0874 24.2514C40.0874 25.2512 39.2759 26.0574 38.2697 26.0574Z" fill="#191978"/>
<path fill-rule="evenodd" clip-rule="evenodd" d="M12.01 46.6325V45.5682H15.6779V44.375H12.01V43.5365C12.01 43.4398 12.01 43.3753 12.1074 43.3753H15.7753V42.1176H11.4907C10.9713 42.1176 10.6467 42.4723 10.6467 43.085V47.0839C10.6467 47.6967 10.9713 48.0514 11.4907 48.0514H15.8402V46.7937H12.1074C12.01 46.7937 12.01 46.7292 12.01 46.6325Z" fill="#191978"/>
<path fill-rule="evenodd" clip-rule="evenodd" d="M22.2671 43.3753V42.1176H17.9825C17.4631 42.1176 17.1385 42.4723 17.1385 43.085V48.0192H18.5343V43.5043C18.5343 43.4398 18.5343 43.343 18.6317 43.343H22.2671V43.3753Z" fill="#191978"/>
<path fill-rule="evenodd" clip-rule="evenodd" d="M34.6991 41.1824C34.5368 41.1824 34.3745 41.1501 34.2122 41.1501H31.4856C31.3233 41.1501 31.161 41.1501 30.9987 41.1824C29.1486 41.3114 28.4344 42.3111 28.4344 44.2138C28.4344 46.0843 29.2135 47.084 30.9987 47.2453C31.161 47.2453 31.3233 47.2775 31.5181 47.2775H32.1673V48.0515H33.563V47.2775H34.2122C34.3745 47.2775 34.5693 47.2775 34.6991 47.2453C36.4844 47.084 37.2634 46.0843 37.2634 44.2138C37.2634 42.3111 36.5493 41.3436 34.6991 41.1824ZM32.1348 46.0198H31.4856C31.3233 46.0198 31.1286 46.0198 30.9987 45.9875C30.1223 45.8585 29.8627 45.2781 29.8627 44.2138C29.8627 43.1496 30.1223 42.5691 30.9987 42.4079C31.161 42.3756 31.3233 42.3756 31.5181 42.3756H32.1348V46.0198ZM34.6991 45.9875C34.5693 46.0198 34.407 46.0198 34.2122 46.0198H33.563V42.4079H34.2122C34.407 42.4079 34.5693 42.4079 34.7316 42.4401C35.6404 42.5691 35.9001 43.1496 35.9001 44.2461C35.8352 45.278 35.5755 45.8585 34.6991 45.9875Z" fill="#191978"/>
<path fill-rule="evenodd" clip-rule="evenodd" d="M7.92009 41.021C7.23844 41.021 6.81647 41.408 6.49187 42.1497L4.60923 46.6001L2.69412 42.1497C2.36953 41.408 1.94755 41.021 1.26591 41.021C0.48688 41.021 -0.0324707 41.4725 -0.0324707 42.5045V48.0191H1.4282V42.698L3.34331 47.1806C3.60298 47.7933 3.9925 48.1481 4.57677 48.1481C5.16104 48.1481 5.55055 47.8256 5.81023 47.1806L7.75779 42.6657V48.0191H9.18601V42.5045C9.21846 41.5047 8.73157 41.021 7.92009 41.021Z" fill="#191978"/>
<path fill-rule="evenodd" clip-rule="evenodd" d="M42.0025 42.0208H41.4832C39.3084 42.0208 38.432 42.9882 38.432 45.0522C38.432 47.0839 39.3084 48.1159 41.4832 48.1159H41.9701C44.1449 48.1159 45.0213 47.1161 45.0213 45.0522C45.0537 42.9882 44.2098 42.0208 42.0025 42.0208ZM42.0025 46.8904H41.4832C40.2497 46.8904 39.8278 46.3099 39.8278 45.0844C39.8278 43.859 40.1848 43.2462 41.4832 43.2462H41.9376C43.2685 43.2462 43.5931 43.8267 43.5931 45.0844C43.6255 46.3099 43.236 46.8904 42.0025 46.8904Z" fill="#191978"/>
<path fill-rule="evenodd" clip-rule="evenodd" d="M24.8314 41.9563C24.2796 41.9563 23.8901 42.2143 23.6629 42.7625L21.7802 46.9549L21.2933 48.0192H21.7802H22.8514L23.4032 46.7292H26.357L26.9088 48.0192H28.402L26.0324 42.7948C25.7727 42.2788 25.3832 41.9563 24.8314 41.9563ZM23.8252 45.5682L24.734 43.4398C24.799 43.3108 24.8963 43.3108 24.9613 43.4398L25.8701 45.5682H23.8252Z" fill="#191978"/>
<path fill-rule="evenodd" clip-rule="evenodd" d="M50.6368 42.1176V44.3427H47.5856V42.1176H46.1898V48.0192H47.5856V45.6327H50.6368V48.0192H52.0001V42.1176H50.6368Z" fill="#191978"/>
</g>
<defs>
<clipPath id="clip0">
<rect width="52" height="48.1481" fill="white"/>
</clipPath>
</defs>
</svg>
