<svg width="90" height="46" viewBox="0 0 90 46" fill="none" xmlns="http://www.w3.org/2000/svg">
<path d="M4 45C2.34315 45 1 43.6569 1 42V4C1 2.34315 2.34315 1 4 1H42C43.6569 1 45 2.34314 45 4V42C45 43.6569 43.6569 45 42 45H4Z" stroke="white" stroke-width="2"/>
<path d="M23 5C29.2833 5 36 16.5189 36 26.4834C36 34.3107 31.5042 41 23 41C14.4958 41 10 34.3107 10 26.4834C10 16.4911 16.7167 5 23 5Z" fill="white"/>
<path d="M53.5068 17.7323H58.4049L60.0377 24.3072L61.6704 17.7323H66.5685V28.8898H63.3031V21.7456H63.2744L61.3266 28.8898H58.7487L56.8009 21.7456H56.7722V28.8898H53.5068V17.7323Z" fill="white"/>
<path d="M71.6103 20.6071H68.4595V17.7323H78.2271V20.6071H75.0763V28.8898H71.6103V20.6071Z" fill="white"/>
<path d="M86.5625 21.888C86.5052 21.4895 86.1901 20.2371 84.7579 20.2371C83.1252 20.2371 82.6096 21.8026 82.6096 23.3111C82.6096 24.8197 83.1252 26.3851 84.7579 26.3851C85.9037 26.3851 86.362 25.5597 86.5912 24.535H89.9998C89.9998 26.7836 88.1666 29.1745 84.8725 29.1745C81.2347 29.1745 79.1724 26.6413 79.1724 23.3396C79.1724 19.8102 81.4066 17.5047 84.8725 17.5047C87.9661 17.5047 89.6561 19.1271 89.9425 21.9165H86.5625V21.888Z" fill="white"/>
</svg>
