<svg width="70" height="34" viewBox="0 0 70 34" fill="none" xmlns="http://www.w3.org/2000/svg">
<path d="M0 33.8502H33.7988V0H0V33.8502Z" fill="#E60013"/>
<path d="M16.8993 3.48462C21.7041 3.48462 26.8402 12.0924 26.8402 19.5386C26.8402 25.3877 23.4023 30.3864 16.8993 30.3864C10.3964 30.3864 6.9585 25.3877 6.9585 19.5386C6.9585 12.0716 12.0946 3.48462 16.8993 3.48462Z" fill="white"/>
<path d="M70 33.871H36.2012V0.020752H70V33.871Z" fill="#E60013"/>
<path d="M38.6863 12.922H42.2277L43.4082 17.7133L44.5886 12.922H48.13V21.0527H45.7691V15.8466H45.7484L44.3401 21.0527H42.4762L41.0679 15.8466H41.0472V21.0527H38.6863V12.922Z" fill="white"/>
<path d="M51.7752 15.0169H49.4971V12.922H56.5592V15.0169H54.2811V21.0527H51.7752V15.0169Z" fill="white"/>
<path d="M62.5859 15.9503C62.5445 15.6599 62.3166 14.7473 61.2811 14.7473C60.1007 14.7473 59.7279 15.8881 59.7279 16.9874C59.7279 18.0867 60.1007 19.2275 61.2811 19.2275C62.1095 19.2275 62.4409 18.626 62.6066 17.8793H65.0711C65.0711 19.5179 63.7456 21.2601 61.364 21.2601C58.7338 21.2601 57.2427 19.4141 57.2427 17.0081C57.2427 14.4362 58.8581 12.7561 61.364 12.7561C63.6007 12.7561 64.8226 13.9384 65.0297 15.971H62.5859V15.9503Z" fill="white"/>
</svg>
