<svg width="123" height="123" viewBox="0 0 123 123" fill="none" xmlns="http://www.w3.org/2000/svg">
<mask id="mask0" mask-type="alpha" maskUnits="userSpaceOnUse" x="0" y="0" width="123" height="123">
<g opacity="0.3">
<path d="M27 49.9798C41.8454 49.9798 53.88 62.0146 53.88 76.8598C53.88 91.705 41.8454 103.74 27 103.74C12.1546 103.74 0.12 91.705 0.12 76.8598L0 73.0198C0 43.3289 24.0691 19.2598 53.76 19.2598V34.6198C43.5031 34.6198 33.8599 38.6141 26.6071 45.8669C25.211 47.2632 23.9369 48.7488 22.7875 50.3093C24.1601 50.0933 25.5667 49.9798 27 49.9798ZM96.12 49.9798C110.965 49.9798 123 62.0146 123 76.8598C123 91.705 110.965 103.74 96.12 103.74C81.2748 103.74 69.24 91.705 69.24 76.8598L69.12 73.0198C69.12 43.3289 93.1889 19.2598 122.88 19.2598V34.6198C112.623 34.6198 102.98 38.6141 95.7271 45.8669C94.3308 47.2632 93.0566 48.7488 91.9073 50.3093C93.2798 50.0933 94.6865 49.9798 96.12 49.9798Z" fill="black"/>
</g>
</mask>
<g mask="url(#mask0)">
<rect x="-10" y="-7" width="125" height="95" fill="#C4C4C4"/>
</g>
</svg>
