<?xml version="1.0" encoding="UTF-8" standalone="no"?>
<svg width="92" height="34" viewBox="0 0 92 34" fill="none" xmlns="http://www.w3.org/2000/svg">
<g clip-path="url(#clip0)">
<path d="M1.67279 33.8382C1.68746 33.8529 1.71681 33.8529 1.73148 33.8676C1.74616 33.8823 1.76083 33.8823 1.79018 33.8823C2.02494 33.9559 2.28906 34 2.5385 34C2.5385 34 3.03738 34 3.85907 34C5.09161 34 7.04313 34 9.00931 34C12.3694 34 15.7883 34 15.7883 34L7.10182 25.2756C5.50246 26.8793 4.43132 27.9238 3.65365 28.7183C2.96402 29.4098 2.47981 29.8953 2.05429 30.3366C1.49671 30.8957 1.12989 31.2635 1.12989 31.2635C0.851101 31.543 0.689697 31.9697 0.689697 32.3964C0.689697 33.0437 1.08587 33.6028 1.67279 33.8382Z" fill="#FF4F12"/>
<path d="M0.689543 32.3816C0.689543 31.955 0.850947 31.543 1.12973 31.2488C1.12973 31.2488 1.51123 30.8663 2.05414 30.3219C2.49433 29.8806 2.96387 29.3951 3.6535 28.7036C4.44584 27.9238 5.5023 26.8646 7.10167 25.2609C7.10167 25.2609 7.10166 25.2609 7.11634 25.2609C7.58588 24.7901 8.1141 24.2752 8.67168 23.7014C8.68635 23.6867 8.68635 23.6867 8.70103 23.672C11.2982 21.0826 14.9958 17.3899 20.4248 11.9611L8.51028 0L1.76068 6.78234C-0.264205 8.79792 0.0145831 10.122 0.0145831 12.8438C0.0145831 15.5656 0.0145831 31.4401 0.0145831 31.4401C0.0145831 32.5435 0.704216 33.4704 1.67264 33.8382C1.08572 33.6028 0.689543 33.0437 0.689543 32.3816Z" fill="#7700FF"/>
<path d="M76.0944 21.7448H74.0988L71.7218 24.1576V21.7448H70.0491V28.3653H71.7218V25.6288L74.1282 28.3653H76.1531L73.0424 24.8196L76.0944 21.7448Z" fill="#101828"/>
<path d="M22.8312 19.0229H18.5907V28.3799H20.3515V25.1285H22.8312C24.9441 25.1285 26.3234 24.0545 26.3234 22.0831C26.3234 20.0969 24.9295 19.0229 22.8312 19.0229ZM22.7725 23.5396H20.3515V20.5972H22.7725C23.9904 20.5972 24.5626 21.1856 24.5626 22.0684C24.5626 22.9511 24.0051 23.5396 22.7725 23.5396Z" fill="#101828"/>
<path d="M30.2999 21.5535C28.4804 21.5535 26.6903 22.7304 26.6903 25.055C26.6903 27.3795 28.4951 28.5565 30.2999 28.5565C32.1193 28.5565 33.9094 27.3795 33.9094 25.055C33.9094 22.7304 32.1047 21.5535 30.2999 21.5535ZM30.2999 26.9823C29.3168 26.9823 28.3924 26.2761 28.3924 25.055C28.3924 23.8339 29.3168 23.1277 30.2999 23.1277C31.283 23.1277 32.2074 23.8339 32.2074 25.055C32.1927 26.2761 31.283 26.9823 30.2999 26.9823Z" fill="#101828"/>
<path d="M38.1939 26.9822C37.1815 26.9822 36.4332 26.2466 36.4332 25.0549C36.4332 23.8779 37.2108 23.1276 38.1939 23.1276C38.7955 23.1276 39.3237 23.4072 39.7346 24.0398L41.1725 23.2012C40.6883 22.1713 39.6465 21.5387 38.2086 21.5387C36.3304 21.5387 34.7311 22.9364 34.7311 25.0402C34.7311 27.1588 36.2571 28.5417 38.2086 28.5417C39.6172 28.5417 40.571 27.8944 41.2459 26.7615L39.852 25.9965C39.4558 26.585 39.0303 26.9822 38.1939 26.9822Z" fill="#101828"/>
<path d="M56.0804 25.4964C55.9924 26.5115 55.8016 26.7469 55.4495 26.7469C55.2147 26.7469 55.0973 26.7175 54.9359 26.6734L54.9506 28.3947C54.9506 28.3947 55.156 28.4535 55.5375 28.4535C56.9608 28.4535 57.5037 27.5267 57.6211 25.5552L57.7825 23.2454H59.6753V28.3653H61.348V21.7448H56.3299L56.0804 25.4964Z" fill="#101828"/>
<path d="M51.3263 21.5535C49.4041 21.5535 47.8488 22.9511 47.8488 25.055C47.8488 27.1441 49.4041 28.5565 51.2529 28.5565C52.7055 28.5565 53.63 28.0121 54.2902 26.8793L52.955 26.2172C52.5441 26.7322 52.1773 27.1294 51.2823 27.1294C50.2992 27.1294 49.5802 26.4821 49.4628 25.4669H54.5544V24.8784C54.5544 22.9364 53.2044 21.5535 51.3263 21.5535ZM49.4775 24.187C49.7122 23.4366 50.3872 22.8481 51.2676 22.8481C52.192 22.8481 52.8229 23.3631 52.9843 24.187H49.4775Z" fill="#101828"/>
<path d="M65.7939 21.5535C63.8717 21.5535 62.3164 22.9511 62.3164 25.055C62.3164 27.1441 63.8717 28.5565 65.7205 28.5565C67.1732 28.5565 68.0976 28.0121 68.7579 26.8793L67.4226 26.2172C67.0118 26.7322 66.6449 27.1294 65.7499 27.1294C64.7668 27.1294 64.0478 26.4821 63.9304 25.4669H69.022V24.8784C69.022 22.9364 67.7014 21.5535 65.7939 21.5535ZM63.9598 24.187C64.1945 23.4366 64.8695 22.8481 65.7499 22.8481C66.6743 22.8481 67.3052 23.3631 67.4666 24.187H63.9598Z" fill="#101828"/>
<path d="M41.7595 23.216H43.7257V28.38H45.3985V23.216H47.3646V21.7448H41.7449V23.216H41.7595Z" fill="#101828"/>
<path d="M79.4986 21.5535C77.6791 21.5535 75.889 22.7304 75.889 25.055C75.889 27.3795 77.6938 28.5565 79.4986 28.5565C81.3181 28.5565 83.1082 27.3795 83.1082 25.055C83.1228 22.7304 81.3181 21.5535 79.4986 21.5535ZM79.4986 26.9823C78.5155 26.9823 77.5911 26.2761 77.5911 25.055C77.5911 23.8339 78.5155 23.1277 79.4986 23.1277C80.4817 23.1277 81.4061 23.8339 81.4061 25.055C81.4208 26.2761 80.4964 26.9823 79.4986 26.9823Z" fill="#101828"/>
<path d="M89.7991 21.7448L87.9796 26.3791L86.1602 21.7448H83.9592V28.3653H85.5586V24.1723L87.334 28.3653H88.6399L90.4154 24.1723V28.3653H92.0001V21.7448H89.7991Z" fill="#101828"/>
</g>
<defs>
<clipPath id="clip0">
<rect width="92" height="34" fill="white"/>
</clipPath>
</defs>
</svg>
