<?xml version="1.0" encoding="UTF-8" standalone="no"?>
<svg width="50" height="50" viewBox="0 0 50 50" fill="none" xmlns="http://www.w3.org/2000/svg">
<g clip-path="url(#clip0)">
<path d="M26.6129 13.7097H23.3871C21.1593 13.7097 19.3549 15.5142 19.3549 17.742V27.4194H30.6452V17.742C30.6452 15.5142 28.8407 13.7097 26.6129 13.7097Z" fill="#25C708"/>
<path d="M22.5907 35.5947L23.2863 40.4435C23.4072 41.2903 24.1431 41.9355 25.0101 41.9355C25.877 41.9355 26.6028 41.2903 26.7338 40.4435L27.4294 35.5947H22.5907Z" fill="#25C708"/>
<path d="M25 48.3871C21.8851 48.3871 19.3548 45.8569 19.3548 42.7419H17.7419C17.7419 46.744 20.998 50 25 50C29.002 50 32.2581 46.744 32.2581 42.7419H30.6452C30.6452 45.8569 28.1149 48.3871 25 48.3871Z" fill="black"/>
<path d="M25 46.7742C27.2279 46.7742 29.0323 44.9698 29.0323 42.7419H27.4194C27.4194 44.0726 26.3307 45.1613 25 45.1613C23.6694 45.1613 22.5807 44.0726 22.5807 42.7419H20.9678C20.9678 44.9698 22.7722 46.7742 25 46.7742Z" fill="black"/>
<path d="M47.5806 4.03223H41.129C39.7984 4.03223 38.7097 5.12094 38.7097 6.45158V12.2782L33.6492 13.5484C33.1956 11.2701 32.0867 9.18344 30.4133 7.49997L30.1815 7.26811H29.0323V5.64513H27.4194V7.25803H25.8065V4.03223H24.1935V7.25803H22.5806V5.64513H20.9677V7.25803H19.8286L19.5968 7.48989C17.9234 9.16328 16.8044 11.26 16.3609 13.5383L11.2903 12.2782V6.45158C11.2903 5.12094 10.2016 4.03223 8.87097 4.03223H2.41935C1.08871 4.03223 0 5.12094 0 6.45158V27.4193C0 28.75 1.08871 29.8387 2.41935 29.8387H8.87097C10.2016 29.8387 11.2903 28.75 11.2903 27.4193V21.5927L16.1694 20.373C16.3306 23.004 17.3488 25.4637 19.0927 27.4395L15.3226 31.9657V36.2903H34.6774V31.9657L30.9073 27.4395C32.6512 25.4637 33.6694 23.004 33.8306 20.373L38.7097 21.5927V27.4193C38.7097 28.75 39.7984 29.8387 41.129 29.8387H47.5806C48.9113 29.8387 50 28.75 50 27.4193V6.45158C50 5.12094 48.9113 4.03223 47.5806 4.03223ZM48.3871 6.45158V8.87094H45.1613V5.64513H47.5806C48.0242 5.64513 48.3871 6.00803 48.3871 6.45158ZM40.3226 15.3225H43.5484V18.5484H40.3226V15.3225ZM40.3226 13.7096V10.4838H43.5484V13.7096H40.3226ZM40.3226 20.1613H43.5484V23.3871H40.3226V20.1613ZM45.1613 20.1613H48.3871V23.3871H45.1613V20.1613ZM45.1613 18.5484V15.3225H48.3871V18.5484H45.1613ZM45.1613 13.7096V10.4838H48.3871V13.7096H45.1613ZM41.129 5.64513H43.5484V8.87094H40.3226V6.45158C40.3226 6.00803 40.6855 5.64513 41.129 5.64513ZM20.504 8.87094H29.496C29.9698 9.37497 30.373 9.90924 30.7258 10.4838H19.2641C19.627 9.90924 20.0302 9.37497 20.504 8.87094ZM9.67742 13.7096H6.45161V10.4838H9.67742V13.7096ZM9.67742 18.5484H6.45161V15.3225H9.67742V18.5484ZM4.83871 13.7096H1.6129V10.4838H4.83871V13.7096ZM4.83871 15.3225V18.5484H1.6129V15.3225H4.83871ZM4.83871 20.1613V23.3871H1.6129V20.1613H4.83871ZM6.45161 20.1613H9.67742V23.3871H6.45161V20.1613ZM9.67742 6.45158V8.87094H6.45161V5.64513H8.87097C9.31452 5.64513 9.67742 6.00803 9.67742 6.45158ZM2.41935 5.64513H4.83871V8.87094H1.6129V6.45158C1.6129 6.00803 1.97581 5.64513 2.41935 5.64513ZM1.6129 27.4193V25H4.83871V28.2258H2.41935C1.97581 28.2258 1.6129 27.8629 1.6129 27.4193ZM8.87097 28.2258H6.45161V25H9.67742V27.4193C9.67742 27.8629 9.31452 28.2258 8.87097 28.2258ZM11.2903 13.9314L16.1593 15.1512C16.1492 15.383 16.129 15.6149 16.129 15.8467V18.7197L11.2903 19.9294V13.9314ZM29.4556 28.2258L32.1472 31.4516H17.8528L20.5444 28.2258H29.4556ZM16.9355 34.6774V33.0645H33.0645V34.6774H16.9355ZM32.2581 19.627C32.2581 22.248 31.2802 24.7076 29.496 26.6129H20.504C18.7198 24.7177 17.7419 22.248 17.7419 19.627V15.8467C17.7419 14.5363 17.9839 13.2661 18.4476 12.0867H31.5524C32.0161 13.2661 32.2581 14.5363 32.2581 15.8467V19.627ZM33.871 18.7298V15.8568C33.871 15.625 33.8508 15.3931 33.8407 15.1613L38.7097 13.9415V19.9395L33.871 18.7298ZM40.3226 27.4193V25H43.5484V28.2258H41.129C40.6855 28.2258 40.3226 27.8629 40.3226 27.4193ZM47.5806 28.2258H45.1613V25H48.3871V27.4193C48.3871 27.8629 48.0242 28.2258 47.5806 28.2258Z" fill="black"/>
<path d="M25 16.9354C23.6694 16.9354 22.5807 18.0241 22.5807 19.3548C22.5807 20.6854 23.6694 21.7741 25 21.7741C26.3307 21.7741 27.4194 20.6854 27.4194 19.3548C27.4194 18.0241 26.3307 16.9354 25 16.9354ZM25 20.1612C24.5565 20.1612 24.1936 19.7983 24.1936 19.3548C24.1936 18.9112 24.5565 18.5483 25 18.5483C25.4436 18.5483 25.8065 18.9112 25.8065 19.3548C25.8065 19.7983 25.4436 20.1612 25 20.1612Z" fill="black"/>
<path d="M22.5807 23.3871H24.1936V25H22.5807V23.3871Z" fill="black"/>
<path d="M25.8064 23.3871H27.4193V25H25.8064V23.3871Z" fill="black"/>
<path d="M25 4.83871C23.6694 4.83871 22.5807 3.75 22.5807 2.41935C22.5807 1.08871 23.6694 0 25 0C26.3307 0 27.4194 1.08871 27.4194 2.41935C27.4194 3.75 26.3307 4.83871 25 4.83871Z" fill="#25C708"/>
</g>
<defs>
<clipPath id="clip0">
<rect width="50" height="50" fill="white"/>
</clipPath>
</defs>
</svg>
