<svg width="90" height="17" viewBox="0 0 90 17" fill="none" xmlns="http://www.w3.org/2000/svg">
<g clip-path="url(#clip0)">
<path d="M19.4094 0H22.0969L16.8414 16.2442H14.8706L11.0484 4.71798L7.34572 16.2442H5.3152L0 0H2.74718L6.27074 10.9887L9.91374 0H12.2429L15.8261 10.9887L19.4094 0ZM35.4745 16.2442H38.2216V8.89847H44.3729V6.33046H38.2216V2.56802H46.7618V0H35.4745V16.2442ZM73.0392 7.82349C72.4419 8.54015 71.6656 9.07764 70.71 9.31652L74.6516 16.2442H71.6058L67.724 9.49569H63.2449V16.2442H60.4977V0H68.9184C70.5309 0 71.785 0.418049 72.7405 1.25415C73.6961 2.09025 74.1739 3.28467 74.1739 4.71798C74.1739 5.91241 73.8155 6.98739 73.0392 7.82349ZM71.3072 4.7777C71.3072 4.06105 71.1281 3.58328 70.71 3.16523C70.292 2.8069 69.6948 2.56802 68.8587 2.56802H63.1851V6.86795H68.7392C69.5753 6.86795 70.2323 6.68879 70.6503 6.33046C71.1281 5.97213 71.3072 5.49436 71.3072 4.7777ZM81.3404 13.6762V8.89847H87.4917V6.33046H81.3404V2.56802H89.6417V0H78.5932V16.2442H90V13.6762H81.3404ZM51.5395 2.56802H52.5547V13.6165H51.5395V16.1845H55.3019V0H51.5395V2.56802ZM26.2177 16.2442H29.9801V13.6762H28.9648V2.56802H29.9801V0H26.2177V16.2442Z" fill="#EB6607"/>
</g>
<defs>
<clipPath id="clip0">
<rect width="90" height="16.2442" fill="white"/>
</clipPath>
</defs>
</svg>
